<?xml version="1.0" encoding="utf-8"?>
<!-- Generator: Adobe Illustrator 24.3.0, SVG Export Plug-In . SVG Version: 6.00 Build 0)  -->
<svg version="1.1" id="Layer_1" xmlns="http://www.w3.org/2000/svg" xmlns:xlink="http://www.w3.org/1999/xlink" x="0px" y="0px"
	 viewBox="0 0 4000 4000" style="enable-background:new 0 0 4000 4000;" xml:space="preserve">
<style type="text/css">
	.st0{display:none;fill:none;stroke:#0A5244;stroke-width:2.9284;stroke-miterlimit:10;}
	.st1{opacity:0.1;}
	.st2{fill:#E1E5E2;}
	.st3{fill:#FEC253;}
	.st4{fill:#77C586;}
	.st5{fill:#393B50;}
	.st6{fill:#232533;}
	.st7{fill:#FFFFFF;}
	.st8{fill:none;stroke:#393B50;stroke-width:5;stroke-miterlimit:10;}
	.st9{fill:#F5F6F6;}
</style>
<polygon class="st0" points="1464.72,1836 1392.26,1836 1392.26,1763.54 1349.29,1763.54 1349.29,1836 1276.83,1836 
	1276.83,1878.97 1349.29,1878.97 1349.29,1951.43 1392.26,1951.43 1392.26,1878.97 1464.72,1878.97 "/>
<g>
	<g class="st1">
		<g>
			<g>
				<path class="st2" d="M352.9,2456.34c-159.33-280.31-265.69-614.75-164.35-913.75c96.17-283.76,375.15-428.85,649.43-497.11
					c286.8-71.38,587.9-79.52,877.77-140.19c304.1-63.64,603.02-152.4,892.06-266.42c131.09-51.71,260.72-108.78,397.3-143.5
					c246.23-62.6,548.36-23.08,709.21,193.27c167.95,225.91,175.57,552.9,54.29,801.69c-138.56,284.23-387.09,507.08-478.35,815.77
					c-55.31,187.12-42.28,390.43-107.58,574.02c-63.95,179.8-160.67,349.54-293.32,487.6
					c-151.39,157.58-351.06,272.09-567.07,305.09c-298.25,45.56-598.62-63.96-866.24-203.26
					c-357.83-186.25-691.39-435.12-935.61-759.2C462.53,2633.52,404.89,2547.81,352.9,2456.34z"/>
			</g>
		</g>
	</g>
	<g>
		<g>
			<g>
				<path class="st3" d="M3101.33,3378.35c0-11.73,84.46-236.95,227.57-288.57c-56.31,239.3-164.22,329.54-208.8,347.76
					C3106.02,3415.89,3101.33,3378.35,3101.33,3378.35z"/>
				<path class="st3" d="M3167,3380.43c0,0,72.73-133.73,227.57-114.96c-89.15,56.31-227.57,139.96-227.57,139.96V3380.43z"/>
				<path class="st3" d="M3096.55,3423.61c0,0-72.73-178.3,0-267.45C3131.75,3210.11,3127.05,3343.84,3096.55,3423.61z"/>
				<path class="st3" d="M3087.49,3433.77c0,0-253.38-157.19-401.18-147.8C2796.58,3215.59,3019.46,3285.97,3087.49,3433.77z"/>
				<path class="st3" d="M3071.03,3412.3c0,0-117.3-63.89-147.8-225.77C3012.38,3191.23,3089.8,3354.2,3071.03,3412.3z"/>
				<path class="st3" d="M3082.37,3397.95c0,0-65.69-124.34-39.88-197.07C3080.03,3254.55,3094.1,3351.03,3082.37,3397.95z"/>
			</g>
		</g>
		<g>
			<g>
				<g>
					<path class="st4" d="M3317.58,3486.44h-431.14c-2.46,0-4.46-2-4.46-4.46v-96.4c0-2.46,2-4.46,4.46-4.46h431.13
						c2.46,0,4.46,2,4.46,4.46v96.4C3322.04,3484.44,3320.04,3486.44,3317.58,3486.44z"/>
				</g>
				<g>
					<path class="st5" d="M3192.71,3733.11h-181.4c-12.96,0-24.31-8.71-27.66-21.23l-60.42-225.45h357.56l-60.42,225.45
						C3217.02,3724.41,3205.67,3733.11,3192.71,3733.11z"/>
				</g>
				<g>
					<polygon class="st6" points="2947.76,3577.98 3280.79,3486.44 2923.23,3486.44 					"/>
				</g>
			</g>
		</g>
	</g>
	<path class="st2" d="M3777.91,3807.99H222.09c-20.8,0-37.66-16.86-37.66-37.66v0c0-20.8,16.86-37.66,37.66-37.66h3555.82
		c20.8,0,37.66,16.86,37.66,37.66v0C3815.57,3791.13,3798.71,3807.99,3777.91,3807.99z"/>
	
		<ellipse transform="matrix(0.7071 -0.7071 0.7071 0.7071 -680.5696 1595.264)" class="st7" cx="1585.37" cy="1619.15" rx="109.81" ry="109.81"/>
	<g>
		<path class="st7" d="M1175.04,1807.3h19.01l-27.61,72.51h-17.8l-27.71-72.51h19.11l17.5,52.08L1175.04,1807.3z"/>
		<path class="st7" d="M1201.03,1807.3h16.69v72.51h-16.69V1807.3z"/>
		<path class="st7" d="M1231.47,1879.81v-72.51h25.28c5.19,0,10.03,0.76,14.51,2.28c4.48,1.52,8.39,3.78,11.73,6.78
			c3.34,3,5.93,6.76,7.79,11.28c1.85,4.52,2.78,9.84,2.78,15.98c0,6.07-0.95,11.36-2.83,15.88c-1.89,4.52-4.48,8.28-7.79,11.28
			c-3.3,3-7.2,5.26-11.68,6.78c-4.48,1.52-9.32,2.28-14.51,2.28H1231.47z M1257.16,1864.64c2.76,0,5.34-0.39,7.74-1.16
			c2.39-0.77,4.47-2,6.22-3.69c1.75-1.68,3.14-3.88,4.15-6.57c1.01-2.7,1.52-5.9,1.52-9.61c0-3.71-0.51-6.93-1.52-9.66
			c-1.01-2.73-2.39-4.94-4.15-6.62c-1.75-1.68-3.84-2.92-6.27-3.69c-2.43-0.77-4.99-1.16-7.69-1.16h-9v42.17H1257.16z"/>
		<path class="st7" d="M1304.18,1807.3h50.77v15.17h-34.08v13.25h31.45v15.07h-31.45v13.85h34.99v15.17h-51.68V1807.3z"/>
		<path class="st7" d="M1432.22,1827.73c1.82,4.72,2.73,10.01,2.73,15.88c0,5.87-0.91,11.14-2.73,15.83
			c-1.82,4.69-4.33,8.65-7.53,11.88c-3.2,3.24-6.98,5.73-11.33,7.48c-4.35,1.75-9.09,2.63-14.21,2.63c-5.12,0-9.84-0.88-14.16-2.63
			c-4.32-1.75-8.09-4.25-11.33-7.48c-3.24-3.24-5.75-7.2-7.53-11.88c-1.79-4.69-2.68-9.96-2.68-15.83c0-5.87,0.89-11.16,2.68-15.88
			c1.79-4.72,4.3-8.7,7.53-11.93c3.24-3.24,7.03-5.73,11.38-7.48c4.35-1.75,9.05-2.63,14.11-2.63c5.12,0,9.86,0.88,14.21,2.63
			c4.35,1.75,8.12,4.25,11.33,7.48C1427.88,1819.03,1430.4,1823.01,1432.22,1827.73z M1416.69,1853.31
			c0.98-2.83,1.47-6.07,1.47-9.71c0-3.64-0.49-6.89-1.47-9.76c-0.98-2.87-2.33-5.26-4.05-7.18c-1.72-1.92-3.73-3.39-6.02-4.4
			c-2.29-1.01-4.79-1.52-7.48-1.52c-2.7,0-5.18,0.51-7.43,1.52c-2.26,1.01-4.25,2.48-5.97,4.4c-1.72,1.92-3.07,4.3-4.05,7.13
			c-0.98,2.83-1.47,6.1-1.47,9.81c0,3.64,0.49,6.88,1.47,9.71c0.98,2.83,2.33,5.21,4.05,7.13c1.72,1.92,3.71,3.39,5.97,4.4
			c2.26,1.01,4.74,1.52,7.43,1.52c2.7,0,5.19-0.51,7.48-1.52c2.29-1.01,4.3-2.48,6.02-4.4S1415.71,1856.14,1416.69,1853.31z"/>
		<path class="st7" d="M1517.67,1854.93v-47.63h15.78v72.51h-18.31l-28.11-47.63v47.63h-15.68v-72.51h18.3L1517.67,1854.93z"/>
		<path class="st7" d="M1612.74,1827.73c1.82,4.72,2.73,10.01,2.73,15.88c0,5.87-0.91,11.14-2.73,15.83
			c-1.82,4.69-4.33,8.65-7.53,11.88c-3.2,3.24-6.98,5.73-11.33,7.48c-4.35,1.75-9.09,2.63-14.21,2.63c-5.12,0-9.84-0.88-14.16-2.63
			c-4.32-1.75-8.09-4.25-11.33-7.48c-3.24-3.24-5.75-7.2-7.53-11.88c-1.79-4.69-2.68-9.96-2.68-15.83c0-5.87,0.89-11.16,2.68-15.88
			c1.79-4.72,4.3-8.7,7.53-11.93c3.24-3.24,7.03-5.73,11.38-7.48c4.35-1.75,9.05-2.63,14.11-2.63c5.12,0,9.86,0.88,14.21,2.63
			c4.35,1.75,8.12,4.25,11.33,7.48C1608.4,1819.03,1610.92,1823.01,1612.74,1827.73z M1597.21,1853.31
			c0.98-2.83,1.47-6.07,1.47-9.71c0-3.64-0.49-6.89-1.47-9.76c-0.98-2.87-2.33-5.26-4.05-7.18c-1.72-1.92-3.73-3.39-6.02-4.4
			c-2.29-1.01-4.79-1.52-7.48-1.52c-2.7,0-5.18,0.51-7.43,1.52c-2.26,1.01-4.25,2.48-5.97,4.4c-1.72,1.92-3.07,4.3-4.05,7.13
			c-0.98,2.83-1.47,6.1-1.47,9.81c0,3.64,0.49,6.88,1.47,9.71c0.98,2.83,2.33,5.21,4.05,7.13s3.71,3.39,5.97,4.4
			c2.26,1.01,4.74,1.52,7.43,1.52c2.7,0,5.19-0.51,7.48-1.52c2.29-1.01,4.3-2.48,6.02-4.4
			C1594.89,1858.52,1596.23,1856.14,1597.21,1853.31z"/>
		<path class="st7" d="M1617.29,1807.3h61.49v15.17h-22.35v57.34h-16.79v-57.34h-22.35V1807.3z"/>
		<path class="st7" d="M1713.16,1807.3h52.69v15.17h-36v13.25h33.27v15.07h-33.27v29.02h-16.69V1807.3z"/>
		<path class="st7" d="M1841.7,1827.73c1.82,4.72,2.73,10.01,2.73,15.88c0,5.87-0.91,11.14-2.73,15.83
			c-1.82,4.69-4.33,8.65-7.53,11.88c-3.2,3.24-6.98,5.73-11.33,7.48c-4.35,1.75-9.09,2.63-14.21,2.63c-5.12,0-9.84-0.88-14.16-2.63
			c-4.32-1.75-8.09-4.25-11.33-7.48c-3.24-3.24-5.75-7.2-7.53-11.88c-1.79-4.69-2.68-9.96-2.68-15.83c0-5.87,0.89-11.16,2.68-15.88
			c1.79-4.72,4.3-8.7,7.53-11.93c3.24-3.24,7.03-5.73,11.38-7.48c4.35-1.75,9.05-2.63,14.11-2.63c5.12,0,9.86,0.88,14.21,2.63
			c4.35,1.75,8.12,4.25,11.33,7.48C1837.37,1819.03,1839.88,1823.01,1841.7,1827.73z M1826.18,1853.31
			c0.98-2.83,1.47-6.07,1.47-9.71c0-3.64-0.49-6.89-1.47-9.76c-0.98-2.87-2.33-5.26-4.04-7.18c-1.72-1.92-3.73-3.39-6.02-4.4
			c-2.29-1.01-4.79-1.52-7.48-1.52c-2.7,0-5.18,0.51-7.43,1.52c-2.26,1.01-4.25,2.48-5.97,4.4c-1.72,1.92-3.07,4.3-4.04,7.13
			c-0.98,2.83-1.47,6.1-1.47,9.81c0,3.64,0.49,6.88,1.47,9.71c0.98,2.83,2.33,5.21,4.04,7.13c1.72,1.92,3.71,3.39,5.97,4.4
			c2.26,1.01,4.74,1.52,7.43,1.52c2.7,0,5.19-0.51,7.48-1.52c2.29-1.01,4.3-2.48,6.02-4.4
			C1823.85,1858.52,1825.2,1856.14,1826.18,1853.31z"/>
		<path class="st7" d="M1854.85,1807.3h16.79v44.3c0,4.92,1.23,8.61,3.69,11.07c2.46,2.46,5.85,3.69,10.16,3.69
			c4.38,0,7.8-1.23,10.27-3.69c2.46-2.46,3.69-6.15,3.69-11.07v-44.3h16.79v44.09c0,5.06-0.81,9.47-2.43,13.25
			c-1.62,3.78-3.79,6.91-6.52,9.41c-2.73,2.5-5.97,4.35-9.71,5.56c-3.74,1.21-7.77,1.82-12.09,1.82c-4.25,0-8.24-0.61-11.98-1.82
			c-3.74-1.21-7-3.07-9.76-5.56c-2.77-2.49-4.94-5.63-6.52-9.41c-1.59-3.77-2.38-8.19-2.38-13.25V1807.3z"/>
		<path class="st7" d="M1975.29,1854.93v-47.63h15.78v72.51h-18.3l-28.11-47.63v47.63h-15.68v-72.51h18.3L1975.29,1854.93z"/>
		<path class="st7" d="M2004.72,1879.81v-72.51h25.28c5.19,0,10.03,0.76,14.51,2.28c4.48,1.52,8.39,3.78,11.73,6.78
			c3.34,3,5.93,6.76,7.79,11.28c1.85,4.52,2.78,9.84,2.78,15.98c0,6.07-0.94,11.36-2.83,15.88c-1.89,4.52-4.49,8.28-7.79,11.28
			c-3.3,3-7.2,5.26-11.68,6.78c-4.49,1.52-9.32,2.28-14.51,2.28H2004.72z M2030.41,1864.64c2.76,0,5.34-0.39,7.74-1.16
			c2.39-0.77,4.47-2,6.22-3.69c1.75-1.68,3.14-3.88,4.15-6.57c1.01-2.7,1.52-5.9,1.52-9.61c0-3.71-0.51-6.93-1.52-9.66
			c-1.01-2.73-2.39-4.94-4.15-6.62c-1.75-1.68-3.84-2.92-6.27-3.69c-2.43-0.77-4.99-1.16-7.69-1.16h-9v42.17H2030.41z"/>
	</g>
	<g>
		<path class="st3" d="M1571.16,1561.41h27.38v17.88l-3.87,65.23h-19.49l-4.03-65.23V1561.41z M1573.25,1654.83h23.35v22.07h-23.35
			V1654.83z"/>
	</g>
	<line class="st8" x1="1019.67" y1="192.01" x2="1019.67" y2="967.12"/>
	<line class="st8" x1="2932.35" y1="192.01" x2="2932.35" y2="967.12"/>
	<g>
		<g>
			<g>
				<g>
					<path class="st9" d="M3633.27,2954.35L640,3141.37c-12.86,0.8-24.04-9.06-24.85-21.92l-21.78-348.63l-11.95-191.24l-1.46-23.41
						l-7.8-124.81l-4.04-64.7l-9.33-149.24l-68.56-1097.43l-9.12-145.89c0-0.05-0.01-0.09-0.01-0.14l-0.57-9.15
						c-0.81-12.87,9.06-24.05,21.92-24.85l9.29-0.58l2983.98-186.45c12.87-0.8,24.05,9.07,24.85,21.93l0.58,9.29l9.12,145.89
						l65.94,1055.42l11.95,191.25l1.46,23.39l7.77,124.25l4.08,65.28l9.29,148.66l24.44,391.21
						C3656,2942.36,3646.13,2953.54,3633.27,2954.35z"/>
					<path class="st2" d="M3530.27,930.04l-9.12-145.89c-1.12-17.97-16.75-31.76-34.72-30.64L511.74,939.38
						c-17.97,1.12-31.76,16.75-30.64,34.72l9.12,145.89L3530.27,930.04z"/>
					<circle class="st7" cx="3173.01" cy="857.87" r="31.12"/>
					
						<ellipse transform="matrix(0.1321 -0.9912 0.9912 0.1321 2002.9392 3989.8616)" class="st7" cx="3279.78" cy="851.2" rx="31.12" ry="31.12"/>
					<path class="st7" d="M3417.62,842.59c1.07,17.15-11.97,31.93-29.12,33c-17.15,1.07-31.93-11.97-33-29.12
						c-1.07-17.15,11.97-31.93,29.12-33C3401.77,812.4,3416.54,825.43,3417.62,842.59z"/>
				</g>
				
					<rect x="625.19" y="1126.17" transform="matrix(0.9981 -0.0624 0.0624 0.9981 -122.9849 132.3868)" class="st7" width="2868.4" height="1820.57"/>
			</g>
		</g>
	</g>
	<polygon class="st3" points="3609.62,2200.1 3507.81,2219.37 2113.25,2483.25 667.4,2756.82 593.37,2770.82 581.42,2579.58 
		579.96,2556.17 653.98,2542.17 2082.61,2271.85 3494.4,2004.72 3583.45,1987.87 3596.21,1985.46 3608.16,2176.71 	"/>
	<g>
		<path class="st3" d="M1504.68,1850.58l169.77-303.14l100.93-10.09l28.32,283.34l50.78-5.07l8.83,88.39l-50.78,5.07l7.77,77.73
			l-95.91,9.59l-7.77-77.73l-203.1,20.3L1504.68,1850.58z M1707.79,1830.28l-12.97-129.76l-76.67,138.72L1707.79,1830.28z"/>
		<path class="st3" d="M2219.82,1619.56c11.28,28.42,18.78,61.23,22.5,98.42c3.72,37.2,2.85,70.73-2.61,100.61
			c-5.46,29.89-14.7,55.6-27.74,77.17c-13.04,21.56-29.91,38.66-50.59,51.27c-20.69,12.61-44.41,20.27-71.15,22.94
			c-27.17,2.72-52.03-0.08-74.6-8.37c-22.57-8.29-42.48-21.71-59.74-40.25c-17.27-18.53-31.52-41.9-42.78-70.12
			c-11.27-28.21-18.75-60.91-22.47-98.11c-3.72-37.19-2.86-70.83,2.58-100.93c5.43-30.08,14.77-55.92,28.02-77.51
			c13.25-21.58,30.11-38.67,50.59-51.27c20.48-12.59,44.29-20.26,71.46-22.97c27.16-2.71,52.02,0.08,74.6,8.37
			c22.56,8.3,42.37,21.72,59.42,40.28C2194.37,1567.65,2208.53,1591.15,2219.82,1619.56z M2129.98,1835.57
			c10.16-25.07,12.92-60.81,8.28-107.19c-4.64-46.39-14.42-80.97-29.36-103.75c-14.94-22.77-33.69-33.04-56.26-30.78
			c-22.57,2.26-39.03,16.04-49.37,41.34c-10.35,25.31-13.2,61.15-8.56,107.54c4.64,46.39,14.41,80.87,29.33,103.43
			c14.92,22.57,33.87,32.7,56.86,30.4C2103.46,1874.31,2119.82,1860.64,2129.98,1835.57z"/>
		<path class="st3" d="M2300.17,1771.07l169.77-303.14l100.93-10.09l28.32,283.34l50.78-5.07l8.83,88.39l-50.78,5.07l7.77,77.73
			l-95.91,9.59l-7.77-77.73l-203.11,20.3L2300.17,1771.07z M2503.28,1750.78l-12.97-129.76l-76.67,138.72L2503.28,1750.78z"/>
	</g>
	<g>
		<path class="st7" d="M842.34,2568.68l47.54-9l2.69,14.21l-31.92,6.04l2.35,12.41l29.45-5.58l2.67,14.11l-29.45,5.58l2.46,12.97
			l32.77-6.2l2.69,14.21l-48.39,9.16L842.34,2568.68z"/>
		<path class="st7" d="M932.89,2597.15l-8.43,1.6l4.52,23.87l-15.63,2.96l-12.86-67.9l26.9-5.09c3.6-0.68,7.03-0.79,10.29-0.33
			c3.26,0.46,6.19,1.44,8.8,2.94c2.61,1.5,4.77,3.5,6.48,5.98c1.71,2.49,2.89,5.41,3.52,8.75c0.88,4.67,0.53,8.78-1.05,12.32
			c-1.59,3.54-4.14,6.72-7.66,9.54l20.04,23.48l-16.76,3.17L932.89,2597.15z M921.93,2585.39l11.17-2.12
			c3.28-0.62,5.61-1.91,6.97-3.87c1.36-1.96,1.81-4.17,1.34-6.63c-0.47-2.46-1.69-4.35-3.68-5.68c-1.98-1.32-4.62-1.68-7.9-1.05
			l-11.17,2.12L921.93,2585.39z"/>
		<path class="st7" d="M994.54,2585.48l-8.43,1.6l4.52,23.87L975,2613.9l-12.86-67.9l26.9-5.09c3.6-0.68,7.03-0.79,10.29-0.33
			c3.26,0.46,6.19,1.44,8.8,2.94c2.61,1.5,4.77,3.5,6.48,5.98c1.71,2.49,2.89,5.41,3.52,8.75c0.88,4.67,0.53,8.78-1.05,12.32
			c-1.59,3.54-4.14,6.72-7.66,9.54l20.04,23.48l-16.76,3.17L994.54,2585.48z M983.58,2573.72l11.18-2.12
			c3.28-0.62,5.61-1.91,6.97-3.87c1.36-1.96,1.81-4.17,1.34-6.63c-0.47-2.46-1.69-4.35-3.68-5.68c-1.98-1.32-4.62-1.68-7.9-1.05
			l-11.17,2.12L983.58,2573.72z"/>
		<path class="st7" d="M1089.64,2541.67c2.54,4.1,4.33,8.89,5.37,14.38c1.04,5.49,1.12,10.6,0.25,15.31
			c-0.87,4.71-2.52,8.87-4.95,12.46c-2.43,3.6-5.52,6.6-9.28,9.02c-3.76,2.41-8.04,4.07-12.84,4.98c-4.8,0.91-9.37,0.92-13.72,0.05
			c-4.35-0.88-8.33-2.54-11.93-5c-3.6-2.46-6.66-5.72-9.16-9.79c-2.5-4.07-4.28-8.85-5.32-14.35c-1.04-5.49-1.14-10.61-0.31-15.34
			c0.84-4.74,2.48-8.91,4.94-12.51c2.46-3.6,5.57-6.61,9.33-9.03c3.76-2.41,8.01-4.07,12.74-4.96c4.8-0.91,9.39-0.93,13.77-0.06
			c4.38,0.87,8.36,2.54,11.93,5C1084.04,2534.29,1087.1,2537.58,1089.64,2541.67z M1079.64,2568.38c0.41-2.82,0.3-5.94-0.35-9.35
			s-1.68-6.37-3.1-8.88c-1.42-2.51-3.11-4.51-5.06-6.01c-1.95-1.49-4.09-2.51-6.42-3.05c-2.33-0.54-4.75-0.57-7.28-0.09
			c-2.53,0.48-4.76,1.39-6.69,2.74c-1.94,1.35-3.54,3.07-4.81,5.18c-1.27,2.1-2.11,4.57-2.52,7.39c-0.41,2.82-0.29,5.97,0.37,9.45
			c0.65,3.41,1.68,6.35,3.09,8.83c1.42,2.48,3.1,4.46,5.05,5.96c1.95,1.49,4.07,2.51,6.37,3.06c2.29,0.55,4.7,0.58,7.23,0.1
			c2.52-0.48,4.77-1.39,6.74-2.75c1.97-1.35,3.59-3.08,4.86-5.19C1078.39,2573.67,1079.23,2571.21,1079.64,2568.38z"/>
		<path class="st7" d="M1130.82,2559.67l-8.43,1.6l4.52,23.87l-15.63,2.96l-12.86-67.9l26.9-5.09c3.6-0.68,7.03-0.79,10.29-0.33
			c3.26,0.46,6.19,1.44,8.8,2.95c2.61,1.5,4.77,3.5,6.48,5.98c1.71,2.49,2.89,5.41,3.52,8.75c0.88,4.67,0.53,8.78-1.05,12.32
			c-1.59,3.54-4.14,6.72-7.66,9.54l20.04,23.48l-16.76,3.17L1130.82,2559.67z M1119.86,2547.92l11.17-2.12
			c3.28-0.62,5.61-1.91,6.97-3.87c1.36-1.96,1.81-4.17,1.34-6.63c-0.47-2.46-1.69-4.35-3.67-5.68c-1.98-1.32-4.62-1.68-7.9-1.05
			l-11.18,2.12L1119.86,2547.92z"/>
	</g>
	<g>
		<path class="st7" d="M1602.51,2424.75l47.54-9l2.69,14.21l-31.92,6.04l2.35,12.41l29.45-5.58l2.67,14.11l-29.45,5.58l2.46,12.97
			l32.77-6.2l2.69,14.21l-48.39,9.16L1602.51,2424.75z"/>
		<path class="st7" d="M1693.05,2453.22l-8.43,1.6l4.52,23.87l-15.63,2.96l-12.86-67.9l26.9-5.09c3.6-0.68,7.03-0.79,10.29-0.33
			c3.26,0.46,6.19,1.44,8.8,2.95c2.61,1.5,4.77,3.5,6.48,5.98c1.71,2.49,2.89,5.41,3.52,8.75c0.89,4.67,0.53,8.78-1.05,12.32
			c-1.59,3.54-4.14,6.72-7.66,9.54l20.04,23.48l-16.76,3.17L1693.05,2453.22z M1682.09,2441.46l11.18-2.12
			c3.28-0.62,5.61-1.91,6.97-3.87c1.36-1.96,1.81-4.17,1.34-6.63c-0.47-2.46-1.69-4.35-3.68-5.68c-1.98-1.32-4.62-1.68-7.9-1.05
			l-11.18,2.12L1682.09,2441.46z"/>
		<path class="st7" d="M1754.71,2441.55l-8.43,1.6l4.52,23.87l-15.63,2.96l-12.86-67.9l26.9-5.09c3.6-0.68,7.03-0.79,10.29-0.33
			c3.26,0.46,6.19,1.44,8.8,2.95c2.61,1.5,4.77,3.5,6.48,5.98c1.71,2.49,2.89,5.41,3.52,8.75c0.89,4.67,0.53,8.78-1.05,12.32
			c-1.59,3.54-4.14,6.72-7.66,9.54l20.04,23.48l-16.76,3.17L1754.71,2441.55z M1743.75,2429.79l11.18-2.12
			c3.28-0.62,5.61-1.91,6.97-3.87c1.36-1.96,1.81-4.17,1.34-6.63c-0.47-2.46-1.69-4.35-3.68-5.68c-1.98-1.32-4.62-1.68-7.9-1.05
			l-11.17,2.12L1743.75,2429.79z"/>
		<path class="st7" d="M1849.81,2397.74c2.54,4.1,4.33,8.89,5.37,14.38c1.04,5.49,1.12,10.6,0.25,15.31
			c-0.87,4.71-2.52,8.87-4.95,12.46c-2.43,3.6-5.52,6.6-9.28,9.02c-3.76,2.41-8.04,4.07-12.84,4.98c-4.8,0.91-9.37,0.92-13.72,0.05
			c-4.35-0.88-8.33-2.54-11.93-5c-3.6-2.46-6.66-5.72-9.16-9.79c-2.5-4.07-4.28-8.85-5.32-14.35c-1.04-5.49-1.14-10.61-0.31-15.34
			c0.84-4.74,2.48-8.91,4.94-12.51c2.46-3.6,5.57-6.61,9.33-9.03c3.76-2.41,8.01-4.07,12.74-4.96c4.8-0.91,9.39-0.93,13.77-0.06
			c4.38,0.87,8.36,2.54,11.93,5C1844.21,2390.36,1847.27,2393.65,1849.81,2397.74z M1839.81,2424.45c0.41-2.82,0.3-5.94-0.35-9.35
			s-1.68-6.37-3.1-8.88c-1.42-2.51-3.11-4.51-5.06-6.01c-1.95-1.49-4.09-2.51-6.42-3.05c-2.33-0.54-4.75-0.57-7.28-0.09
			c-2.53,0.48-4.76,1.39-6.69,2.74c-1.94,1.35-3.54,3.07-4.81,5.18c-1.27,2.1-2.11,4.57-2.52,7.39c-0.41,2.82-0.29,5.97,0.37,9.45
			c0.65,3.41,1.68,6.35,3.09,8.83c1.42,2.48,3.1,4.46,5.05,5.96c1.95,1.49,4.07,2.51,6.37,3.06c2.29,0.55,4.7,0.58,7.23,0.1
			c2.52-0.48,4.77-1.39,6.74-2.75c1.97-1.35,3.59-3.08,4.86-5.19C1838.55,2429.74,1839.39,2427.28,1839.81,2424.45z"/>
		<path class="st7" d="M1890.99,2415.75l-8.43,1.6l4.52,23.87l-15.63,2.96l-12.86-67.9l26.9-5.09c3.6-0.68,7.03-0.79,10.29-0.33
			c3.26,0.46,6.19,1.44,8.8,2.94c2.61,1.5,4.77,3.5,6.48,5.98c1.71,2.49,2.89,5.41,3.52,8.75c0.88,4.67,0.53,8.78-1.05,12.31
			c-1.59,3.54-4.14,6.72-7.66,9.54l20.04,23.48l-16.76,3.17L1890.99,2415.75z M1880.03,2403.99l11.17-2.12
			c3.28-0.62,5.61-1.91,6.97-3.87c1.36-1.96,1.81-4.17,1.34-6.63c-0.47-2.46-1.69-4.35-3.67-5.68c-1.98-1.32-4.62-1.68-7.9-1.05
			l-11.18,2.12L1880.03,2403.99z"/>
	</g>
	<g>
		<path class="st7" d="M2298.91,2292.89l47.54-9l2.69,14.21l-31.92,6.04l2.35,12.41l29.45-5.58l2.67,14.11l-29.45,5.58l2.46,12.97
			l32.77-6.2l2.69,14.21l-48.39,9.16L2298.91,2292.89z"/>
		<path class="st7" d="M2389.46,2321.37l-8.43,1.6l4.52,23.87l-15.63,2.96l-12.86-67.9l26.9-5.09c3.6-0.68,7.03-0.79,10.29-0.33
			c3.26,0.46,6.19,1.44,8.8,2.94c2.61,1.5,4.77,3.5,6.48,5.98c1.71,2.49,2.89,5.41,3.52,8.75c0.88,4.67,0.53,8.78-1.05,12.32
			c-1.59,3.54-4.14,6.72-7.66,9.54l20.04,23.48l-16.76,3.17L2389.46,2321.37z M2378.5,2309.61l11.18-2.12
			c3.28-0.62,5.61-1.91,6.97-3.87c1.36-1.96,1.81-4.17,1.34-6.63c-0.47-2.46-1.69-4.35-3.68-5.68c-1.98-1.32-4.62-1.68-7.9-1.05
			l-11.18,2.12L2378.5,2309.61z"/>
		<path class="st7" d="M2451.11,2309.69l-8.43,1.6l4.52,23.87l-15.63,2.96l-12.86-67.9l26.9-5.09c3.6-0.68,7.03-0.79,10.29-0.33
			c3.26,0.46,6.19,1.44,8.8,2.95c2.61,1.5,4.77,3.5,6.48,5.98c1.71,2.49,2.89,5.41,3.52,8.75c0.89,4.67,0.53,8.78-1.05,12.32
			c-1.59,3.54-4.14,6.72-7.66,9.54l20.04,23.48l-16.76,3.17L2451.11,2309.69z M2440.15,2297.93l11.18-2.12
			c3.28-0.62,5.61-1.91,6.97-3.87c1.36-1.96,1.81-4.17,1.34-6.63c-0.47-2.46-1.69-4.35-3.68-5.68c-1.98-1.32-4.62-1.68-7.9-1.05
			l-11.18,2.12L2440.15,2297.93z"/>
		<path class="st7" d="M2546.21,2265.89c2.54,4.1,4.33,8.89,5.37,14.38c1.04,5.49,1.12,10.6,0.25,15.31
			c-0.87,4.71-2.52,8.87-4.95,12.46c-2.43,3.6-5.52,6.6-9.28,9.02c-3.76,2.41-8.04,4.07-12.84,4.98c-4.8,0.91-9.37,0.92-13.72,0.05
			c-4.35-0.88-8.33-2.54-11.93-5c-3.6-2.46-6.66-5.72-9.16-9.79c-2.5-4.07-4.28-8.85-5.32-14.35c-1.04-5.49-1.14-10.61-0.31-15.34
			c0.84-4.74,2.48-8.91,4.94-12.51c2.46-3.6,5.57-6.61,9.33-9.03c3.76-2.41,8.01-4.07,12.74-4.96c4.8-0.91,9.39-0.93,13.77-0.06
			c4.38,0.87,8.36,2.54,11.93,5C2540.61,2258.51,2543.67,2261.79,2546.21,2265.89z M2536.21,2292.6c0.41-2.82,0.3-5.94-0.35-9.35
			s-1.68-6.37-3.1-8.88c-1.42-2.51-3.11-4.51-5.06-6.01c-1.95-1.49-4.09-2.51-6.42-3.05c-2.33-0.54-4.75-0.57-7.28-0.09
			c-2.53,0.48-4.76,1.39-6.69,2.74c-1.94,1.35-3.54,3.07-4.81,5.18c-1.27,2.1-2.11,4.57-2.52,7.39c-0.41,2.82-0.29,5.97,0.37,9.45
			c0.65,3.41,1.68,6.35,3.09,8.83c1.42,2.48,3.1,4.46,5.05,5.96c1.95,1.49,4.07,2.51,6.37,3.06c2.29,0.55,4.7,0.58,7.23,0.1
			c2.52-0.48,4.77-1.39,6.74-2.75c1.97-1.35,3.59-3.08,4.86-5.19C2534.96,2297.89,2535.8,2295.42,2536.21,2292.6z"/>
		<path class="st7" d="M2587.39,2283.89l-8.43,1.6l4.52,23.87l-15.63,2.96l-12.86-67.9l26.9-5.09c3.6-0.68,7.03-0.79,10.29-0.33
			c3.26,0.46,6.19,1.44,8.8,2.94c2.61,1.5,4.77,3.5,6.48,5.98c1.71,2.49,2.89,5.41,3.52,8.75c0.88,4.67,0.53,8.78-1.05,12.32
			c-1.59,3.54-4.14,6.72-7.66,9.54l20.04,23.48l-16.76,3.17L2587.39,2283.89z M2576.43,2272.13l11.18-2.12
			c3.28-0.62,5.61-1.91,6.97-3.87c1.36-1.96,1.81-4.17,1.34-6.63c-0.47-2.46-1.69-4.35-3.68-5.68c-1.98-1.32-4.62-1.68-7.9-1.05
			l-11.17,2.12L2576.43,2272.13z"/>
	</g>
	<g>
		<path class="st7" d="M3069.67,2146.96l47.54-9l2.69,14.21l-31.92,6.04l2.35,12.41l29.45-5.58l2.67,14.11l-29.45,5.58l2.46,12.97
			l32.77-6.2l2.69,14.21l-48.39,9.16L3069.67,2146.96z"/>
		<path class="st7" d="M3160.22,2175.43l-8.43,1.6l4.52,23.87l-15.63,2.96l-12.86-67.9l26.9-5.09c3.6-0.68,7.03-0.79,10.29-0.33
			c3.26,0.46,6.19,1.44,8.8,2.95c2.61,1.5,4.77,3.5,6.48,5.98c1.71,2.49,2.89,5.41,3.52,8.75c0.89,4.67,0.53,8.78-1.05,12.32
			c-1.59,3.54-4.14,6.72-7.66,9.54l20.04,23.48l-16.76,3.17L3160.22,2175.43z M3149.26,2163.67l11.18-2.12
			c3.28-0.62,5.61-1.91,6.97-3.87c1.36-1.96,1.81-4.17,1.34-6.63c-0.47-2.46-1.69-4.35-3.68-5.68c-1.98-1.32-4.62-1.68-7.9-1.05
			l-11.17,2.12L3149.26,2163.67z"/>
		<path class="st7" d="M3221.87,2163.76l-8.43,1.6l4.52,23.87l-15.63,2.96l-12.86-67.9l26.9-5.09c3.6-0.68,7.03-0.79,10.29-0.33
			c3.26,0.46,6.19,1.44,8.8,2.94c2.61,1.5,4.77,3.5,6.48,5.98c1.71,2.49,2.89,5.41,3.52,8.75c0.88,4.67,0.53,8.78-1.05,12.32
			c-1.59,3.54-4.14,6.72-7.66,9.54l20.04,23.48l-16.76,3.17L3221.87,2163.76z M3210.91,2152l11.18-2.12
			c3.28-0.62,5.61-1.91,6.97-3.87c1.36-1.96,1.81-4.17,1.34-6.63c-0.47-2.46-1.69-4.35-3.68-5.68c-1.98-1.32-4.62-1.68-7.9-1.05
			l-11.18,2.12L3210.91,2152z"/>
		<path class="st7" d="M3316.97,2119.95c2.54,4.1,4.33,8.89,5.37,14.38c1.04,5.49,1.12,10.6,0.25,15.31
			c-0.87,4.71-2.52,8.87-4.95,12.46c-2.43,3.6-5.52,6.6-9.28,9.02c-3.76,2.41-8.04,4.07-12.84,4.98c-4.8,0.91-9.37,0.92-13.72,0.05
			c-4.35-0.88-8.33-2.54-11.93-5c-3.6-2.46-6.66-5.72-9.16-9.79c-2.5-4.07-4.28-8.85-5.32-14.35c-1.04-5.49-1.14-10.61-0.31-15.34
			c0.84-4.74,2.48-8.91,4.94-12.51c2.46-3.6,5.57-6.61,9.33-9.03c3.76-2.41,8.01-4.07,12.74-4.96c4.8-0.91,9.39-0.93,13.77-0.06
			c4.38,0.87,8.36,2.54,11.93,5C3311.37,2112.57,3314.43,2115.85,3316.97,2119.95z M3306.97,2146.66c0.41-2.82,0.3-5.94-0.35-9.35
			c-0.65-3.41-1.68-6.37-3.1-8.88c-1.42-2.51-3.11-4.51-5.06-6.01c-1.95-1.49-4.09-2.51-6.42-3.05c-2.33-0.54-4.75-0.57-7.28-0.09
			c-2.53,0.48-4.76,1.39-6.69,2.74c-1.94,1.35-3.54,3.07-4.81,5.18c-1.27,2.1-2.11,4.57-2.52,7.39c-0.41,2.82-0.29,5.97,0.37,9.45
			c0.65,3.41,1.68,6.35,3.09,8.83c1.42,2.48,3.1,4.46,5.05,5.96c1.95,1.49,4.07,2.51,6.37,3.06c2.29,0.55,4.7,0.58,7.23,0.1
			c2.52-0.48,4.77-1.39,6.74-2.75c1.97-1.35,3.59-3.08,4.86-5.19C3305.72,2151.95,3306.56,2149.49,3306.97,2146.66z"/>
		<path class="st7" d="M3358.15,2137.95l-8.43,1.6l4.52,23.87l-15.63,2.96l-12.86-67.9l26.9-5.09c3.6-0.68,7.03-0.79,10.29-0.33
			c3.26,0.46,6.19,1.44,8.8,2.95c2.61,1.5,4.77,3.5,6.48,5.98c1.71,2.49,2.89,5.41,3.52,8.75c0.88,4.67,0.53,8.78-1.05,12.32
			c-1.59,3.54-4.14,6.72-7.66,9.54l20.04,23.48l-16.76,3.17L3358.15,2137.95z M3347.19,2126.2l11.18-2.12
			c3.28-0.62,5.61-1.91,6.97-3.87c1.36-1.96,1.81-4.17,1.34-6.63c-0.47-2.46-1.69-4.35-3.68-5.68c-1.98-1.32-4.62-1.68-7.9-1.05
			l-11.17,2.12L3347.19,2126.2z"/>
	</g>
	<polygon class="st4" points="3630.76,2538.29 3527.51,2534.68 2099.18,2484.75 647.23,2433.98 647.22,2433.98 572.16,2431.36 
		568.12,2366.66 558.79,2217.42 633.86,2220.04 2096.3,2271.17 3514.15,2320.75 3617.39,2324.35 3621.47,2389.63 	"/>
	<g>
		<path class="st7" d="M962.61,2306.04c6.37,3.53,11.22,8.44,14.56,14.71c3.34,6.27,4.88,13.48,4.62,21.62
			c-0.25,8.14-2.24,15.2-5.95,21.17c-3.72,5.98-8.86,10.53-15.44,13.66c-6.58,3.13-14.13,4.57-22.65,4.3l-28.37-0.88l2.52-81.16
			l28.37,0.88C948.79,2300.61,956.24,2302.51,962.61,2306.04z M957.58,2361.28c4.8-4.51,7.32-10.98,7.59-19.43
			c0.26-8.45-1.86-15.13-6.36-20.04c-4.5-4.91-11.02-7.5-19.54-7.76l-11.51-0.36l-1.66,53.6l11.51,0.36
			C946.12,2367.91,952.78,2365.79,957.58,2361.28z"/>
		<path class="st7" d="M1053.01,2357.73l-47.09-1.46c0.24,4.66,1.76,8.36,4.54,11.08c2.79,2.72,6.27,4.15,10.46,4.28
			c6.05,0.19,10.43-2.28,13.15-7.39l17.56,0.54c-2.05,6.14-5.78,11.13-11.17,14.96c-5.4,3.83-11.93,5.62-19.6,5.39
			c-6.2-0.19-11.72-1.74-16.56-4.65c-4.84-2.9-8.55-6.92-11.15-12.04c-2.6-5.12-3.79-10.98-3.59-17.57
			c0.21-6.67,1.74-12.47,4.61-17.43c2.87-4.95,6.79-8.71,11.76-11.27s10.63-3.74,16.99-3.55c6.12,0.19,11.57,1.68,16.33,4.46
			c4.76,2.79,8.41,6.64,10.93,11.57c2.52,4.93,3.69,10.53,3.49,16.81C1053.6,2353.79,1053.38,2355.88,1053.01,2357.73z
			 M1036.95,2346.29c0.05-4.19-1.36-7.59-4.22-10.2c-2.87-2.61-6.43-3.98-10.7-4.11c-4.03-0.12-7.46,0.99-10.29,3.35
			c-2.83,2.36-4.62,5.7-5.37,10.02L1036.95,2346.29z M1035.85,2303.08l-27.12,11.38l0.36-11.63l27.17-13.01L1035.85,2303.08z"/>
		<path class="st7" d="M1075.01,2383.96c-4.13-2.03-7.36-4.71-9.7-8.04c-2.34-3.33-3.57-6.98-3.68-10.94l16.39,0.51
			c0.23,2.49,1.39,4.58,3.47,6.27c2.08,1.7,4.71,2.59,7.89,2.69c3.1,0.1,5.54-0.45,7.32-1.63c1.78-1.18,2.7-2.75,2.76-4.69
			c0.06-2.09-0.95-3.7-3.05-4.81c-2.1-1.11-5.45-2.36-10.07-3.75c-4.77-1.31-8.67-2.63-11.69-3.97c-3.02-1.33-5.6-3.32-7.73-5.94
			c-2.13-2.63-3.13-6.11-2.99-10.45c0.11-3.56,1.24-6.79,3.38-9.67c2.14-2.88,5.16-5.12,9.05-6.7c3.89-1.59,8.43-2.3,13.63-2.14
			c7.67,0.24,13.74,2.35,18.19,6.33c4.45,3.98,6.81,9.23,7.08,15.76l-15.58-0.48c-0.15-2.56-1.16-4.63-3.01-6.2
			c-1.85-1.57-4.37-2.41-7.55-2.5c-2.95-0.09-5.23,0.38-6.85,1.42c-1.62,1.04-2.46,2.52-2.52,4.46c-0.07,2.17,0.97,3.85,3.1,5.04
			c2.13,1.19,5.47,2.44,10.01,3.74c4.61,1.31,8.41,2.63,11.4,3.96c2.98,1.33,5.54,3.33,7.67,6c2.13,2.67,3.16,6.13,3.11,10.4
			c-0.12,3.72-1.25,7.02-3.39,9.9c-2.15,2.88-5.16,5.1-9.05,6.64s-8.39,2.24-13.51,2.08
			C1083.83,2387.08,1079.13,2385.99,1075.01,2383.96z"/>
		<path class="st7" d="M1139.81,2384.69c-4.88-2.91-8.65-6.92-11.32-12.05c-2.67-5.13-3.91-10.98-3.7-17.57
			c0.2-6.59,1.84-12.36,4.9-17.3c3.06-4.95,7.16-8.72,12.28-11.32c5.12-2.59,10.79-3.8,16.99-3.6c6.2,0.19,11.78,1.74,16.73,4.65
			c4.95,2.91,8.8,6.93,11.56,12.06c2.75,5.13,4.02,10.99,3.82,17.58c-0.2,6.59-1.88,12.36-5.02,17.3
			c-3.14,4.95-7.29,8.72-12.46,11.31c-5.16,2.6-10.88,3.79-17.16,3.6C1150.22,2389.14,1144.68,2387.6,1139.81,2384.69z
			 M1165.25,2373.26c2.64-1.35,4.78-3.44,6.42-6.26c1.64-2.82,2.52-6.28,2.65-10.39c0.19-6.12-1.27-10.88-4.39-14.28
			c-3.11-3.39-7-5.16-11.65-5.31s-8.6,1.38-11.84,4.58c-3.24,3.2-4.96,7.86-5.15,13.98c-0.19,6.12,1.19,10.88,4.15,14.27
			c2.96,3.39,6.76,5.16,11.42,5.3C1159.81,2375.24,1162.6,2374.61,1165.25,2373.26z"/>
		<path class="st7" d="M1220.98,2304.17l-2.67,86.04l-16.28-0.5l2.67-86.04L1220.98,2304.17z"/>
		<path class="st7" d="M1294.62,2365.23l-47.09-1.46c0.24,4.66,1.76,8.36,4.54,11.08c2.79,2.72,6.27,4.15,10.46,4.28
			c6.05,0.19,10.43-2.28,13.15-7.39l17.56,0.54c-2.05,6.14-5.78,11.13-11.17,14.96c-5.4,3.83-11.93,5.62-19.6,5.38
			c-6.2-0.19-11.72-1.74-16.56-4.65c-4.84-2.9-8.55-6.92-11.15-12.04c-2.6-5.12-3.79-10.98-3.59-17.57
			c0.21-6.67,1.74-12.47,4.61-17.43c2.87-4.95,6.79-8.71,11.76-11.27c4.97-2.56,10.63-3.74,16.99-3.55
			c6.12,0.19,11.57,1.68,16.33,4.46c4.76,2.79,8.41,6.64,10.93,11.57c2.52,4.93,3.69,10.53,3.49,16.81
			C1295.21,2361.29,1294.99,2363.38,1294.62,2365.23z M1278.57,2353.79c0.05-4.19-1.36-7.59-4.22-10.2
			c-2.87-2.61-6.43-3.98-10.7-4.11c-4.03-0.13-7.46,0.99-10.29,3.35c-2.83,2.36-4.62,5.7-5.37,10.02L1278.57,2353.79z
			 M1277.47,2310.58l-27.12,11.38l0.36-11.63l27.17-13.01L1277.47,2310.58z"/>
		<path class="st7" d="M1316.62,2391.46c-4.13-2.03-7.36-4.71-9.7-8.04c-2.34-3.33-3.57-6.98-3.68-10.94l16.39,0.51
			c0.23,2.49,1.39,4.58,3.47,6.27c2.08,1.7,4.71,2.59,7.89,2.69c3.1,0.1,5.54-0.45,7.32-1.63c1.78-1.18,2.7-2.75,2.76-4.69
			c0.07-2.09-0.95-3.7-3.05-4.81c-2.1-1.11-5.45-2.36-10.07-3.75c-4.77-1.31-8.67-2.63-11.69-3.97c-3.02-1.33-5.6-3.32-7.73-5.94
			c-2.13-2.63-3.13-6.11-2.99-10.45c0.11-3.56,1.24-6.79,3.38-9.67c2.14-2.88,5.16-5.11,9.05-6.7c3.89-1.59,8.43-2.3,13.63-2.14
			c7.67,0.24,13.74,2.35,18.19,6.33c4.45,3.98,6.81,9.23,7.08,15.76l-15.58-0.48c-0.15-2.56-1.16-4.63-3.01-6.2
			c-1.85-1.57-4.37-2.41-7.55-2.5c-2.95-0.09-5.23,0.38-6.85,1.42c-1.62,1.04-2.46,2.52-2.52,4.46c-0.07,2.17,0.97,3.85,3.1,5.04
			c2.13,1.19,5.47,2.44,10.01,3.74c4.61,1.31,8.41,2.63,11.4,3.96c2.98,1.33,5.54,3.33,7.67,6c2.13,2.67,3.16,6.13,3.11,10.4
			c-0.12,3.72-1.25,7.02-3.39,9.9c-2.15,2.88-5.16,5.1-9.05,6.64c-3.89,1.55-8.39,2.24-13.51,2.08
			C1325.45,2394.58,1320.75,2393.49,1316.62,2391.46z"/>
		<path class="st7" d="M1374.94,2393.15c-1.84-1.88-2.72-4.17-2.64-6.89c0.08-2.71,1.1-4.95,3.06-6.71c1.96-1.76,4.41-2.6,7.35-2.51
			c2.87,0.09,5.2,1.08,7.01,2.95c1.8,1.88,2.66,4.18,2.58,6.89c-0.08,2.71-1.08,4.95-3,6.71c-1.92,1.77-4.31,2.6-7.18,2.51
			C1379.17,2396.02,1376.78,2395.03,1374.94,2393.15z M1393.08,2313l-3.6,56.1l-13.72-0.43l-0.23-56.22L1393.08,2313z"/>
		<path class="st7" d="M1441.68,2334.94c3.8-6.21,8.87-10.97,15.23-14.31c6.35-3.33,13.4-4.88,21.15-4.64
			c9.07,0.28,16.94,2.85,23.62,7.72c6.68,4.86,11.24,11.44,13.7,19.74l-18.72-0.58c-1.74-3.93-4.27-6.92-7.58-8.96
			c-3.31-2.04-7.18-3.13-11.6-3.27c-4.73-0.15-8.97,0.83-12.72,2.92c-3.75,2.09-6.72,5.13-8.9,9.09c-2.18,3.97-3.35,8.66-3.52,14.09
			c-0.17,5.35,0.71,10.09,2.64,14.22c1.93,4.13,4.7,7.36,8.31,9.68c3.61,2.32,7.78,3.56,12.51,3.71c4.42,0.14,8.34-0.73,11.78-2.6
			c3.43-1.87,6.14-4.72,8.12-8.54l18.72,0.58c-2.97,8.21-7.92,14.52-14.84,18.92c-6.93,4.4-14.96,6.46-24.11,6.18
			c-7.75-0.24-14.69-2.22-20.82-5.94c-6.13-3.72-10.9-8.78-14.31-15.17c-3.41-6.39-4.99-13.58-4.74-21.56
			C1435.86,2348.24,1437.88,2341.14,1441.68,2334.94z"/>
		<path class="st7" d="M1587.86,2374.33l-47.09-1.46c0.24,4.66,1.76,8.36,4.54,11.08c2.79,2.72,6.27,4.15,10.46,4.28
			c6.05,0.19,10.43-2.28,13.15-7.39l17.56,0.54c-2.05,6.14-5.78,11.13-11.17,14.96c-5.4,3.83-11.93,5.62-19.6,5.39
			c-6.2-0.19-11.72-1.74-16.56-4.65c-4.84-2.9-8.55-6.92-11.15-12.04c-2.6-5.12-3.79-10.98-3.59-17.57
			c0.21-6.67,1.74-12.47,4.61-17.43c2.87-4.95,6.79-8.71,11.76-11.27c4.97-2.56,10.63-3.74,16.99-3.55
			c6.12,0.19,11.57,1.68,16.33,4.46c4.76,2.79,8.41,6.64,10.93,11.57c2.52,4.93,3.69,10.53,3.49,16.81
			C1588.45,2370.39,1588.23,2372.48,1587.86,2374.33z M1571.81,2362.89c0.05-4.19-1.36-7.59-4.22-10.2
			c-2.87-2.61-6.43-3.98-10.7-4.12c-4.03-0.12-7.46,0.99-10.29,3.35c-2.83,2.36-4.62,5.7-5.37,10.02L1571.81,2362.89z"/>
		<path class="st7" d="M1619.88,2351.58l-0.97,31.16c-0.07,2.17,0.41,3.76,1.42,4.76c1.02,1,2.76,1.54,5.25,1.62l7.56,0.23
			l-0.43,13.72l-10.23-0.32c-13.72-0.43-20.37-7.3-19.96-20.64l0.96-31.04l-7.67-0.24l0.42-13.37l7.67,0.24l0.49-15.93l16.39,0.51
			l-0.49,15.93l14.42,0.45l-0.42,13.37L1619.88,2351.58z"/>
		<path class="st7" d="M1664.99,2352.98l-0.97,31.16c-0.07,2.17,0.41,3.76,1.42,4.76c1.02,1,2.76,1.54,5.25,1.62l7.56,0.24
			l-0.43,13.72l-10.23-0.32c-13.72-0.43-20.37-7.3-19.96-20.64l0.96-31.04l-7.67-0.24l0.42-13.37l7.67,0.24l0.49-15.93l16.39,0.51
			l-0.49,15.93l14.42,0.45l-0.42,13.37L1664.99,2352.98z"/>
		<path class="st7" d="M1749.83,2379.36l-47.09-1.46c0.24,4.66,1.76,8.36,4.54,11.08c2.79,2.72,6.27,4.15,10.46,4.28
			c6.05,0.19,10.43-2.28,13.15-7.39l17.56,0.55c-2.05,6.14-5.78,11.13-11.17,14.96c-5.4,3.83-11.93,5.62-19.6,5.39
			c-6.2-0.19-11.72-1.74-16.56-4.65c-4.84-2.9-8.55-6.92-11.15-12.04c-2.6-5.12-3.79-10.98-3.59-17.57
			c0.21-6.67,1.74-12.47,4.61-17.43c2.87-4.95,6.79-8.71,11.76-11.27c4.97-2.56,10.63-3.74,16.99-3.55
			c6.12,0.19,11.57,1.68,16.33,4.46c4.76,2.79,8.41,6.64,10.93,11.57c2.52,4.93,3.69,10.53,3.49,16.81
			C1750.42,2375.42,1750.2,2377.51,1749.83,2379.36z M1733.77,2367.92c0.05-4.19-1.36-7.59-4.22-10.2
			c-2.87-2.61-6.43-3.98-10.7-4.11c-4.03-0.13-7.46,0.99-10.29,3.35c-2.83,2.36-4.62,5.7-5.37,10.02L1733.77,2367.92z"/>
		<path class="st7" d="M1815.86,2346.2c3.74-1.86,7.98-2.72,12.71-2.57c5.5,0.17,10.44,1.68,14.81,4.53
			c4.37,2.85,7.78,6.82,10.22,11.9c2.44,5.08,3.56,10.92,3.36,17.5c-0.2,6.59-1.68,12.38-4.44,17.38c-2.76,5-6.4,8.82-10.95,11.47
			c-4.55,2.65-9.57,3.89-15.07,3.72c-4.73-0.15-8.86-1.25-12.41-3.3c-3.54-2.05-6.4-4.58-8.55-7.6l-1.24,39.88l-16.28-0.5
			l2.95-95.11l16.28,0.5l-0.29,9.3C1809.15,2350.44,1812.11,2348.06,1815.86,2346.2z M1838.26,2366.91
			c-1.5-2.88-3.53-5.09-6.08-6.65c-2.55-1.55-5.34-2.38-8.36-2.47c-2.95-0.09-5.74,0.58-8.38,2.01c-2.65,1.43-4.81,3.56-6.48,6.37
			c-1.68,2.82-2.58,6.17-2.7,10.04c-0.12,3.88,0.57,7.27,2.07,10.19c1.5,2.92,3.52,5.17,6.08,6.76c2.55,1.59,5.3,2.43,8.24,2.53
			c3.02,0.09,5.86-0.59,8.5-2.06c2.64-1.47,4.81-3.61,6.48-6.43c1.68-2.82,2.58-6.2,2.7-10.16
			C1840.45,2373.17,1839.76,2369.8,1838.26,2366.91z"/>
		<path class="st7" d="M1869.06,2360.6c2.75-4.96,6.4-8.72,10.94-11.3c4.54-2.58,9.56-3.78,15.07-3.61
			c4.81,0.15,8.98,1.25,12.53,3.3c3.54,2.05,6.36,4.58,8.44,7.59l0.29-9.19l16.39,0.51l-2,64.42l-16.39-0.51l0.29-9.42
			c-2.19,2.96-5.15,5.37-8.9,7.23c-3.74,1.86-8.02,2.72-12.82,2.57c-5.43-0.17-10.33-1.72-14.7-4.65
			c-4.37-2.93-7.78-6.97-10.21-12.13c-2.44-5.16-3.56-11.03-3.35-17.62C1864.83,2371.29,1866.31,2365.56,1869.06,2360.6z
			 M1913.31,2369.36c-1.46-2.88-3.49-5.11-6.08-6.71c-2.59-1.59-5.39-2.44-8.42-2.53c-3.02-0.09-5.84,0.56-8.44,1.95
			c-2.6,1.39-4.75,3.48-6.42,6.26c-1.68,2.78-2.58,6.11-2.7,9.98c-0.12,3.88,0.57,7.29,2.07,10.25c1.5,2.96,3.52,5.25,6.07,6.88
			c2.55,1.63,5.29,2.49,8.24,2.58c3.02,0.09,5.88-0.57,8.56-2c2.68-1.43,4.84-3.53,6.48-6.32c1.64-2.78,2.52-6.15,2.64-10.1
			C1915.44,2375.65,1914.77,2372.24,1913.31,2369.36z"/>
		<path class="st7" d="M1986.49,2351.38c3.58,2.01,6.38,4.56,8.38,7.65l0.29-9.19l16.39,0.51l-2.01,64.88
			c-0.19,5.97-1.55,11.26-4.1,15.88c-2.55,4.62-6.27,8.22-11.16,10.83c-4.89,2.6-10.75,3.8-17.57,3.59
			c-9.15-0.28-16.58-2.65-22.3-7.09c-5.72-4.45-8.85-10.36-9.4-17.75l16.16,0.5c0.76,2.97,2.53,5.37,5.3,7.21
			c2.77,1.83,6.18,2.81,10.21,2.94c4.73,0.15,8.61-1.15,11.64-3.89c3.03-2.74,4.64-6.98,4.82-12.71l0.31-10
			c-2.19,2.96-5.15,5.39-8.9,7.29c-3.75,1.9-7.98,2.78-12.71,2.63c-5.43-0.17-10.35-1.72-14.75-4.65
			c-4.41-2.93-7.83-6.97-10.27-12.13c-2.44-5.16-3.56-11.03-3.35-17.62c0.2-6.51,1.68-12.24,4.43-17.2
			c2.75-4.96,6.4-8.72,10.94-11.3c4.54-2.57,9.56-3.78,15.07-3.61C1978.71,2348.29,1982.91,2349.37,1986.49,2351.38z
			 M1992.14,2371.81c-1.46-2.88-3.49-5.11-6.08-6.71c-2.59-1.59-5.39-2.44-8.42-2.53s-5.84,0.56-8.44,1.95
			c-2.6,1.39-4.75,3.48-6.42,6.26c-1.68,2.78-2.58,6.11-2.7,9.98c-0.12,3.88,0.57,7.29,2.07,10.25c1.5,2.96,3.52,5.25,6.07,6.88
			c2.55,1.63,5.29,2.49,8.24,2.58c3.02,0.09,5.88-0.57,8.56-2c2.68-1.43,4.84-3.53,6.48-6.32c1.64-2.78,2.52-6.15,2.64-10.1
			C1994.28,2378.1,1993.61,2374.69,1992.14,2371.81z"/>
		<path class="st7" d="M2085.74,2389.79l-47.09-1.46c0.24,4.66,1.76,8.36,4.54,11.08c2.79,2.72,6.27,4.15,10.46,4.28
			c6.05,0.19,10.43-2.28,13.15-7.39l17.56,0.54c-2.05,6.14-5.78,11.13-11.17,14.96c-5.4,3.83-11.93,5.62-19.6,5.38
			c-6.2-0.19-11.72-1.74-16.56-4.65c-4.84-2.9-8.55-6.92-11.15-12.04c-2.6-5.12-3.79-10.98-3.59-17.57
			c0.21-6.67,1.74-12.47,4.61-17.43c2.87-4.95,6.79-8.71,11.76-11.27s10.63-3.74,16.99-3.55c6.12,0.19,11.57,1.68,16.33,4.46
			c4.76,2.79,8.41,6.64,10.93,11.57c2.52,4.93,3.69,10.53,3.49,16.81C2086.33,2385.85,2086.11,2387.93,2085.74,2389.79z
			 M2069.69,2378.35c0.05-4.19-1.36-7.59-4.22-10.2c-2.87-2.61-6.43-3.98-10.7-4.11c-4.03-0.12-7.46,0.99-10.29,3.35
			c-2.83,2.36-4.62,5.7-5.37,10.02L2069.69,2378.35z"/>
		<path class="st7" d="M2180.99,2361.96c4.58,4.99,6.73,11.83,6.46,20.51l-1.17,37.79l-16.28-0.5l1.1-35.58
			c0.16-5.12-1-9.09-3.47-11.92s-5.92-4.32-10.34-4.45c-4.5-0.14-8.09,1.13-10.77,3.8c-2.68,2.67-4.1,6.56-4.26,11.68l-1.1,35.58
			l-16.28-0.5l2-64.42l16.28,0.5l-0.25,8.02c2.26-2.72,5.1-4.83,8.52-6.31c3.42-1.48,7.15-2.17,11.18-2.04
			C2170.29,2354.35,2176.41,2356.97,2180.99,2361.96z"/>
		<path class="st7" d="M2214.86,2328.27l-2.16,24.61l-11.05-0.34l-0.75-24.7L2214.86,2328.27z"/>
		<path class="st7" d="M2284.68,2395.96l-47.09-1.46c0.24,4.66,1.76,8.36,4.54,11.08c2.78,2.72,6.27,4.15,10.46,4.28
			c6.05,0.19,10.43-2.28,13.15-7.39l17.56,0.54c-2.05,6.14-5.78,11.13-11.17,14.96c-5.4,3.83-11.93,5.62-19.6,5.39
			c-6.2-0.19-11.72-1.74-16.56-4.65c-4.84-2.9-8.55-6.92-11.15-12.04c-2.6-5.12-3.79-10.98-3.59-17.57
			c0.21-6.67,1.74-12.47,4.61-17.43c2.87-4.95,6.79-8.71,11.76-11.27c4.97-2.56,10.63-3.74,16.99-3.55
			c6.12,0.19,11.57,1.68,16.33,4.46c4.76,2.79,8.41,6.64,10.93,11.57c2.52,4.93,3.69,10.53,3.49,16.81
			C2285.27,2392.02,2285.05,2394.11,2284.68,2395.96z M2268.63,2384.52c0.05-4.19-1.36-7.59-4.22-10.2
			c-2.87-2.61-6.43-3.98-10.7-4.12c-4.03-0.12-7.46,0.99-10.29,3.35c-2.83,2.36-4.62,5.7-5.37,10.02L2268.63,2384.52z"/>
		<path class="st7" d="M2306.68,2422.19c-4.13-2.03-7.36-4.71-9.7-8.04c-2.34-3.33-3.57-6.98-3.68-10.94l16.39,0.51
			c0.23,2.49,1.39,4.58,3.47,6.27c2.08,1.7,4.71,2.59,7.89,2.69c3.1,0.1,5.54-0.45,7.32-1.63c1.78-1.19,2.7-2.75,2.76-4.69
			c0.07-2.09-0.95-3.7-3.05-4.81c-2.1-1.11-5.45-2.36-10.07-3.75c-4.77-1.31-8.67-2.63-11.69-3.97c-3.02-1.33-5.6-3.32-7.73-5.94
			c-2.13-2.63-3.13-6.11-2.99-10.45c0.11-3.56,1.24-6.79,3.38-9.67c2.14-2.88,5.16-5.11,9.05-6.7c3.89-1.59,8.43-2.3,13.63-2.14
			c7.67,0.24,13.74,2.35,18.19,6.33c4.45,3.98,6.81,9.23,7.08,15.76l-15.58-0.48c-0.15-2.56-1.16-4.63-3.01-6.2
			c-1.85-1.57-4.37-2.41-7.55-2.5c-2.95-0.09-5.23,0.38-6.85,1.42c-1.62,1.04-2.46,2.52-2.52,4.46c-0.07,2.17,0.97,3.85,3.1,5.04
			c2.13,1.19,5.47,2.44,10.01,3.74c4.61,1.31,8.41,2.63,11.4,3.96c2.98,1.33,5.54,3.33,7.67,6c2.13,2.67,3.16,6.13,3.11,10.4
			c-0.12,3.72-1.25,7.02-3.39,9.9c-2.15,2.88-5.16,5.1-9.05,6.64c-3.89,1.55-8.39,2.24-13.51,2.08
			C2315.5,2425.32,2310.81,2424.22,2306.68,2422.19z"/>
		<path class="st7" d="M2380.07,2375.18l-0.97,31.16c-0.07,2.17,0.41,3.76,1.42,4.76s2.76,1.54,5.25,1.62l7.56,0.23l-0.43,13.72
			l-10.23-0.32c-13.72-0.43-20.37-7.3-19.96-20.64l0.96-31.04l-7.67-0.24l0.42-13.37l7.67,0.24l0.49-15.93l16.4,0.51l-0.49,15.93
			l14.42,0.45l-0.42,13.37L2380.07,2375.18z"/>
		<path class="st7" d="M2459.19,2366.17c3.74-1.86,7.98-2.72,12.71-2.57c5.5,0.17,10.44,1.68,14.81,4.53
			c4.37,2.85,7.78,6.82,10.22,11.9c2.44,5.08,3.56,10.92,3.36,17.5c-0.2,6.59-1.69,12.38-4.44,17.38c-2.76,5-6.4,8.82-10.95,11.47
			c-4.55,2.65-9.57,3.89-15.07,3.72c-4.73-0.15-8.87-1.25-12.41-3.29c-3.54-2.05-6.4-4.58-8.55-7.6l-1.24,39.88l-16.28-0.5
			l2.95-95.11l16.28,0.5l-0.29,9.3C2452.49,2370.41,2455.45,2368.03,2459.19,2366.17z M2481.6,2386.88
			c-1.5-2.88-3.53-5.09-6.08-6.65c-2.55-1.55-5.34-2.38-8.36-2.47c-2.95-0.09-5.74,0.58-8.38,2.01c-2.65,1.43-4.81,3.56-6.48,6.37
			c-1.68,2.82-2.58,6.17-2.7,10.04c-0.12,3.88,0.57,7.27,2.07,10.19c1.5,2.92,3.52,5.17,6.07,6.76c2.55,1.59,5.3,2.43,8.24,2.53
			c3.02,0.09,5.86-0.59,8.5-2.06c2.64-1.47,4.81-3.61,6.48-6.43c1.68-2.82,2.58-6.2,2.7-10.16
			C2483.79,2393.14,2483.1,2389.76,2481.6,2386.88z"/>
		<path class="st7" d="M2530.1,2344.8l-2.67,86.04l-16.28-0.51l2.67-86.04L2530.1,2344.8z"/>
		<path class="st7" d="M2606.28,2368.82l-2,64.42l-16.4-0.51l0.25-8.14c-2.18,2.73-4.98,4.83-8.4,6.32
			c-3.42,1.48-7.11,2.17-11.06,2.04c-5.04-0.16-9.46-1.36-13.27-3.61c-3.81-2.25-6.75-5.49-8.83-9.7
			c-2.08-4.21-3.03-9.19-2.85-14.93l1.17-37.79l16.28,0.51l-1.1,35.46c-0.16,5.12,1,9.09,3.47,11.92c2.47,2.83,5.92,4.32,10.34,4.45
			c4.5,0.14,8.07-1.13,10.71-3.8c2.64-2.67,4.04-6.57,4.2-11.68l1.1-35.46L2606.28,2368.82z"/>
		<path class="st7" d="M2630.85,2432.25c-4.13-2.03-7.36-4.71-9.7-8.04c-2.34-3.33-3.57-6.98-3.68-10.94l16.39,0.51
			c0.23,2.49,1.39,4.58,3.47,6.27c2.08,1.7,4.71,2.59,7.89,2.69c3.1,0.1,5.54-0.45,7.32-1.63c1.78-1.19,2.7-2.75,2.76-4.69
			c0.06-2.09-0.95-3.7-3.05-4.81c-2.1-1.11-5.46-2.36-10.07-3.75c-4.77-1.31-8.67-2.63-11.69-3.97c-3.02-1.33-5.6-3.32-7.73-5.94
			c-2.13-2.63-3.13-6.11-2.99-10.45c0.11-3.56,1.24-6.79,3.38-9.67c2.14-2.88,5.16-5.11,9.05-6.7c3.89-1.59,8.43-2.3,13.63-2.14
			c7.67,0.24,13.74,2.35,18.19,6.33c4.45,3.98,6.81,9.23,7.08,15.76l-15.58-0.48c-0.15-2.56-1.16-4.63-3.01-6.2
			c-1.85-1.57-4.37-2.41-7.55-2.5c-2.95-0.09-5.23,0.38-6.85,1.42c-1.62,1.04-2.46,2.52-2.52,4.46c-0.07,2.17,0.97,3.85,3.1,5.04
			c2.13,1.19,5.47,2.44,10.01,3.74c4.62,1.31,8.42,2.63,11.4,3.96c2.98,1.34,5.54,3.34,7.67,6c2.13,2.67,3.17,6.13,3.11,10.4
			c-0.12,3.72-1.25,7.02-3.39,9.9c-2.15,2.88-5.16,5.1-9.05,6.64c-3.89,1.55-8.39,2.24-13.51,2.08
			C2639.67,2435.38,2634.98,2434.28,2630.85,2432.25z"/>
		<path class="st7" d="M2712.62,2386.78c2.75-4.96,6.42-8.72,11-11.3c4.58-2.57,9.62-3.77,15.13-3.6c4.19,0.13,8.15,1.17,11.89,3.1
			c3.74,1.94,6.69,4.46,8.84,7.55l0.95-30.58l16.51,0.51l-2.67,86.04l-16.51-0.51l0.3-9.53c-2.12,3.12-5.02,5.59-8.73,7.41
			c-3.7,1.82-7.96,2.66-12.76,2.51c-5.43-0.17-10.34-1.72-14.75-4.65c-4.41-2.93-7.83-6.97-10.27-12.13
			c-2.44-5.16-3.56-11.03-3.35-17.62C2708.39,2397.47,2709.87,2391.74,2712.62,2386.78z M2756.87,2395.55
			c-1.46-2.88-3.49-5.11-6.08-6.71c-2.59-1.59-5.4-2.44-8.42-2.53c-3.02-0.09-5.84,0.56-8.44,1.95c-2.6,1.39-4.75,3.48-6.42,6.26
			c-1.68,2.78-2.58,6.11-2.7,9.98c-0.12,3.88,0.57,7.29,2.07,10.25c1.5,2.96,3.52,5.25,6.07,6.88c2.55,1.63,5.29,2.49,8.24,2.58
			c3.02,0.09,5.88-0.57,8.56-2c2.68-1.43,4.84-3.53,6.48-6.32c1.64-2.78,2.52-6.15,2.64-10.1S2758.33,2398.42,2756.87,2395.55z"/>
		<path class="st7" d="M2808.48,2375.09l-2,64.42l-16.28-0.51l2-64.42L2808.48,2375.09z M2793.63,2364.21
			c-1.84-1.88-2.72-4.18-2.64-6.89c0.08-2.71,1.1-4.95,3.06-6.71c1.96-1.76,4.37-2.6,7.23-2.51c2.87,0.09,5.22,1.08,7.07,2.95
			c1.84,1.88,2.72,4.18,2.64,6.89c-0.08,2.71-1.1,4.95-3.06,6.71c-1.96,1.76-4.37,2.6-7.24,2.51
			C2797.83,2367.08,2795.47,2366.1,2793.63,2364.21z"/>
		<path class="st7" d="M2833.05,2438.53c-4.13-2.03-7.36-4.71-9.7-8.04c-2.34-3.33-3.57-6.98-3.68-10.94l16.39,0.51
			c0.23,2.49,1.39,4.58,3.47,6.27c2.08,1.7,4.71,2.59,7.89,2.69c3.1,0.1,5.54-0.45,7.32-1.63c1.78-1.19,2.7-2.75,2.76-4.69
			c0.06-2.09-0.95-3.7-3.05-4.81c-2.1-1.11-5.46-2.36-10.07-3.75c-4.77-1.31-8.67-2.63-11.69-3.97c-3.02-1.33-5.6-3.32-7.73-5.94
			c-2.13-2.63-3.13-6.11-2.99-10.45c0.11-3.56,1.24-6.79,3.38-9.67c2.14-2.88,5.16-5.11,9.05-6.7c3.89-1.59,8.43-2.3,13.63-2.14
			c7.67,0.24,13.74,2.35,18.19,6.33c4.45,3.98,6.81,9.23,7.08,15.76l-15.58-0.48c-0.15-2.56-1.16-4.63-3.01-6.2
			c-1.85-1.57-4.37-2.41-7.55-2.5c-2.95-0.09-5.23,0.38-6.85,1.42c-1.62,1.04-2.46,2.52-2.52,4.46c-0.07,2.17,0.97,3.85,3.1,5.04
			c2.13,1.19,5.47,2.44,10.01,3.74c4.62,1.31,8.42,2.63,11.4,3.96c2.98,1.34,5.54,3.34,7.67,6c2.13,2.67,3.17,6.13,3.11,10.4
			c-0.12,3.72-1.25,7.02-3.39,9.9c-2.15,2.88-5.16,5.1-9.05,6.64s-8.39,2.24-13.51,2.08
			C2841.87,2441.65,2837.18,2440.56,2833.05,2438.53z"/>
		<path class="st7" d="M2912.78,2380.25c3.74-1.86,7.98-2.72,12.71-2.57c5.5,0.17,10.44,1.68,14.81,4.53
			c4.37,2.85,7.78,6.82,10.22,11.9c2.44,5.08,3.56,10.92,3.36,17.5c-0.2,6.59-1.69,12.38-4.44,17.38c-2.76,5-6.4,8.82-10.95,11.47
			c-4.54,2.65-9.57,3.89-15.07,3.72c-4.73-0.15-8.86-1.25-12.41-3.3c-3.54-2.05-6.4-4.58-8.55-7.6l-1.24,39.88l-16.28-0.5
			l2.95-95.11l16.28,0.5l-0.29,9.3C2906.07,2384.48,2909.03,2382.11,2912.78,2380.25z M2935.18,2400.96
			c-1.5-2.88-3.53-5.09-6.08-6.65c-2.55-1.55-5.34-2.38-8.36-2.47c-2.95-0.09-5.74,0.58-8.38,2.01c-2.65,1.43-4.81,3.56-6.48,6.37
			c-1.68,2.82-2.58,6.17-2.7,10.04c-0.12,3.88,0.57,7.28,2.07,10.19c1.5,2.92,3.52,5.17,6.07,6.76c2.55,1.59,5.3,2.43,8.24,2.53
			c3.02,0.09,5.86-0.59,8.5-2.06c2.64-1.47,4.81-3.61,6.48-6.43c1.68-2.82,2.58-6.2,2.7-10.16
			C2937.37,2407.22,2936.68,2403.84,2935.18,2400.96z"/>
		<path class="st7" d="M2976.69,2441.71c-4.88-2.91-8.65-6.92-11.32-12.05c-2.67-5.13-3.91-10.98-3.7-17.57
			c0.2-6.59,1.84-12.36,4.9-17.3c3.06-4.95,7.15-8.72,12.28-11.32c5.12-2.59,10.79-3.8,16.99-3.6c6.2,0.19,11.78,1.74,16.73,4.65
			c4.95,2.91,8.8,6.93,11.56,12.05c2.75,5.13,4.02,10.99,3.82,17.58c-0.2,6.59-1.88,12.36-5.02,17.3
			c-3.14,4.95-7.29,8.72-12.46,11.31c-5.16,2.6-10.88,3.79-17.16,3.6C2987.1,2446.16,2981.56,2444.61,2976.69,2441.71z
			 M3002.12,2430.28c2.64-1.35,4.78-3.44,6.42-6.26c1.64-2.82,2.52-6.28,2.65-10.39c0.19-6.12-1.27-10.88-4.39-14.28
			c-3.11-3.39-7-5.16-11.65-5.31c-4.65-0.14-8.6,1.38-11.84,4.58c-3.24,3.2-4.96,7.86-5.15,13.98c-0.19,6.12,1.19,10.88,4.15,14.27
			c2.96,3.39,6.76,5.16,11.42,5.3C2996.69,2432.26,2999.48,2431.63,3002.12,2430.28z"/>
		<path class="st7" d="M3095.01,2390.33c4.58,4.99,6.73,11.83,6.46,20.51l-1.17,37.79l-16.28-0.5l1.1-35.58
			c0.16-5.12-1-9.09-3.47-11.92c-2.47-2.83-5.92-4.32-10.34-4.45c-4.5-0.14-8.09,1.13-10.77,3.8c-2.68,2.67-4.1,6.56-4.26,11.68
			l-1.1,35.58l-16.28-0.5l2-64.42l16.28,0.5l-0.25,8.02c2.26-2.72,5.1-4.83,8.52-6.31c3.42-1.48,7.15-2.16,11.18-2.04
			C3084.31,2382.72,3090.44,2385.34,3095.01,2390.33z"/>
		<path class="st7" d="M3134.05,2385.2l-2,64.42l-16.28-0.5l2-64.42L3134.05,2385.2z M3119.2,2374.32
			c-1.84-1.88-2.72-4.18-2.64-6.89c0.08-2.71,1.1-4.95,3.06-6.71c1.96-1.76,4.37-2.6,7.24-2.51c2.87,0.09,5.22,1.08,7.07,2.95
			c1.84,1.88,2.72,4.18,2.64,6.89c-0.08,2.71-1.1,4.95-3.06,6.71c-1.96,1.76-4.37,2.6-7.24,2.51
			C3123.39,2377.19,3121.04,2376.2,3119.2,2374.32z"/>
		<path class="st7" d="M3174.98,2388.33c3.74-1.82,7.98-2.66,12.71-2.51c5.5,0.17,10.44,1.68,14.81,4.53
			c4.37,2.85,7.78,6.82,10.22,11.9c2.44,5.08,3.56,10.92,3.36,17.5c-0.2,6.59-1.69,12.38-4.44,17.38c-2.76,5-6.4,8.82-10.95,11.47
			c-4.54,2.65-9.57,3.89-15.07,3.72c-4.81-0.15-8.98-1.23-12.53-3.24c-3.54-2.01-6.36-4.56-8.43-7.65l-0.29,9.19l-16.28-0.5
			l2.67-86.04l16.28,0.5l-0.96,31.05C3168.27,2392.59,3171.23,2390.15,3174.98,2388.33z M3197.38,2409.1
			c-1.5-2.88-3.53-5.09-6.08-6.65c-2.55-1.55-5.34-2.38-8.36-2.47c-2.95-0.09-5.74,0.58-8.38,2.01c-2.65,1.43-4.81,3.56-6.48,6.37
			c-1.68,2.82-2.58,6.17-2.7,10.04c-0.12,3.88,0.57,7.28,2.07,10.19c1.5,2.92,3.52,5.17,6.07,6.76c2.55,1.59,5.3,2.43,8.24,2.53
			c3.02,0.09,5.86-0.59,8.5-2.06c2.64-1.47,4.81-3.61,6.48-6.43c1.68-2.82,2.58-6.2,2.7-10.16
			C3199.57,2415.36,3198.88,2411.98,3197.38,2409.1z"/>
		<path class="st7" d="M3245.88,2367.02l-2.67,86.04l-16.28-0.5l2.67-86.04L3245.88,2367.02z"/>
		<path class="st7" d="M3319.51,2428.08l-47.09-1.46c0.24,4.66,1.76,8.36,4.54,11.08c2.78,2.72,6.27,4.15,10.46,4.28
			c6.05,0.19,10.43-2.28,13.15-7.39l17.56,0.54c-2.05,6.14-5.78,11.13-11.17,14.96c-5.4,3.83-11.93,5.62-19.6,5.39
			c-6.2-0.19-11.72-1.74-16.56-4.65c-4.84-2.9-8.55-6.92-11.15-12.04c-2.6-5.12-3.79-10.98-3.59-17.57
			c0.21-6.67,1.74-12.47,4.61-17.43c2.87-4.95,6.79-8.71,11.76-11.27s10.63-3.74,16.99-3.55c6.12,0.19,11.57,1.68,16.33,4.46
			c4.76,2.79,8.41,6.64,10.93,11.57c2.52,4.93,3.69,10.53,3.49,16.81C3320.1,2424.14,3319.88,2426.23,3319.51,2428.08z
			 M3303.46,2416.64c0.05-4.19-1.36-7.59-4.22-10.2c-2.87-2.61-6.43-3.98-10.7-4.11c-4.03-0.12-7.46,0.99-10.29,3.35
			c-2.83,2.36-4.62,5.7-5.37,10.02L3303.46,2416.64z"/>
		<path class="st7" d="M3330.99,2453.87c-1.84-1.88-2.72-4.18-2.64-6.89c0.08-2.71,1.1-4.95,3.06-6.71c1.96-1.76,4.41-2.6,7.35-2.51
			c2.87,0.09,5.2,1.07,7.01,2.95c1.8,1.88,2.66,4.18,2.58,6.89c-0.08,2.71-1.08,4.95-3,6.71c-1.92,1.77-4.31,2.6-7.18,2.51
			C3335.23,2456.74,3332.83,2455.75,3330.99,2453.87z"/>
	</g>
</g>
</svg>
