<?xml version="1.0" encoding="utf-8"?>
<!-- Generator: Adobe Illustrator 24.3.0, SVG Export Plug-In . SVG Version: 6.00 Build 0)  -->
<svg version="1.1" id="Layer_1" xmlns="http://www.w3.org/2000/svg" xmlns:xlink="http://www.w3.org/1999/xlink" x="0px" y="0px"
	 viewBox="0 0 4000 4000" style="enable-background:new 0 0 4000 4000;" xml:space="preserve">
<style type="text/css">
	.st0{display:none;fill:none;stroke:#0A5244;stroke-width:2.9284;stroke-miterlimit:10;}
	.st1{opacity:0.1;}
	.st2{fill:#E1E5E2;}
	.st3{fill:#FEC253;}
	.st4{fill:#77C586;}
	.st5{fill:#393B50;}
	.st6{fill:#232533;}
	.st7{fill:#FFFFFF;}
	.st8{fill:none;stroke:#393B50;stroke-width:5;stroke-miterlimit:10;}
	.st9{fill:#F5F6F6;}
</style>
<polygon class="st0" points="1464.7,1836 1392.3,1836 1392.3,1763.5 1349.3,1763.5 1349.3,1836 1276.8,1836 1276.8,1879 
	1349.3,1879 1349.3,1951.4 1392.3,1951.4 1392.3,1879 1464.7,1879 "/>
<g>
	<g class="st1">
		<g>
			<g>
				<path class="st2" d="M352.9,2456.3C193.6,2176,87.2,1841.6,188.5,1542.6c96.2-283.8,375.1-428.8,649.4-497.1
					c286.8-71.4,587.9-79.5,877.8-140.2c304.1-63.6,603-152.4,892.1-266.4c131.1-51.7,260.7-108.8,397.3-143.5
					c246.2-62.6,548.4-23.1,709.2,193.3c167.9,225.9,175.6,552.9,54.3,801.7c-138.6,284.2-387.1,507.1-478.4,815.8
					c-55.3,187.1-42.3,390.4-107.6,574c-63.9,179.8-160.7,349.5-293.3,487.6c-151.4,157.6-351.1,272.1-567.1,305.1
					c-298.2,45.6-598.6-64-866.2-203.3c-357.8-186.2-691.4-435.1-935.6-759.2C462.5,2633.5,404.9,2547.8,352.9,2456.3z"/>
			</g>
		</g>
	</g>
	<g>
		<g>
			<g>
				<path class="st3" d="M3101.3,3378.4c0-11.7,84.5-236.9,227.6-288.6c-56.3,239.3-164.2,329.5-208.8,347.8
					C3106,3415.9,3101.3,3378.4,3101.3,3378.4z"/>
				<path class="st3" d="M3167,3380.4c0,0,72.7-133.7,227.6-115c-89.1,56.3-227.6,140-227.6,140V3380.4z"/>
				<path class="st3" d="M3096.6,3423.6c0,0-72.7-178.3,0-267.4C3131.8,3210.1,3127.1,3343.8,3096.6,3423.6z"/>
				<path class="st3" d="M3087.5,3433.8c0,0-253.4-157.2-401.2-147.8C2796.6,3215.6,3019.5,3286,3087.5,3433.8z"/>
				<path class="st3" d="M3071,3412.3c0,0-117.3-63.9-147.8-225.8C3012.4,3191.2,3089.8,3354.2,3071,3412.3z"/>
				<path class="st3" d="M3082.4,3397.9c0,0-65.7-124.3-39.9-197.1C3080,3254.6,3094.1,3351,3082.4,3397.9z"/>
			</g>
		</g>
		<g>
			<g>
				<g>
					<path class="st4" d="M3317.6,3486.4h-431.1c-2.5,0-4.5-2-4.5-4.5v-96.4c0-2.5,2-4.5,4.5-4.5h431.1c2.5,0,4.5,2,4.5,4.5v96.4
						C3322,3484.4,3320,3486.4,3317.6,3486.4z"/>
				</g>
				<g>
					<path class="st5" d="M3192.7,3733.1h-181.4c-13,0-24.3-8.7-27.7-21.2l-60.4-225.4h357.6l-60.4,225.4
						C3217,3724.4,3205.7,3733.1,3192.7,3733.1z"/>
				</g>
				<g>
					<polygon class="st6" points="2947.8,3578 3280.8,3486.4 2923.2,3486.4 					"/>
				</g>
			</g>
		</g>
	</g>
	<path class="st2" d="M3777.9,3808H222.1c-20.8,0-37.7-16.9-37.7-37.7l0,0c0-20.8,16.9-37.7,37.7-37.7h3555.8
		c20.8,0,37.7,16.9,37.7,37.7l0,0C3815.6,3791.1,3798.7,3808,3777.9,3808z"/>
	<ellipse class="st7" cx="1585.3" cy="1619.1" rx="109.8" ry="109.8"/>
	<g>
		<path class="st7" d="M1175,1807.3h19l-27.6,72.5h-17.8l-27.7-72.5h19.1l17.5,52.1L1175,1807.3z"/>
		<path class="st7" d="M1201,1807.3h16.7v72.5H1201V1807.3z"/>
		<path class="st7" d="M1231.5,1879.8v-72.5h25.3c5.2,0,10,0.8,14.5,2.3s8.4,3.8,11.7,6.8s5.9,6.8,7.8,11.3c1.8,4.5,2.8,9.8,2.8,16
			c0,6.1-0.9,11.4-2.8,15.9c-1.9,4.5-4.5,8.3-7.8,11.3c-3.3,3-7.2,5.3-11.7,6.8c-4.5,1.5-9.3,2.3-14.5,2.3L1231.5,1879.8
			L1231.5,1879.8z M1257.2,1864.6c2.8,0,5.3-0.4,7.7-1.2c2.4-0.8,4.5-2,6.2-3.7c1.8-1.7,3.1-3.9,4.2-6.6c1-2.7,1.5-5.9,1.5-9.6
			s-0.5-6.9-1.5-9.7s-2.4-4.9-4.2-6.6c-1.8-1.7-3.8-2.9-6.3-3.7c-2.4-0.8-5-1.2-7.7-1.2h-9v42.2L1257.2,1864.6L1257.2,1864.6z"/>
		<path class="st7" d="M1304.2,1807.3h50.8v15.2h-34.1v13.2h31.4v15.1h-31.4v13.8h35v15.2h-51.7V1807.3z"/>
		<path class="st7" d="M1432.2,1827.7c1.8,4.7,2.7,10,2.7,15.9s-0.9,11.1-2.7,15.8s-4.3,8.7-7.5,11.9c-3.2,3.2-7,5.7-11.3,7.5
			s-9.1,2.6-14.2,2.6s-9.8-0.9-14.2-2.6c-4.3-1.8-8.1-4.2-11.3-7.5c-3.2-3.2-5.8-7.2-7.5-11.9c-1.8-4.7-2.7-10-2.7-15.8
			s0.9-11.2,2.7-15.9s4.3-8.7,7.5-11.9c3.2-3.2,7-5.7,11.4-7.5s9.1-2.6,14.1-2.6c5.1,0,9.9,0.9,14.2,2.6s8.1,4.2,11.3,7.5
			C1427.9,1819,1430.4,1823,1432.2,1827.7z M1416.7,1853.3c1-2.8,1.5-6.1,1.5-9.7s-0.5-6.9-1.5-9.8s-2.3-5.3-4.1-7.2
			c-1.7-1.9-3.7-3.4-6-4.4s-4.8-1.5-7.5-1.5c-2.7,0-5.2,0.5-7.4,1.5c-2.3,1-4.2,2.5-6,4.4s-3.1,4.3-4.1,7.1c-1,2.8-1.5,6.1-1.5,9.8
			c0,3.6,0.5,6.9,1.5,9.7s2.3,5.2,4.1,7.1c1.7,1.9,3.7,3.4,6,4.4s4.7,1.5,7.4,1.5c2.7,0,5.2-0.5,7.5-1.5s4.3-2.5,6-4.4
			S1415.7,1856.1,1416.7,1853.3z"/>
		<path class="st7" d="M1517.7,1854.9v-47.6h15.8v72.5h-18.3l-28.1-47.6v47.6h-15.7v-72.5h18.3L1517.7,1854.9z"/>
		<path class="st7" d="M1612.7,1827.7c1.8,4.7,2.7,10,2.7,15.9s-0.9,11.1-2.7,15.8s-4.3,8.7-7.5,11.9c-3.2,3.2-7,5.7-11.3,7.5
			s-9.1,2.6-14.2,2.6s-9.8-0.9-14.2-2.6c-4.3-1.8-8.1-4.2-11.3-7.5c-3.2-3.2-5.8-7.2-7.5-11.9c-1.8-4.7-2.7-10-2.7-15.8
			s0.9-11.2,2.7-15.9s4.3-8.7,7.5-11.9c3.2-3.2,7-5.7,11.4-7.5s9.1-2.6,14.1-2.6c5.1,0,9.9,0.9,14.2,2.6s8.1,4.2,11.3,7.5
			C1608.4,1819,1610.9,1823,1612.7,1827.7z M1597.2,1853.3c1-2.8,1.5-6.1,1.5-9.7s-0.5-6.9-1.5-9.8s-2.3-5.3-4.1-7.2
			c-1.7-1.9-3.7-3.4-6-4.4s-4.8-1.5-7.5-1.5c-2.7,0-5.2,0.5-7.4,1.5c-2.3,1-4.2,2.5-6,4.4s-3.1,4.3-4.1,7.1c-1,2.8-1.5,6.1-1.5,9.8
			c0,3.6,0.5,6.9,1.5,9.7s2.3,5.2,4.1,7.1s3.7,3.4,6,4.4s4.7,1.5,7.4,1.5c2.7,0,5.2-0.5,7.5-1.5s4.3-2.5,6-4.4
			C1594.9,1858.5,1596.2,1856.1,1597.2,1853.3z"/>
		<path class="st7" d="M1617.3,1807.3h61.5v15.2h-22.3v57.3h-16.8v-57.3h-22.3V1807.3z"/>
		<path class="st7" d="M1713.2,1807.3h52.7v15.2h-36v13.2h33.3v15.1h-33.3v29h-16.7V1807.3z"/>
		<path class="st7" d="M1841.7,1827.7c1.8,4.7,2.7,10,2.7,15.9s-0.9,11.1-2.7,15.8s-4.3,8.7-7.5,11.9c-3.2,3.2-7,5.7-11.3,7.5
			s-9.1,2.6-14.2,2.6s-9.8-0.9-14.2-2.6c-4.3-1.8-8.1-4.2-11.3-7.5c-3.2-3.2-5.8-7.2-7.5-11.9c-1.8-4.7-2.7-10-2.7-15.8
			s0.9-11.2,2.7-15.9s4.3-8.7,7.5-11.9c3.2-3.2,7-5.7,11.4-7.5s9.1-2.6,14.1-2.6c5.1,0,9.9,0.9,14.2,2.6s8.1,4.2,11.3,7.5
			C1837.4,1819,1839.9,1823,1841.7,1827.7z M1826.2,1853.3c1-2.8,1.5-6.1,1.5-9.7s-0.5-6.9-1.5-9.8s-2.3-5.3-4-7.2
			c-1.7-1.9-3.7-3.4-6-4.4s-4.8-1.5-7.5-1.5c-2.7,0-5.2,0.5-7.4,1.5c-2.3,1-4.2,2.5-6,4.4s-3.1,4.3-4,7.1c-1,2.8-1.5,6.1-1.5,9.8
			c0,3.6,0.5,6.9,1.5,9.7s2.3,5.2,4,7.1c1.7,1.9,3.7,3.4,6,4.4s4.7,1.5,7.4,1.5c2.7,0,5.2-0.5,7.5-1.5s4.3-2.5,6-4.4
			C1823.8,1858.5,1825.2,1856.1,1826.2,1853.3z"/>
		<path class="st7" d="M1854.8,1807.3h16.8v44.3c0,4.9,1.2,8.6,3.7,11.1s5.8,3.7,10.2,3.7c4.4,0,7.8-1.2,10.3-3.7
			c2.5-2.5,3.7-6.2,3.7-11.1v-44.3h16.8v44.1c0,5.1-0.8,9.5-2.4,13.2s-3.8,6.9-6.5,9.4s-6,4.3-9.7,5.6c-3.7,1.2-7.8,1.8-12.1,1.8
			c-4.2,0-8.2-0.6-12-1.8s-7-3.1-9.8-5.6c-2.8-2.5-4.9-5.6-6.5-9.4c-1.6-3.8-2.4-8.2-2.4-13.2V1807.3z"/>
		<path class="st7" d="M1975.3,1854.9v-47.6h15.8v72.5h-18.3l-28.1-47.6v47.6H1929v-72.5h18.3L1975.3,1854.9z"/>
		<path class="st7" d="M2004.7,1879.8v-72.5h25.3c5.2,0,10,0.8,14.5,2.3s8.4,3.8,11.7,6.8s5.9,6.8,7.8,11.3c1.9,4.5,2.8,9.8,2.8,16
			c0,6.1-0.9,11.4-2.8,15.9c-1.9,4.5-4.5,8.3-7.8,11.3s-7.2,5.3-11.7,6.8c-4.5,1.5-9.3,2.3-14.5,2.3L2004.7,1879.8L2004.7,1879.8z
			 M2030.4,1864.6c2.8,0,5.3-0.4,7.7-1.2c2.4-0.8,4.5-2,6.2-3.7c1.8-1.7,3.1-3.9,4.2-6.6c1-2.7,1.5-5.9,1.5-9.6s-0.5-6.9-1.5-9.7
			s-2.4-4.9-4.2-6.6c-1.8-1.7-3.8-2.9-6.3-3.7c-2.4-0.8-5-1.2-7.7-1.2h-9v42.2L2030.4,1864.6L2030.4,1864.6z"/>
	</g>
	<g>
		<path class="st3" d="M1571.2,1561.4h27.4v17.9l-3.9,65.2h-19.5l-4-65.2L1571.2,1561.4L1571.2,1561.4z M1573.2,1654.8h23.3v22.1
			h-23.3V1654.8z"/>
	</g>
	<line class="st8" x1="1019.7" y1="192" x2="1019.7" y2="967.1"/>
	<line class="st8" x1="2932.4" y1="192" x2="2932.4" y2="967.1"/>
	<g>
		<g>
			<g>
				<g>
					<path class="st9" d="M3633.3,2954.4L640,3141.4c-12.9,0.8-24-9.1-24.8-21.9l-21.8-348.6l-12-191.2l-1.5-23.4l-7.8-124.8
						l-4-64.7l-9.3-149.2L490.2,1120l-9.1-145.9c0,0,0-0.1,0-0.1l-0.6-9.2c-0.8-12.9,9.1-24,21.9-24.8l9.3-0.6l2984-186.5
						c12.9-0.8,24.1,9.1,24.9,21.9l0.6,9.3l9.1,145.9l65.9,1055.4l11.9,191.3l1.5,23.4l7.8,124.2l4.1,65.3l9.3,148.7l24.4,391.2
						C3656,2942.4,3646.1,2953.5,3633.3,2954.4z"/>
					<path class="st2" d="M3530.3,930l-9.1-145.9c-1.1-18-16.8-31.8-34.7-30.6L511.7,939.4c-18,1.1-31.8,16.8-30.6,34.7l9.1,145.9
						L3530.3,930z"/>
					<circle class="st7" cx="3173" cy="857.9" r="31.1"/>
					
						<ellipse transform="matrix(0.1321 -0.9912 0.9912 0.1321 2002.6907 3990.0767)" class="st7" cx="3279.9" cy="851.4" rx="31.1" ry="31.1"/>
					<path class="st7" d="M3417.6,842.6c1.1,17.2-12,31.9-29.1,33c-17.1,1.1-31.9-12-33-29.1s12-31.9,29.1-33
						C3401.8,812.4,3416.5,825.4,3417.6,842.6z"/>
				</g>
				
					<rect x="625.3" y="1126.1" transform="matrix(0.9981 -6.239696e-02 6.239696e-02 0.9981 -123.0561 132.479)" class="st7" width="2868.5" height="1820.7"/>
			</g>
		</g>
	</g>
	<polygon class="st3" points="3609.6,2200.1 3507.8,2219.4 2113.2,2483.2 667.4,2756.8 593.4,2770.8 581.4,2579.6 580,2556.2 
		654,2542.2 2082.6,2271.9 3494.4,2004.7 3583.4,1987.9 3596.2,1985.5 3608.2,2176.7 	"/>
	<g>
		<path class="st7" d="M842.3,2568.7l47.5-9l2.7,14.2l-31.9,6l2.3,12.4l29.5-5.6l2.7,14.1l-29.5,5.6l2.5,13l32.8-6.2l2.7,14.2
			l-48.4,9.2L842.3,2568.7z"/>
		<path class="st7" d="M932.9,2597.1l-8.4,1.6l4.5,23.9l-15.6,3l-12.9-67.9l26.9-5.1c3.6-0.7,7-0.8,10.3-0.3
			c3.3,0.5,6.2,1.4,8.8,2.9s4.8,3.5,6.5,6c1.7,2.5,2.9,5.4,3.5,8.8c0.9,4.7,0.5,8.8-1,12.3c-1.6,3.5-4.1,6.7-7.7,9.5l20,23.5
			l-16.8,3.2L932.9,2597.1z M921.9,2585.4l11.2-2.1c3.3-0.6,5.6-1.9,7-3.9c1.4-2,1.8-4.2,1.3-6.6s-1.7-4.4-3.7-5.7
			c-2-1.3-4.6-1.7-7.9-1.1l-11.2,2.1L921.9,2585.4z"/>
		<path class="st7" d="M994.5,2585.5l-8.4,1.6l4.5,23.9l-15.6,2.9l-12.9-67.9l26.9-5.1c3.6-0.7,7-0.8,10.3-0.3
			c3.3,0.5,6.2,1.4,8.8,2.9s4.8,3.5,6.5,6c1.7,2.5,2.9,5.4,3.5,8.8c0.9,4.7,0.5,8.8-1,12.3c-1.6,3.5-4.1,6.7-7.7,9.5l20,23.5
			l-16.8,3.2L994.5,2585.5z M983.6,2573.7l11.2-2.1c3.3-0.6,5.6-1.9,7-3.9c1.4-2,1.8-4.2,1.3-6.6s-1.7-4.4-3.7-5.7
			c-2-1.3-4.6-1.7-7.9-1.1l-11.2,2.1L983.6,2573.7z"/>
		<path class="st7" d="M1089.6,2541.7c2.5,4.1,4.3,8.9,5.4,14.4s1.1,10.6,0.2,15.3s-2.5,8.9-4.9,12.5c-2.4,3.6-5.5,6.6-9.3,9
			c-3.8,2.4-8,4.1-12.8,5c-4.8,0.9-9.4,0.9-13.7,0.1c-4.3-0.9-8.3-2.5-11.9-5c-3.6-2.5-6.7-5.7-9.2-9.8s-4.3-8.9-5.3-14.4
			c-1-5.5-1.1-10.6-0.3-15.3c0.8-4.7,2.5-8.9,4.9-12.5s5.6-6.6,9.3-9c3.8-2.4,8-4.1,12.7-5c4.8-0.9,9.4-0.9,13.8-0.1
			c4.4,0.9,8.4,2.5,11.9,5C1084,2534.3,1087.1,2537.6,1089.6,2541.7z M1079.6,2568.4c0.4-2.8,0.3-5.9-0.3-9.4s-1.7-6.4-3.1-8.9
			c-1.4-2.5-3.1-4.5-5.1-6c-1.9-1.5-4.1-2.5-6.4-3.1c-2.3-0.5-4.8-0.6-7.3-0.1s-4.8,1.4-6.7,2.7c-1.9,1.4-3.5,3.1-4.8,5.2
			c-1.3,2.1-2.1,4.6-2.5,7.4c-0.4,2.8-0.3,6,0.4,9.4c0.7,3.4,1.7,6.4,3.1,8.8c1.4,2.5,3.1,4.5,5.1,6c1.9,1.5,4.1,2.5,6.4,3.1
			c2.3,0.6,4.7,0.6,7.2,0.1c2.5-0.5,4.8-1.4,6.7-2.8c2-1.4,3.6-3.1,4.9-5.2C1078.4,2573.7,1079.2,2571.2,1079.6,2568.4z"/>
		<path class="st7" d="M1130.8,2559.7l-8.4,1.6l4.5,23.9l-15.6,3l-12.9-67.9l26.9-5.1c3.6-0.7,7-0.8,10.3-0.3s6.2,1.4,8.8,2.9
			c2.6,1.5,4.8,3.5,6.5,6c1.7,2.5,2.9,5.4,3.5,8.8c0.9,4.7,0.5,8.8-1.1,12.3c-1.6,3.5-4.1,6.7-7.7,9.5l20,23.5l-16.8,3.2
			L1130.8,2559.7z M1119.9,2547.9l11.2-2.1c3.3-0.6,5.6-1.9,7-3.9c1.4-2,1.8-4.2,1.3-6.6c-0.5-2.5-1.7-4.4-3.7-5.7
			c-2-1.3-4.6-1.7-7.9-1.1l-11.2,2.1L1119.9,2547.9z"/>
	</g>
	<g>
		<path class="st7" d="M1602.5,2424.8l47.5-9l2.7,14.2l-31.9,6l2.3,12.4l29.4-5.6l2.7,14.1l-29.4,5.6l2.5,13l32.8-6.2l2.7,14.2
			l-48.4,9.2L1602.5,2424.8z"/>
		<path class="st7" d="M1693.1,2453.2l-8.4,1.6l4.5,23.9l-15.6,3l-12.9-67.9l26.9-5.1c3.6-0.7,7-0.8,10.3-0.3s6.2,1.4,8.8,2.9
			c2.6,1.5,4.8,3.5,6.5,6c1.7,2.5,2.9,5.4,3.5,8.8c0.9,4.7,0.5,8.8-1.1,12.3c-1.6,3.5-4.1,6.7-7.7,9.5l20,23.5l-16.8,3.2
			L1693.1,2453.2z M1682.1,2441.5l11.2-2.1c3.3-0.6,5.6-1.9,7-3.9c1.4-2,1.8-4.2,1.3-6.6c-0.5-2.5-1.7-4.4-3.7-5.7
			c-2-1.3-4.6-1.7-7.9-1.1l-11.2,2.1L1682.1,2441.5z"/>
		<path class="st7" d="M1754.7,2441.6l-8.4,1.6l4.5,23.9l-15.6,3l-12.9-67.9l26.9-5.1c3.6-0.7,7-0.8,10.3-0.3s6.2,1.4,8.8,2.9
			c2.6,1.5,4.8,3.5,6.5,6c1.7,2.5,2.9,5.4,3.5,8.8c0.9,4.7,0.5,8.8-1.1,12.3c-1.6,3.5-4.1,6.7-7.7,9.5l20,23.5l-16.8,3.2
			L1754.7,2441.6z M1743.8,2429.8l11.2-2.1c3.3-0.6,5.6-1.9,7-3.9c1.4-2,1.8-4.2,1.3-6.6c-0.5-2.5-1.7-4.4-3.7-5.7
			c-2-1.3-4.6-1.7-7.9-1.1l-11.2,2.1L1743.8,2429.8z"/>
		<path class="st7" d="M1849.8,2397.7c2.5,4.1,4.3,8.9,5.4,14.4s1.1,10.6,0.2,15.3s-2.5,8.9-4.9,12.5c-2.4,3.6-5.5,6.6-9.3,9
			c-3.8,2.4-8,4.1-12.8,5c-4.8,0.9-9.4,0.9-13.7,0.1c-4.3-0.9-8.3-2.5-11.9-5c-3.6-2.5-6.7-5.7-9.2-9.8s-4.3-8.9-5.3-14.4
			c-1-5.5-1.1-10.6-0.3-15.3c0.8-4.7,2.5-8.9,4.9-12.5s5.6-6.6,9.3-9c3.8-2.4,8-4.1,12.7-5c4.8-0.9,9.4-0.9,13.8-0.1
			c4.4,0.9,8.4,2.5,11.9,5C1844.2,2390.4,1847.3,2393.6,1849.8,2397.7z M1839.8,2424.4c0.4-2.8,0.3-5.9-0.3-9.4s-1.7-6.4-3.1-8.9
			c-1.4-2.5-3.1-4.5-5.1-6c-1.9-1.5-4.1-2.5-6.4-3.1c-2.3-0.5-4.8-0.6-7.3-0.1s-4.8,1.4-6.7,2.7c-1.9,1.4-3.5,3.1-4.8,5.2
			c-1.3,2.1-2.1,4.6-2.5,7.4c-0.4,2.8-0.3,6,0.4,9.4c0.7,3.4,1.7,6.4,3.1,8.8c1.4,2.5,3.1,4.5,5.1,6c1.9,1.5,4.1,2.5,6.4,3.1
			c2.3,0.6,4.7,0.6,7.2,0.1c2.5-0.5,4.8-1.4,6.7-2.8c2-1.4,3.6-3.1,4.9-5.2C1838.6,2429.7,1839.4,2427.3,1839.8,2424.4z"/>
		<path class="st7" d="M1891,2415.8l-8.4,1.6l4.5,23.9l-15.6,3l-12.9-67.9l26.9-5.1c3.6-0.7,7-0.8,10.3-0.3s6.2,1.4,8.8,2.9
			c2.6,1.5,4.8,3.5,6.5,6c1.7,2.5,2.9,5.4,3.5,8.8c0.9,4.7,0.5,8.8-1.1,12.3c-1.6,3.5-4.1,6.7-7.7,9.5l20,23.5l-16.8,3.2
			L1891,2415.8z M1880,2404l11.2-2.1c3.3-0.6,5.6-1.9,7-3.9c1.4-2,1.8-4.2,1.3-6.6c-0.5-2.5-1.7-4.4-3.7-5.7c-2-1.3-4.6-1.7-7.9-1.1
			l-11.2,2.1L1880,2404z"/>
	</g>
	<g>
		<path class="st7" d="M2298.9,2292.9l47.5-9l2.7,14.2l-31.9,6l2.4,12.4l29.4-5.6l2.7,14.1l-29.4,5.6l2.5,13l32.8-6.2l2.7,14.2
			l-48.4,9.2L2298.9,2292.9z"/>
		<path class="st7" d="M2389.5,2321.4l-8.4,1.6l4.5,23.9l-15.6,3l-12.9-67.9l26.9-5.1c3.6-0.7,7-0.8,10.3-0.3s6.2,1.4,8.8,2.9
			s4.8,3.5,6.5,6c1.7,2.5,2.9,5.4,3.5,8.8c0.9,4.7,0.5,8.8-1.1,12.3c-1.6,3.5-4.1,6.7-7.7,9.5l20,23.5l-16.8,3.2L2389.5,2321.4z
			 M2378.5,2309.6l11.2-2.1c3.3-0.6,5.6-1.9,7-3.9c1.4-2,1.8-4.2,1.3-6.6s-1.7-4.4-3.7-5.7c-2-1.3-4.6-1.7-7.9-1.1l-11.2,2.1
			L2378.5,2309.6z"/>
		<path class="st7" d="M2451.1,2309.7l-8.4,1.6l4.5,23.9l-15.6,3l-12.9-67.9l26.9-5.1c3.6-0.7,7-0.8,10.3-0.3s6.2,1.4,8.8,2.9
			c2.6,1.5,4.8,3.5,6.5,6c1.7,2.5,2.9,5.4,3.5,8.8c0.9,4.7,0.5,8.8-1.1,12.3c-1.6,3.5-4.1,6.7-7.7,9.5l20,23.5l-16.8,3.2
			L2451.1,2309.7z M2440.1,2297.9l11.2-2.1c3.3-0.6,5.6-1.9,7-3.9c1.4-2,1.8-4.2,1.3-6.6s-1.7-4.4-3.7-5.7c-2-1.3-4.6-1.7-7.9-1.1
			l-11.2,2.1L2440.1,2297.9z"/>
		<path class="st7" d="M2546.2,2265.9c2.5,4.1,4.3,8.9,5.4,14.4s1.1,10.6,0.2,15.3s-2.5,8.9-4.9,12.5c-2.4,3.6-5.5,6.6-9.3,9
			c-3.8,2.4-8,4.1-12.8,5s-9.4,0.9-13.7,0.1c-4.4-0.9-8.3-2.5-11.9-5c-3.6-2.5-6.7-5.7-9.2-9.8s-4.3-8.9-5.3-14.4
			c-1-5.5-1.1-10.6-0.3-15.3c0.8-4.7,2.5-8.9,4.9-12.5s5.6-6.6,9.3-9c3.8-2.4,8-4.1,12.7-5c4.8-0.9,9.4-0.9,13.8-0.1
			c4.4,0.9,8.4,2.5,11.9,5C2540.6,2258.5,2543.7,2261.8,2546.2,2265.9z M2536.2,2292.6c0.4-2.8,0.3-5.9-0.4-9.4s-1.7-6.4-3.1-8.9
			c-1.4-2.5-3.1-4.5-5.1-6c-1.9-1.5-4.1-2.5-6.4-3.1c-2.3-0.5-4.8-0.6-7.3-0.1s-4.8,1.4-6.7,2.7c-1.9,1.4-3.5,3.1-4.8,5.2
			c-1.3,2.1-2.1,4.6-2.5,7.4c-0.4,2.8-0.3,6,0.4,9.4c0.6,3.4,1.7,6.4,3.1,8.8c1.4,2.5,3.1,4.5,5.1,6c1.9,1.5,4.1,2.5,6.4,3.1
			c2.3,0.6,4.7,0.6,7.2,0.1c2.5-0.5,4.8-1.4,6.7-2.8c2-1.4,3.6-3.1,4.9-5.2C2535,2297.9,2535.8,2295.4,2536.2,2292.6z"/>
		<path class="st7" d="M2587.4,2283.9l-8.4,1.6l4.5,23.9l-15.6,3l-12.9-67.9l26.9-5.1c3.6-0.7,7-0.8,10.3-0.3s6.2,1.4,8.8,2.9
			s4.8,3.5,6.5,6c1.7,2.5,2.9,5.4,3.5,8.8c0.9,4.7,0.5,8.8-1.1,12.3c-1.6,3.5-4.1,6.7-7.7,9.5l20,23.5l-16.8,3.2L2587.4,2283.9z
			 M2576.4,2272.1l11.2-2.1c3.3-0.6,5.6-1.9,7-3.9c1.4-2,1.8-4.2,1.3-6.6s-1.7-4.4-3.7-5.7c-2-1.3-4.6-1.7-7.9-1.1l-11.2,2.1
			L2576.4,2272.1z"/>
	</g>
	<g>
		<path class="st7" d="M3069.7,2147l47.5-9l2.7,14.2l-31.9,6l2.4,12.4l29.4-5.6l2.7,14.1l-29.4,5.6l2.5,13l32.8-6.2l2.7,14.2
			l-48.4,9.2L3069.7,2147z"/>
		<path class="st7" d="M3160.2,2175.4l-8.4,1.6l4.5,23.9l-15.6,3l-12.9-67.9l26.9-5.1c3.6-0.7,7-0.8,10.3-0.3s6.2,1.4,8.8,2.9
			c2.6,1.5,4.8,3.5,6.5,6c1.7,2.5,2.9,5.4,3.5,8.8c0.9,4.7,0.5,8.8-1.1,12.3c-1.6,3.5-4.1,6.7-7.7,9.5l20,23.5l-16.8,3.2
			L3160.2,2175.4z M3149.3,2163.7l11.2-2.1c3.3-0.6,5.6-1.9,7-3.9c1.4-2,1.8-4.2,1.3-6.6s-1.7-4.4-3.7-5.7c-2-1.3-4.6-1.7-7.9-1.1
			l-11.2,2.1L3149.3,2163.7z"/>
		<path class="st7" d="M3221.9,2163.8l-8.4,1.6l4.5,23.9l-15.6,3l-12.9-67.9l26.9-5.1c3.6-0.7,7-0.8,10.3-0.3s6.2,1.4,8.8,2.9
			s4.8,3.5,6.5,6c1.7,2.5,2.9,5.4,3.5,8.8c0.9,4.7,0.5,8.8-1.1,12.3c-1.6,3.5-4.1,6.7-7.7,9.5l20,23.5l-16.8,3.2L3221.9,2163.8z
			 M3210.9,2152l11.2-2.1c3.3-0.6,5.6-1.9,7-3.9c1.4-2,1.8-4.2,1.3-6.6s-1.7-4.4-3.7-5.7c-2-1.3-4.6-1.7-7.9-1.1l-11.2,2.1
			L3210.9,2152z"/>
		<path class="st7" d="M3317,2119.9c2.5,4.1,4.3,8.9,5.4,14.4s1.1,10.6,0.2,15.3s-2.5,8.9-4.9,12.5c-2.4,3.6-5.5,6.6-9.3,9
			c-3.8,2.4-8,4.1-12.8,5s-9.4,0.9-13.7,0.1c-4.4-0.9-8.3-2.5-11.9-5c-3.6-2.5-6.7-5.7-9.2-9.8s-4.3-8.9-5.3-14.4
			c-1-5.5-1.1-10.6-0.3-15.3c0.8-4.7,2.5-8.9,4.9-12.5s5.6-6.6,9.3-9c3.8-2.4,8-4.1,12.7-5c4.8-0.9,9.4-0.9,13.8-0.1
			c4.4,0.9,8.4,2.5,11.9,5C3311.4,2112.6,3314.4,2115.9,3317,2119.9z M3307,2146.7c0.4-2.8,0.3-5.9-0.4-9.4
			c-0.6-3.4-1.7-6.4-3.1-8.9c-1.4-2.5-3.1-4.5-5.1-6c-1.9-1.5-4.1-2.5-6.4-3.1c-2.3-0.5-4.8-0.6-7.3-0.1s-4.8,1.4-6.7,2.7
			c-1.9,1.4-3.5,3.1-4.8,5.2c-1.3,2.1-2.1,4.6-2.5,7.4c-0.4,2.8-0.3,6,0.4,9.4c0.6,3.4,1.7,6.4,3.1,8.8c1.4,2.5,3.1,4.5,5.1,6
			c1.9,1.5,4.1,2.5,6.4,3.1c2.3,0.6,4.7,0.6,7.2,0.1c2.5-0.5,4.8-1.4,6.7-2.8c2-1.4,3.6-3.1,4.9-5.2
			C3305.7,2151.9,3306.6,2149.5,3307,2146.7z"/>
		<path class="st7" d="M3358.1,2137.9l-8.4,1.6l4.5,23.9l-15.6,3l-12.9-67.9l26.9-5.1c3.6-0.7,7-0.8,10.3-0.3s6.2,1.4,8.8,2.9
			c2.6,1.5,4.8,3.5,6.5,6c1.7,2.5,2.9,5.4,3.5,8.8c0.9,4.7,0.5,8.8-1.1,12.3c-1.6,3.5-4.1,6.7-7.7,9.5l20,23.5l-16.8,3.2
			L3358.1,2137.9z M3347.2,2126.2l11.2-2.1c3.3-0.6,5.6-1.9,7-3.9c1.4-2,1.8-4.2,1.3-6.6s-1.7-4.4-3.7-5.7c-2-1.3-4.6-1.7-7.9-1.1
			l-11.2,2.1L3347.2,2126.2z"/>
	</g>
	<polygon class="st4" points="3630.8,2538.3 3527.5,2534.7 2099.2,2484.8 647.2,2434 647.2,2434 572.2,2431.4 568.1,2366.7 
		558.8,2217.4 633.9,2220 2096.3,2271.2 3514.1,2320.8 3617.4,2324.4 3621.5,2389.6 	"/>
	<g>
		<path class="st7" d="M962.6,2306c6.4,3.5,11.2,8.4,14.6,14.7s4.9,13.5,4.6,21.6c-0.2,8.1-2.2,15.2-6,21.2
			c-3.7,6-8.9,10.5-15.4,13.7s-14.1,4.6-22.7,4.3l-28.4-0.9l2.5-81.2l28.4,0.9C948.8,2300.6,956.2,2302.5,962.6,2306z M957.6,2361.3
			c4.8-4.5,7.3-11,7.6-19.4c0.3-8.4-1.9-15.1-6.4-20c-4.5-4.9-11-7.5-19.5-7.8l-11.5-0.4l-1.7,53.6l11.5,0.4
			C946.1,2367.9,952.8,2365.8,957.6,2361.3z"/>
		<path class="st7" d="M1053,2357.7l-47.1-1.5c0.2,4.7,1.8,8.4,4.5,11.1c2.8,2.7,6.3,4.1,10.5,4.3c6,0.2,10.4-2.3,13.1-7.4l17.6,0.5
			c-2.1,6.1-5.8,11.1-11.2,15c-5.4,3.8-11.9,5.6-19.6,5.4c-6.2-0.2-11.7-1.7-16.6-4.6c-4.8-2.9-8.5-6.9-11.2-12
			c-2.6-5.1-3.8-11-3.6-17.6c0.2-6.7,1.7-12.5,4.6-17.4c2.9-4.9,6.8-8.7,11.8-11.3s10.6-3.7,17-3.6c6.1,0.2,11.6,1.7,16.3,4.5
			c4.8,2.8,8.4,6.6,10.9,11.6c2.5,4.9,3.7,10.5,3.5,16.8C1053.6,2353.8,1053.4,2355.9,1053,2357.7z M1036.9,2346.3
			c0.1-4.2-1.4-7.6-4.2-10.2c-2.9-2.6-6.4-4-10.7-4.1c-4-0.1-7.5,1-10.3,3.4c-2.8,2.4-4.6,5.7-5.4,10L1036.9,2346.3z M1035.8,2303.1
			l-27.1,11.4l0.4-11.6l27.2-13L1035.8,2303.1z"/>
		<path class="st7" d="M1075,2384c-4.1-2-7.4-4.7-9.7-8s-3.6-7-3.7-10.9l16.4,0.5c0.2,2.5,1.4,4.6,3.5,6.3c2.1,1.7,4.7,2.6,7.9,2.7
			c3.1,0.1,5.5-0.4,7.3-1.6c1.8-1.2,2.7-2.8,2.8-4.7c0.1-2.1-0.9-3.7-3.1-4.8c-2.1-1.1-5.4-2.4-10.1-3.8c-4.8-1.3-8.7-2.6-11.7-4
			c-3-1.3-5.6-3.3-7.7-5.9c-2.1-2.6-3.1-6.1-3-10.4c0.1-3.6,1.2-6.8,3.4-9.7s5.2-5.1,9.1-6.7c3.9-1.6,8.4-2.3,13.6-2.1
			c7.7,0.2,13.7,2.4,18.2,6.3s6.8,9.2,7.1,15.8l-15.6-0.5c-0.2-2.6-1.2-4.6-3-6.2s-4.4-2.4-7.6-2.5c-2.9-0.1-5.2,0.4-6.8,1.4
			s-2.5,2.5-2.5,4.5c-0.1,2.2,1,3.9,3.1,5s5.5,2.4,10,3.7c4.6,1.3,8.4,2.6,11.4,4c3,1.3,5.5,3.3,7.7,6s3.2,6.1,3.1,10.4
			c-0.1,3.7-1.2,7-3.4,9.9c-2.2,2.9-5.2,5.1-9.1,6.6s-8.4,2.2-13.5,2.1C1083.8,2387.1,1079.1,2386,1075,2384z"/>
		<path class="st7" d="M1139.8,2384.7c-4.9-2.9-8.7-6.9-11.3-12.1c-2.7-5.1-3.9-11-3.7-17.6c0.2-6.6,1.8-12.4,4.9-17.3
			c3.1-4.9,7.2-8.7,12.3-11.3c5.1-2.6,10.8-3.8,17-3.6c6.2,0.2,11.8,1.7,16.7,4.6s8.8,6.9,11.6,12.1c2.8,5.1,4,11,3.8,17.6
			c-0.2,6.6-1.9,12.4-5,17.3c-3.1,4.9-7.3,8.7-12.5,11.3c-5.2,2.6-10.9,3.8-17.2,3.6C1150.2,2389.1,1144.7,2387.6,1139.8,2384.7z
			 M1165.2,2373.3c2.6-1.4,4.8-3.4,6.4-6.3s2.5-6.3,2.7-10.4c0.2-6.1-1.3-10.9-4.4-14.3c-3.1-3.4-7-5.2-11.7-5.3s-8.6,1.4-11.8,4.6
			c-3.2,3.2-5,7.9-5.2,14c-0.2,6.1,1.2,10.9,4.2,14.3c3,3.4,6.8,5.2,11.4,5.3C1159.8,2375.2,1162.6,2374.6,1165.2,2373.3z"/>
		<path class="st7" d="M1221,2304.2l-2.7,86l-16.3-0.5l2.7-86L1221,2304.2z"/>
		<path class="st7" d="M1294.6,2365.2l-47.1-1.5c0.2,4.7,1.8,8.4,4.5,11.1c2.8,2.7,6.3,4.1,10.5,4.3c6.1,0.2,10.4-2.3,13.2-7.4
			l17.6,0.5c-2.1,6.1-5.8,11.1-11.2,15c-5.4,3.8-11.9,5.6-19.6,5.4c-6.2-0.2-11.7-1.7-16.6-4.6c-4.8-2.9-8.6-6.9-11.2-12
			s-3.8-11-3.6-17.6c0.2-6.7,1.7-12.5,4.6-17.4c2.9-4.9,6.8-8.7,11.8-11.3s10.6-3.7,17-3.6c6.1,0.2,11.6,1.7,16.3,4.5
			c4.8,2.8,8.4,6.6,10.9,11.6c2.5,4.9,3.7,10.5,3.5,16.8C1295.2,2361.3,1295,2363.4,1294.6,2365.2z M1278.6,2353.8
			c0.1-4.2-1.4-7.6-4.2-10.2c-2.9-2.6-6.4-4-10.7-4.1c-4-0.1-7.5,1-10.3,3.4c-2.8,2.4-4.6,5.7-5.4,10L1278.6,2353.8z M1277.5,2310.6
			l-27.1,11.4l0.4-11.6l27.2-13L1277.5,2310.6z"/>
		<path class="st7" d="M1316.6,2391.5c-4.1-2-7.4-4.7-9.7-8s-3.6-7-3.7-10.9l16.4,0.5c0.2,2.5,1.4,4.6,3.5,6.3
			c2.1,1.7,4.7,2.6,7.9,2.7c3.1,0.1,5.5-0.4,7.3-1.6c1.8-1.2,2.7-2.8,2.8-4.7c0.1-2.1-0.9-3.7-3.1-4.8c-2.1-1.1-5.4-2.4-10.1-3.8
			c-4.8-1.3-8.7-2.6-11.7-4c-3-1.3-5.6-3.3-7.7-5.9c-2.1-2.6-3.1-6.1-3-10.4c0.1-3.6,1.2-6.8,3.4-9.7s5.2-5.1,9.1-6.7
			c3.9-1.6,8.4-2.3,13.6-2.1c7.7,0.2,13.7,2.4,18.2,6.3s6.8,9.2,7.1,15.8l-15.6-0.5c-0.2-2.6-1.2-4.6-3-6.2s-4.4-2.4-7.6-2.5
			c-2.9-0.1-5.2,0.4-6.8,1.4s-2.5,2.5-2.5,4.5c-0.1,2.2,1,3.9,3.1,5s5.5,2.4,10,3.7c4.6,1.3,8.4,2.6,11.4,4c3,1.3,5.5,3.3,7.7,6
			s3.2,6.1,3.1,10.4c-0.1,3.7-1.2,7-3.4,9.9c-2.2,2.9-5.2,5.1-9.1,6.6c-3.9,1.6-8.4,2.2-13.5,2.1
			C1325.4,2394.6,1320.8,2393.5,1316.6,2391.5z"/>
		<path class="st7" d="M1374.9,2393.1c-1.8-1.9-2.7-4.2-2.6-6.9c0.1-2.7,1.1-4.9,3.1-6.7c2-1.8,4.4-2.6,7.3-2.5
			c2.9,0.1,5.2,1.1,7,2.9c1.8,1.9,2.7,4.2,2.6,6.9c-0.1,2.7-1.1,4.9-3,6.7c-1.9,1.8-4.3,2.6-7.2,2.5
			C1379.2,2396,1376.8,2395,1374.9,2393.1z M1393.1,2313l-3.6,56.1l-13.7-0.4l-0.2-56.2L1393.1,2313z"/>
		<path class="st7" d="M1441.7,2334.9c3.8-6.2,8.9-11,15.2-14.3c6.3-3.3,13.4-4.9,21.2-4.6c9.1,0.3,16.9,2.9,23.6,7.7
			c6.7,4.9,11.2,11.4,13.7,19.7l-18.7-0.6c-1.7-3.9-4.3-6.9-7.6-9c-3.3-2-7.2-3.1-11.6-3.3c-4.7-0.1-9,0.8-12.7,2.9
			c-3.8,2.1-6.7,5.1-8.9,9.1c-2.2,4-3.3,8.7-3.5,14.1c-0.2,5.4,0.7,10.1,2.6,14.2s4.7,7.4,8.3,9.7c3.6,2.3,7.8,3.6,12.5,3.7
			c4.4,0.1,8.3-0.7,11.8-2.6c3.4-1.9,6.1-4.7,8.1-8.5l18.7,0.6c-3,8.2-7.9,14.5-14.8,18.9c-6.9,4.4-15,6.5-24.1,6.2
			c-7.8-0.2-14.7-2.2-20.8-5.9s-10.9-8.8-14.3-15.2s-5-13.6-4.7-21.6C1435.9,2348.2,1437.9,2341.1,1441.7,2334.9z"/>
		<path class="st7" d="M1587.9,2374.3l-47.1-1.5c0.2,4.7,1.8,8.4,4.5,11.1c2.8,2.7,6.3,4.1,10.5,4.3c6.1,0.2,10.4-2.3,13.2-7.4
			l17.6,0.5c-2.1,6.1-5.8,11.1-11.2,15c-5.4,3.8-11.9,5.6-19.6,5.4c-6.2-0.2-11.7-1.7-16.6-4.6c-4.8-2.9-8.6-6.9-11.2-12
			s-3.8-11-3.6-17.6c0.2-6.7,1.7-12.5,4.6-17.4c2.9-4.9,6.8-8.7,11.8-11.3s10.6-3.7,17-3.6c6.1,0.2,11.6,1.7,16.3,4.5
			c4.8,2.8,8.4,6.6,10.9,11.6c2.5,4.9,3.7,10.5,3.5,16.8C1588.4,2370.4,1588.2,2372.5,1587.9,2374.3z M1571.8,2362.9
			c0.1-4.2-1.4-7.6-4.2-10.2c-2.9-2.6-6.4-4-10.7-4.1c-4-0.1-7.5,1-10.3,3.4c-2.8,2.4-4.6,5.7-5.4,10L1571.8,2362.9z"/>
		<path class="st7" d="M1619.9,2351.6l-1,31.2c-0.1,2.2,0.4,3.8,1.4,4.8c1,1,2.8,1.5,5.2,1.6l7.6,0.2l-0.4,13.7l-10.2-0.3
			c-13.7-0.4-20.4-7.3-20-20.6l1-31l-7.7-0.2l0.4-13.4l7.7,0.2l0.5-15.9l16.4,0.5l-0.5,15.9l14.4,0.4l-0.4,13.4L1619.9,2351.6z"/>
		<path class="st7" d="M1665,2353l-1,31.2c-0.1,2.2,0.4,3.8,1.4,4.8c1,1,2.8,1.5,5.2,1.6l7.6,0.2l-0.4,13.7l-10.2-0.3
			c-13.7-0.4-20.4-7.3-20-20.6l1-31l-7.7-0.2l0.4-13.4l7.7,0.2l0.5-15.9l16.4,0.5l-0.5,15.9l14.4,0.4l-0.4,13.4L1665,2353z"/>
		<path class="st7" d="M1749.8,2379.4l-47.1-1.5c0.2,4.7,1.8,8.4,4.5,11.1c2.8,2.7,6.3,4.1,10.5,4.3c6.1,0.2,10.4-2.3,13.2-7.4
			l17.6,0.6c-2.1,6.1-5.8,11.1-11.2,15c-5.4,3.8-11.9,5.6-19.6,5.4c-6.2-0.2-11.7-1.7-16.6-4.6c-4.8-2.9-8.6-6.9-11.2-12
			s-3.8-11-3.6-17.6c0.2-6.7,1.7-12.5,4.6-17.4c2.9-4.9,6.8-8.7,11.8-11.3s10.6-3.7,17-3.6c6.1,0.2,11.6,1.7,16.3,4.5
			c4.8,2.8,8.4,6.6,10.9,11.6c2.5,4.9,3.7,10.5,3.5,16.8C1750.4,2375.4,1750.2,2377.5,1749.8,2379.4z M1733.8,2367.9
			c0.1-4.2-1.4-7.6-4.2-10.2c-2.9-2.6-6.4-4-10.7-4.1c-4-0.1-7.5,1-10.3,3.4c-2.8,2.4-4.6,5.7-5.4,10L1733.8,2367.9z"/>
		<path class="st7" d="M1815.9,2346.2c3.7-1.9,8-2.7,12.7-2.6c5.5,0.2,10.4,1.7,14.8,4.5c4.4,2.9,7.8,6.8,10.2,11.9
			c2.4,5.1,3.6,10.9,3.4,17.5c-0.2,6.6-1.7,12.4-4.4,17.4c-2.8,5-6.4,8.8-10.9,11.5c-4.6,2.6-9.6,3.9-15.1,3.7
			c-4.7-0.1-8.9-1.2-12.4-3.3c-3.5-2.1-6.4-4.6-8.6-7.6l-1.2,39.9l-16.3-0.5l2.9-95.1l16.3,0.5l-0.3,9.3
			C1809.2,2350.4,1812.1,2348.1,1815.9,2346.2z M1838.3,2366.9c-1.5-2.9-3.5-5.1-6.1-6.6c-2.6-1.6-5.3-2.4-8.4-2.5
			c-2.9-0.1-5.7,0.6-8.4,2c-2.7,1.4-4.8,3.6-6.5,6.4c-1.7,2.8-2.6,6.2-2.7,10c-0.1,3.9,0.6,7.3,2.1,10.2s3.5,5.2,6.1,6.8
			c2.6,1.6,5.3,2.4,8.2,2.5c3,0.1,5.9-0.6,8.5-2.1s4.8-3.6,6.5-6.4c1.7-2.8,2.6-6.2,2.7-10.2
			C1840.4,2373.2,1839.8,2369.8,1838.3,2366.9z"/>
		<path class="st7" d="M1869.1,2360.6c2.8-5,6.4-8.7,10.9-11.3c4.5-2.6,9.6-3.8,15.1-3.6c4.8,0.1,9,1.2,12.5,3.3
			c3.5,2.1,6.4,4.6,8.4,7.6l0.3-9.2l16.4,0.5l-2,64.4l-16.4-0.5l0.3-9.4c-2.2,3-5.2,5.4-8.9,7.2c-3.7,1.9-8,2.7-12.8,2.6
			c-5.4-0.2-10.3-1.7-14.7-4.6s-7.8-7-10.2-12.1c-2.4-5.2-3.6-11-3.3-17.6C1864.8,2371.3,1866.3,2365.6,1869.1,2360.6z
			 M1913.3,2369.4c-1.5-2.9-3.5-5.1-6.1-6.7c-2.6-1.6-5.4-2.4-8.4-2.5c-3-0.1-5.8,0.6-8.4,1.9s-4.8,3.5-6.4,6.3
			c-1.7,2.8-2.6,6.1-2.7,10c-0.1,3.9,0.6,7.3,2.1,10.2s3.5,5.2,6.1,6.9c2.6,1.6,5.3,2.5,8.2,2.6c3,0.1,5.9-0.6,8.6-2
			s4.8-3.5,6.5-6.3c1.6-2.8,2.5-6.1,2.6-10.1C1915.4,2375.6,1914.8,2372.2,1913.3,2369.4z"/>
		<path class="st7" d="M1986.5,2351.4c3.6,2,6.4,4.6,8.4,7.6l0.3-9.2l16.4,0.5l-2,64.9c-0.2,6-1.6,11.3-4.1,15.9
			c-2.6,4.6-6.3,8.2-11.2,10.8c-4.9,2.6-10.8,3.8-17.6,3.6c-9.2-0.3-16.6-2.6-22.3-7.1c-5.7-4.4-8.8-10.4-9.4-17.8l16.2,0.5
			c0.8,3,2.5,5.4,5.3,7.2c2.8,1.8,6.2,2.8,10.2,2.9c4.7,0.1,8.6-1.1,11.6-3.9s4.6-7,4.8-12.7l0.3-10c-2.2,3-5.2,5.4-8.9,7.3
			c-3.8,1.9-8,2.8-12.7,2.6c-5.4-0.2-10.3-1.7-14.8-4.6c-4.4-2.9-7.8-7-10.3-12.1c-2.4-5.2-3.6-11-3.3-17.6
			c0.2-6.5,1.7-12.2,4.4-17.2s6.4-8.7,10.9-11.3c4.5-2.6,9.6-3.8,15.1-3.6C1978.7,2348.3,1982.9,2349.4,1986.5,2351.4z
			 M1992.1,2371.8c-1.5-2.9-3.5-5.1-6.1-6.7c-2.6-1.6-5.4-2.4-8.4-2.5s-5.8,0.6-8.4,1.9s-4.8,3.5-6.4,6.3c-1.7,2.8-2.6,6.1-2.7,10
			c-0.1,3.9,0.6,7.3,2.1,10.2s3.5,5.2,6.1,6.9c2.6,1.6,5.3,2.5,8.2,2.6c3,0.1,5.9-0.6,8.6-2s4.8-3.5,6.5-6.3
			c1.6-2.8,2.5-6.1,2.6-10.1C1994.3,2378.1,1993.6,2374.7,1992.1,2371.8z"/>
		<path class="st7" d="M2085.7,2389.8l-47.1-1.5c0.2,4.7,1.8,8.4,4.5,11.1c2.8,2.7,6.3,4.1,10.5,4.3c6.1,0.2,10.4-2.3,13.1-7.4
			l17.6,0.5c-2.1,6.1-5.8,11.1-11.2,15c-5.4,3.8-11.9,5.6-19.6,5.4c-6.2-0.2-11.7-1.7-16.6-4.6c-4.8-2.9-8.6-6.9-11.2-12
			s-3.8-11-3.6-17.6c0.2-6.7,1.7-12.5,4.6-17.4c2.9-4.9,6.8-8.7,11.8-11.3s10.6-3.7,17-3.6c6.1,0.2,11.6,1.7,16.3,4.5
			c4.8,2.8,8.4,6.6,10.9,11.6c2.5,4.9,3.7,10.5,3.5,16.8C2086.3,2385.9,2086.1,2387.9,2085.7,2389.8z M2069.7,2378.4
			c0.1-4.2-1.4-7.6-4.2-10.2c-2.9-2.6-6.4-4-10.7-4.1c-4-0.1-7.5,1-10.3,3.4c-2.8,2.4-4.6,5.7-5.4,10L2069.7,2378.4z"/>
		<path class="st7" d="M2181,2362c4.6,5,6.7,11.8,6.5,20.5l-1.2,37.8l-16.3-0.5l1.1-35.6c0.2-5.1-1-9.1-3.5-11.9s-5.9-4.3-10.3-4.4
			c-4.5-0.1-8.1,1.1-10.8,3.8c-2.7,2.7-4.1,6.6-4.3,11.7l-1.1,35.6l-16.3-0.5l2-64.4l16.3,0.5l-0.2,8c2.3-2.7,5.1-4.8,8.5-6.3
			s7.1-2.2,11.2-2C2170.3,2354.4,2176.4,2357,2181,2362z"/>
		<path class="st7" d="M2214.9,2328.3l-2.2,24.6l-11.1-0.3l-0.8-24.7L2214.9,2328.3z"/>
		<path class="st7" d="M2284.7,2396l-47.1-1.5c0.2,4.7,1.8,8.4,4.5,11.1s6.3,4.1,10.5,4.3c6.1,0.2,10.4-2.3,13.1-7.4l17.6,0.5
			c-2.1,6.1-5.8,11.1-11.2,15c-5.4,3.8-11.9,5.6-19.6,5.4c-6.2-0.2-11.7-1.7-16.6-4.6c-4.8-2.9-8.6-6.9-11.1-12
			c-2.6-5.1-3.8-11-3.6-17.6c0.2-6.7,1.7-12.5,4.6-17.4c2.9-4.9,6.8-8.7,11.8-11.3s10.6-3.7,17-3.6c6.1,0.2,11.6,1.7,16.3,4.5
			c4.8,2.8,8.4,6.6,10.9,11.6c2.5,4.9,3.7,10.5,3.5,16.8C2285.3,2392,2285.1,2394.1,2284.7,2396z M2268.6,2384.5
			c0.1-4.2-1.4-7.6-4.2-10.2c-2.9-2.6-6.4-4-10.7-4.1c-4-0.1-7.5,1-10.3,3.4s-4.6,5.7-5.4,10L2268.6,2384.5z"/>
		<path class="st7" d="M2306.7,2422.2c-4.1-2-7.4-4.7-9.7-8c-2.3-3.3-3.6-7-3.7-10.9l16.4,0.5c0.2,2.5,1.4,4.6,3.5,6.3
			c2.1,1.7,4.7,2.6,7.9,2.7c3.1,0.1,5.5-0.4,7.3-1.6c1.8-1.2,2.7-2.8,2.8-4.7c0.1-2.1-0.9-3.7-3.1-4.8s-5.4-2.4-10.1-3.8
			c-4.8-1.3-8.7-2.6-11.7-4c-3-1.3-5.6-3.3-7.7-5.9c-2.1-2.6-3.1-6.1-3-10.4c0.1-3.6,1.2-6.8,3.4-9.7s5.2-5.1,9.1-6.7
			c3.9-1.6,8.4-2.3,13.6-2.1c7.7,0.2,13.7,2.4,18.2,6.3s6.8,9.2,7.1,15.8l-15.6-0.5c-0.1-2.6-1.2-4.6-3-6.2s-4.4-2.4-7.6-2.5
			c-2.9-0.1-5.2,0.4-6.9,1.4s-2.5,2.5-2.5,4.5c-0.1,2.2,1,3.9,3.1,5c2.1,1.2,5.5,2.4,10,3.7c4.6,1.3,8.4,2.6,11.4,4
			c3,1.3,5.5,3.3,7.7,6s3.2,6.1,3.1,10.4c-0.1,3.7-1.2,7-3.4,9.9c-2.1,2.9-5.2,5.1-9.1,6.6c-3.9,1.6-8.4,2.2-13.5,2.1
			C2315.5,2425.3,2310.8,2424.2,2306.7,2422.2z"/>
		<path class="st7" d="M2380.1,2375.2l-1,31.2c-0.1,2.2,0.4,3.8,1.4,4.8s2.8,1.5,5.2,1.6l7.6,0.2l-0.4,13.7l-10.2-0.3
			c-13.7-0.4-20.4-7.3-20-20.6l1-31l-7.7-0.2l0.4-13.4l7.7,0.2l0.5-15.9l16.4,0.5l-0.5,15.9l14.4,0.4l-0.4,13.4L2380.1,2375.2z"/>
		<path class="st7" d="M2459.2,2366.2c3.7-1.9,8-2.7,12.7-2.6c5.5,0.2,10.4,1.7,14.8,4.5s7.8,6.8,10.2,11.9
			c2.4,5.1,3.6,10.9,3.4,17.5c-0.2,6.6-1.7,12.4-4.4,17.4c-2.8,5-6.4,8.8-10.9,11.5s-9.6,3.9-15.1,3.7c-4.7-0.1-8.9-1.2-12.4-3.3
			c-3.5-2.1-6.4-4.6-8.6-7.6l-1.2,39.9l-16.3-0.5l2.9-95.1l16.3,0.5l-0.3,9.3C2452.5,2370.4,2455.4,2368,2459.2,2366.2z
			 M2481.6,2386.9c-1.5-2.9-3.5-5.1-6.1-6.6c-2.6-1.6-5.3-2.4-8.4-2.5c-2.9-0.1-5.7,0.6-8.4,2c-2.6,1.4-4.8,3.6-6.5,6.4
			c-1.7,2.8-2.6,6.2-2.7,10c-0.1,3.9,0.6,7.3,2.1,10.2s3.5,5.2,6.1,6.8s5.3,2.4,8.2,2.5c3,0.1,5.9-0.6,8.5-2.1s4.8-3.6,6.5-6.4
			c1.7-2.8,2.6-6.2,2.7-10.2C2483.8,2393.1,2483.1,2389.8,2481.6,2386.9z"/>
		<path class="st7" d="M2530.1,2344.8l-2.7,86l-16.3-0.5l2.7-86L2530.1,2344.8z"/>
		<path class="st7" d="M2606.3,2368.8l-2,64.4l-16.4-0.5l0.2-8.1c-2.2,2.7-5,4.8-8.4,6.3c-3.4,1.5-7.1,2.2-11.1,2
			c-5-0.2-9.5-1.4-13.3-3.6s-6.8-5.5-8.8-9.7s-3-9.2-2.9-14.9l1.2-37.8l16.3,0.5l-1.1,35.5c-0.2,5.1,1,9.1,3.5,11.9
			c2.5,2.8,5.9,4.3,10.3,4.4c4.5,0.1,8.1-1.1,10.7-3.8c2.6-2.7,4-6.6,4.2-11.7l1.1-35.5L2606.3,2368.8z"/>
		<path class="st7" d="M2630.9,2432.2c-4.1-2-7.4-4.7-9.7-8c-2.3-3.3-3.6-7-3.7-10.9l16.4,0.5c0.2,2.5,1.4,4.6,3.5,6.3
			c2.1,1.7,4.7,2.6,7.9,2.7c3.1,0.1,5.5-0.4,7.3-1.6c1.8-1.2,2.7-2.8,2.8-4.7c0.1-2.1-0.9-3.7-3.1-4.8s-5.5-2.4-10.1-3.8
			c-4.8-1.3-8.7-2.6-11.7-4c-3-1.3-5.6-3.3-7.7-5.9c-2.1-2.6-3.1-6.1-3-10.4c0.1-3.6,1.2-6.8,3.4-9.7s5.2-5.1,9.1-6.7
			c3.9-1.6,8.4-2.3,13.6-2.1c7.7,0.2,13.7,2.4,18.2,6.3s6.8,9.2,7.1,15.8l-15.6-0.5c-0.1-2.6-1.2-4.6-3-6.2s-4.4-2.4-7.6-2.5
			c-2.9-0.1-5.2,0.4-6.9,1.4s-2.5,2.5-2.5,4.5c-0.1,2.2,1,3.9,3.1,5c2.1,1.2,5.5,2.4,10,3.7c4.6,1.3,8.4,2.6,11.4,4
			c3,1.3,5.5,3.3,7.7,6c2.1,2.7,3.2,6.1,3.1,10.4c-0.1,3.7-1.2,7-3.4,9.9c-2.1,2.9-5.2,5.1-9.1,6.6c-3.9,1.6-8.4,2.2-13.5,2.1
			C2639.7,2435.4,2635,2434.3,2630.9,2432.2z"/>
		<path class="st7" d="M2712.6,2386.8c2.8-5,6.4-8.7,11-11.3c4.6-2.6,9.6-3.8,15.1-3.6c4.2,0.1,8.1,1.2,11.9,3.1
			c3.7,1.9,6.7,4.5,8.8,7.6l0.9-30.6l16.5,0.5l-2.7,86l-16.5-0.5l0.3-9.5c-2.1,3.1-5,5.6-8.7,7.4c-3.7,1.8-8,2.7-12.8,2.5
			c-5.4-0.2-10.3-1.7-14.8-4.6s-7.8-7-10.3-12.1s-3.6-11-3.4-17.6C2708.4,2397.5,2709.9,2391.7,2712.6,2386.8z M2756.9,2395.6
			c-1.5-2.9-3.5-5.1-6.1-6.7c-2.6-1.6-5.4-2.4-8.4-2.5s-5.8,0.6-8.4,1.9c-2.6,1.4-4.8,3.5-6.4,6.3c-1.7,2.8-2.6,6.1-2.7,10
			c-0.1,3.9,0.6,7.3,2.1,10.2s3.5,5.2,6.1,6.9s5.3,2.5,8.2,2.6c3,0.1,5.9-0.6,8.6-2c2.7-1.4,4.8-3.5,6.5-6.3
			c1.6-2.8,2.5-6.1,2.6-10.1S2758.3,2398.4,2756.9,2395.6z"/>
		<path class="st7" d="M2808.5,2375.1l-2,64.4l-16.3-0.5l2-64.4L2808.5,2375.1z M2793.6,2364.2c-1.8-1.9-2.7-4.2-2.6-6.9
			s1.1-4.9,3.1-6.7s4.4-2.6,7.2-2.5c2.9,0.1,5.2,1.1,7.1,2.9c1.8,1.9,2.7,4.2,2.6,6.9s-1.1,4.9-3.1,6.7s-4.4,2.6-7.2,2.5
			C2797.8,2367.1,2795.5,2366.1,2793.6,2364.2z"/>
		<path class="st7" d="M2833.1,2438.5c-4.1-2-7.4-4.7-9.7-8c-2.3-3.3-3.6-7-3.7-10.9l16.4,0.5c0.2,2.5,1.4,4.6,3.5,6.3
			c2.1,1.7,4.7,2.6,7.9,2.7c3.1,0.1,5.5-0.4,7.3-1.6c1.8-1.2,2.7-2.8,2.8-4.7c0.1-2.1-0.9-3.7-3.1-4.8s-5.5-2.4-10.1-3.8
			c-4.8-1.3-8.7-2.6-11.7-4c-3-1.3-5.6-3.3-7.7-5.9c-2.1-2.6-3.1-6.1-3-10.4c0.1-3.6,1.2-6.8,3.4-9.7s5.2-5.1,9.1-6.7
			c3.9-1.6,8.4-2.3,13.6-2.1c7.7,0.2,13.7,2.4,18.2,6.3s6.8,9.2,7.1,15.8l-15.6-0.5c-0.1-2.6-1.2-4.6-3-6.2s-4.4-2.4-7.6-2.5
			c-2.9-0.1-5.2,0.4-6.9,1.4s-2.5,2.5-2.5,4.5c-0.1,2.2,1,3.9,3.1,5c2.1,1.2,5.5,2.4,10,3.7c4.6,1.3,8.4,2.6,11.4,4
			c3,1.3,5.5,3.3,7.7,6c2.1,2.7,3.2,6.1,3.1,10.4c-0.1,3.7-1.2,7-3.4,9.9c-2.1,2.9-5.2,5.1-9.1,6.6s-8.4,2.2-13.5,2.1
			C2841.9,2441.6,2837.2,2440.6,2833.1,2438.5z"/>
		<path class="st7" d="M2912.8,2380.2c3.7-1.9,8-2.7,12.7-2.6c5.5,0.2,10.4,1.7,14.8,4.5s7.8,6.8,10.2,11.9
			c2.4,5.1,3.6,10.9,3.4,17.5c-0.2,6.6-1.7,12.4-4.4,17.4c-2.8,5-6.4,8.8-10.9,11.5c-4.5,2.6-9.6,3.9-15.1,3.7
			c-4.7-0.1-8.9-1.2-12.4-3.3c-3.5-2.1-6.4-4.6-8.6-7.6l-1.2,39.9l-16.3-0.5l2.9-95.1l16.3,0.5l-0.3,9.3
			C2906.1,2384.5,2909,2382.1,2912.8,2380.2z M2935.2,2401c-1.5-2.9-3.5-5.1-6.1-6.6c-2.6-1.6-5.3-2.4-8.4-2.5
			c-2.9-0.1-5.7,0.6-8.4,2c-2.6,1.4-4.8,3.6-6.5,6.4c-1.7,2.8-2.6,6.2-2.7,10c-0.1,3.9,0.6,7.3,2.1,10.2c1.5,2.9,3.5,5.2,6.1,6.8
			s5.3,2.4,8.2,2.5c3,0.1,5.9-0.6,8.5-2.1s4.8-3.6,6.5-6.4c1.7-2.8,2.6-6.2,2.7-10.2C2937.4,2407.2,2936.7,2403.8,2935.2,2401z"/>
		<path class="st7" d="M2976.7,2441.7c-4.9-2.9-8.6-6.9-11.3-12.1c-2.7-5.1-3.9-11-3.7-17.6c0.2-6.6,1.8-12.4,4.9-17.3
			c3.1-4.9,7.1-8.7,12.3-11.3c5.1-2.6,10.8-3.8,17-3.6c6.2,0.2,11.8,1.7,16.7,4.6s8.8,6.9,11.6,12.1c2.8,5.1,4,11,3.8,17.6
			s-1.9,12.4-5,17.3c-3.1,4.9-7.3,8.7-12.5,11.3c-5.2,2.6-10.9,3.8-17.2,3.6C2987.1,2446.2,2981.6,2444.6,2976.7,2441.7z
			 M3002.1,2430.3c2.6-1.4,4.8-3.4,6.4-6.3s2.5-6.3,2.6-10.4c0.2-6.1-1.3-10.9-4.4-14.3c-3.1-3.4-7-5.2-11.6-5.3
			c-4.6-0.1-8.6,1.4-11.8,4.6c-3.2,3.2-5,7.9-5.1,14c-0.2,6.1,1.2,10.9,4.1,14.3c3,3.4,6.8,5.2,11.4,5.3
			C2996.7,2432.3,2999.5,2431.6,3002.1,2430.3z"/>
		<path class="st7" d="M3095,2390.3c4.6,5,6.7,11.8,6.5,20.5l-1.2,37.8l-16.3-0.5l1.1-35.6c0.2-5.1-1-9.1-3.5-11.9
			c-2.5-2.8-5.9-4.3-10.3-4.4c-4.5-0.1-8.1,1.1-10.8,3.8c-2.7,2.7-4.1,6.6-4.3,11.7l-1.1,35.6l-16.3-0.5l2-64.4l16.3,0.5l-0.2,8
			c2.3-2.7,5.1-4.8,8.5-6.3s7.1-2.2,11.2-2C3084.3,2382.7,3090.4,2385.3,3095,2390.3z"/>
		<path class="st7" d="M3134.1,2385.2l-2,64.4l-16.3-0.5l2-64.4L3134.1,2385.2z M3119.2,2374.3c-1.8-1.9-2.7-4.2-2.6-6.9
			s1.1-4.9,3.1-6.7s4.4-2.6,7.2-2.5c2.9,0.1,5.2,1.1,7.1,2.9c1.8,1.9,2.7,4.2,2.6,6.9s-1.1,4.9-3.1,6.7s-4.4,2.6-7.2,2.5
			C3123.4,2377.2,3121,2376.2,3119.2,2374.3z"/>
		<path class="st7" d="M3175,2388.3c3.7-1.8,8-2.7,12.7-2.5c5.5,0.2,10.4,1.7,14.8,4.5s7.8,6.8,10.2,11.9c2.4,5.1,3.6,10.9,3.4,17.5
			c-0.2,6.6-1.7,12.4-4.4,17.4c-2.8,5-6.4,8.8-10.9,11.5c-4.5,2.6-9.6,3.9-15.1,3.7c-4.8-0.1-9-1.2-12.5-3.2c-3.5-2-6.4-4.6-8.4-7.6
			l-0.3,9.2l-16.3-0.5l2.7-86l16.3,0.5l-1,31.1C3168.3,2392.6,3171.2,2390.1,3175,2388.3z M3197.4,2409.1c-1.5-2.9-3.5-5.1-6.1-6.6
			c-2.6-1.6-5.3-2.4-8.4-2.5c-2.9-0.1-5.7,0.6-8.4,2c-2.6,1.4-4.8,3.6-6.5,6.4c-1.7,2.8-2.6,6.2-2.7,10c-0.1,3.9,0.6,7.3,2.1,10.2
			c1.5,2.9,3.5,5.2,6.1,6.8s5.3,2.4,8.2,2.5c3,0.1,5.9-0.6,8.5-2.1s4.8-3.6,6.5-6.4c1.7-2.8,2.6-6.2,2.7-10.2
			C3199.6,2415.4,3198.9,2412,3197.4,2409.1z"/>
		<path class="st7" d="M3245.9,2367l-2.7,86l-16.3-0.5l2.7-86L3245.9,2367z"/>
		<path class="st7" d="M3319.5,2428.1l-47.1-1.5c0.2,4.7,1.8,8.4,4.5,11.1s6.3,4.1,10.5,4.3c6.1,0.2,10.4-2.3,13.1-7.4l17.6,0.5
			c-2.1,6.1-5.8,11.1-11.2,15c-5.4,3.8-11.9,5.6-19.6,5.4c-6.2-0.2-11.7-1.7-16.6-4.6c-4.8-2.9-8.6-6.9-11.1-12
			c-2.6-5.1-3.8-11-3.6-17.6c0.2-6.7,1.7-12.5,4.6-17.4c2.9-4.9,6.8-8.7,11.8-11.3s10.6-3.7,17-3.6c6.1,0.2,11.6,1.7,16.3,4.5
			c4.8,2.8,8.4,6.6,10.9,11.6c2.5,4.9,3.7,10.5,3.5,16.8C3320.1,2424.1,3319.9,2426.2,3319.5,2428.1z M3303.5,2416.6
			c0.1-4.2-1.4-7.6-4.2-10.2c-2.9-2.6-6.4-4-10.7-4.1c-4-0.1-7.5,1-10.3,3.4s-4.6,5.7-5.4,10L3303.5,2416.6z"/>
		<path class="st7" d="M3331,2453.9c-1.8-1.9-2.7-4.2-2.6-6.9s1.1-4.9,3.1-6.7s4.4-2.6,7.4-2.5c2.9,0.1,5.2,1.1,7,2.9
			c1.8,1.9,2.7,4.2,2.6,6.9c-0.1,2.7-1.1,4.9-3,6.7c-1.9,1.8-4.3,2.6-7.2,2.5C3335.2,2456.7,3332.8,2455.8,3331,2453.9z"/>
	</g>
	<g>
		<path class="st3" d="M1783.5,1690.1l-196.2,24.2l10.7,86.8c7.2-10.3,18.1-19.2,32.4-27c14.4-7.7,30.4-12.7,48-14.8
			c31.5-3.9,58.4,0,80.9,11.7c22.5,11.7,40,28.3,52.4,49.7c12.4,21.5,20.3,45.4,23.5,71.8c6,49.1-3,89.7-27.1,121.8
			c-24.1,32.1-61.4,51.3-111.7,57.5c-33.6,4.1-63.4,2-89.6-6.5c-26.2-8.5-47.2-22.2-63.2-41.1c-16-18.9-26.2-41.7-30.8-68.4
			l105-12.9c4.1,12.7,11.5,22.7,22.2,30.1c10.7,7.4,24.4,10.1,41.2,8c19.7-2.4,33.6-10.5,41.7-24.3c8.1-13.8,10.9-31.1,8.3-52.1
			c-2.5-20.5-9.5-35.6-20.9-45.3c-11.4-9.7-26.8-13.3-46-10.9c-14.3,1.8-25.6,6.7-33.9,14.7c-8.4,8.1-13.3,17.9-14.9,29.6
			l-103.8,12.8l-33.7-273.6l293.7-36.2L1783.5,1690.1z"/>
		<path class="st3" d="M1905.3,1633.6c22.8-44.9,65.2-71.2,127.3-78.9c62.1-7.6,109.6,7.6,142.6,45.7c33,38.1,53.9,93.2,62.8,165.3
			c9,73,2.1,131.9-20.7,176.9c-22.8,45-65.2,71.2-127.2,78.9c-62.1,7.6-109.6-7.6-142.6-45.7c-33-38.1-54-93.6-63-166.6
			C1875.5,1737.1,1882.5,1678.5,1905.3,1633.6z M2106.4,1682.6c-12-21.7-32.5-30.8-61.5-27.2c-28.9,3.6-46.6,17.3-53,41.3
			c-6.4,24-7,57.2-1.8,99.5c3.5,28.5,8.1,51.9,13.7,70.1c5.7,18.3,14.3,32.5,26,42.8c11.7,10.3,27.6,14.2,47.7,11.7
			c20.1-2.5,34.6-10.1,43.5-22.9c8.8-12.8,13.8-28.7,14.9-47.8c1.1-19.1-0.2-42.9-3.7-71.4C2127,1736.3,2118.4,1704.3,2106.4,1682.6
			z"/>
		<path class="st3" d="M2314.7,1583.1c22.8-44.9,65.2-71.2,127.2-78.9c62.1-7.6,109.6,7.6,142.6,45.7c33,38.1,53.9,93.2,62.8,165.3
			c9,73,2.1,131.9-20.7,176.9c-22.8,45-65.2,71.2-127.3,78.9c-62.1,7.6-109.6-7.6-142.6-45.7c-33-38.1-54-93.6-63-166.6
			C2285,1686.6,2292,1628.1,2314.7,1583.1z M2515.8,1632.1c-12-21.7-32.5-30.8-61.5-27.2c-28.9,3.6-46.6,17.3-53,41.3
			c-6.4,24-7,57.2-1.8,99.5c3.5,28.5,8.1,51.9,13.7,70.1c5.7,18.3,14.3,32.5,26,42.8c11.7,10.3,27.6,14.2,47.7,11.7
			c20.1-2.5,34.6-10.1,43.5-22.9c8.9-12.8,13.8-28.7,14.9-47.8c1.1-19.1-0.2-42.9-3.7-71.4
			C2536.5,1685.9,2527.9,1653.8,2515.8,1632.1z"/>
	</g>
</g>
</svg>
