<svg version="1.2" xmlns="http://www.w3.org/2000/svg" viewBox="0 0 300 90" width="300" height="90"><style>.a{fill:#3453a1}</style><path class="a" d="m47.4 29.4v32.7h6.6v-32.7zm3 5.1h-1.4v-1.4h1.4zm0-2.1h-1.4v-1.4h1.4zm2.1 2.1h-1.4v-1.5h1.4zm0-2h-1.4v-1.4h1.4z"/><path class="a" d="m73.1 42.1c0 7-5.7 12.7-12.7 12.7h-4.6v-6.4h4.7c3.5 0 6.3-2.9 6.3-6.3 0-3.5-2.8-6.3-6.3-6.3h-4.7v-6.4h4.6c7 0 12.7 5.7 12.7 12.7z"/><path fill-rule="evenodd" class="a" d="m52.4 27.8v0.6h-6.1v6.1h-0.6v-6.7z"/><path class="a" d="m31.8 55.6c-0.4 0.4-0.7 1-1 1.5 0.4-0.2 0.7-0.4 1-0.7 0.5-0.4 1.1-0.7 1.9-0.8q0.3 0 0.5 0 1 0 1.9 0h7.2c0.2 0 0.4 0.3 0.4 0.5v6h-22.6v-0.5q0.1-1.5 0.6-2.9c0.7-2.1 1.9-4 3.7-6.1 1.8-1.9 3.7-3.6 5.6-5.4l0.2-0.2q0.2-0.3 0.5-0.5c1.2-1.1 2.6-2.3 3.6-3.7 1.1-1.4 1.5-3 1.2-4.5 0-0.6-0.3-1.1-0.6-1.6-0.6-0.8-1.5-1.2-2.8-1.3q-0.8-0.1-1.6 0.2c0.5-0.6 0.9-1 1.3-1.5-1.4 0.6-2.6 1.7-3.2 2.9q0 0.1-0.1 0.1 0 0.1-0.1 0.2 0 0.1-0.1 0.1-0.2 0.6-0.3 1.3-0.1 0.4-0.1 0.8 0 0.2-0.1 0.5l-0.1 0.4-6.5-0.7c-0.2 0-0.4-0.2-0.4-0.5q0-0.3 0.1-0.6c0.1-0.4 0.1-0.8 0.2-1.2 0.5-2.4 1.4-4 2.9-5.2 1.3-1.2 3.1-2.1 5.2-2.4q3.7-0.8 7.1 0.3c4 1.3 6.6 4.8 6.4 9-0.1 2.5-1 4.9-2.8 7.3-1.2 1.6-2.6 2.9-3.9 4.2l-0.2 0.1q-0.6 0.5-1.1 1-0.8 0.8-1.7 1.6-0.6 0.5-1.2 1.1c-0.3 0.4-0.6 0.8-1 1.2z"/><path class="a" d="m89.2 44.9c0 21.9-19.2 39.8-43.1 39.9 21.9-2.2 38.6-19.2 38.6-39.9 0-20.6-16.7-37.6-38.6-39.8 23.9 0.2 43.1 17.9 43.1 39.8z"/><path class="a" d="m46.7 81.7c8.7 0 17.3-3.1 23.9-8.9-7.2 7.1-16.8 11-26.9 11-21.1 0-38.2-16.9-38.8-37.8q0-0.3 0-0.5 0-0.3 0-0.6 0-0.2 0-0.4 0-0.3 0-0.6c0.6-20.9 17.7-37.7 38.8-37.7 10.1-0.1 19.7 3.8 26.9 10.8-6.6-5.7-15.2-8.8-23.9-8.8-20.4 0-36.8 16.5-36.8 36.7 0 20.4 16.4 36.8 36.8 36.8z"/><path class="a" d="m103.3 30.9v7.8h-5.3v-22.1h8.6q4 0 6 1.9 2.1 2 2.1 5.3 0 2.1-0.9 3.6-0.9 1.6-2.7 2.6-1.8 0.9-4.5 0.9zm6-7.1q0-2.9-3.3-2.9h-2.7v5.7h2.7q3.3 0 3.3-2.8z"/><path class="a" d="m127.4 21.9q1.4 0.9 2.1 2.5v-3.2h5.3v17.4h-5.3v-3.1q-0.7 1.5-2.1 2.4-1.5 1-3.4 0.9-2.2 0-3.9-1.1-1.7-1-2.7-3c-0.6-1.4-1-3-1-4.8q0-2.8 1-4.8 1-2 2.7-3.1 1.7-1.1 3.9-1.1 1.9 0.1 3.4 1zm-4.5 4.9q-1 1.2-1 3.1 0 2 1 3.2 1.1 1.1 2.7 1.1 1.7 0 2.8-1.2 1.1-1.1 1.1-3.1 0-1.9-1.1-3.1c-0.7-0.8-1.6-1.1-2.8-1.1q-1.6 0-2.7 1.1z"/><path class="a" d="m146.4 22q1.6-1 3.4-1v5.8h-1.5q-2.1 0-3.3 0.9-1.2 0.9-1.2 3v7.9h-5.3v-17.4h5.3v3.3q1-1.6 2.6-2.5z"/><path class="a" d="m162 34.1v4.5h-2.5q-3 0-4.7-1.5-1.7-1.5-1.7-5v-6.4h-2.3v-4.5h2.3v-4.3h5.4v4.3h3.4v4.5h-3.4v6.5q0 1 0.4 1.5 0.4 0.4 1.4 0.4z"/><path class="a" d="m165.4 14.3c0.5-0.5 1.3-0.8 2.2-0.8q1.5 0 2.4 0.8c0.5 0.5 0.8 1.2 0.8 2q0 1.2-0.8 2-0.9 0.8-2.4 0.8-1.4 0-2.2-0.8-0.9-0.8-0.9-2 0-1.2 0.9-2zm4.9 6.9v17.4h-5.4v-17.4z"/><path class="a" d="m187.5 22.9q2.3 1.8 2.9 5.1h-5.7c-0.1-0.8-0.4-1.4-1-1.8q-0.8-0.6-2-0.6-1.3 0-2.2 1.1-1 1.1-0.9 3.2-0.1 2.2 0.9 3.3 0.9 1.1 2.2 1.1 1.2 0 2-0.6c0.6-0.5 0.9-1.1 1-1.8h5.7q-0.6 3.3-2.9 5.1-2.3 1.9-5.6 1.9-2.6 0-4.6-1.1-2-1.1-3.1-3.1c-0.7-1.4-1.1-3-1.1-4.8q0-2.7 1.1-4.8 1.1-1.9 3.1-3 2-1.1 4.6-1.1 3.3 0 5.6 1.9z"/><path class="a" d="m210.5 21.2v17.4h-5.4v-3.1c-0.4 1-1.2 1.8-2.2 2.4q-1.5 1-3.5 0.9-2.9 0-4.7-2-1.8-1.9-1.8-5.5v-10.1h5.3v9.5q0 1.8 0.9 2.7 0.9 1 2.6 1 1.6 0 2.5-1 0.9-1.1 0.9-3v-9.2h5.4z"/><path fill-rule="evenodd" class="a" d="m219.5 15.5v23.1h-5.3v-23.1z"/><path class="a" d="m223.6 14.3c0.6-0.5 1.3-0.8 2.3-0.8q1.4 0 2.3 0.8c0.6 0.5 0.9 1.2 0.9 2q0 1.2-0.9 2-0.9 0.8-2.3 0.8-1.4 0-2.3-0.8-0.9-0.8-0.9-2 0-1.2 0.9-2zm5 6.9v17.4h-5.3v-17.4z"/><path class="a" d="m248.6 30.9h-12q0.1 2 1 2.8 0.9 0.9 2.3 0.9 1.2 0 2-0.6c0.5-0.4 0.8-0.9 1-1.5h5.6q-0.3 1.8-1.5 3.3-1.1 1.4-2.9 2.2c-1.2 0.6-2.5 0.9-4 0.9q-2.6 0-4.5-1.1-2-1.1-3.1-3.1c-0.8-1.4-1.1-3-1.1-4.8q0-2.7 1.1-4.8 1.1-1.9 3.1-3 2-1.1 4.5-1.1 2.7 0 4.6 1.1 2 1 3 2.9c0.8 1.3 1.1 2.8 1.1 4.5q0 0.6-0.2 1.4zm-6.1-4.8q-0.9-0.9-2.4-0.9-1.4 0-2.4 0.9-1 0.8-1.1 2.6h6.8q0-1.8-0.9-2.6z"/><path class="a" d="m259.5 22q1.6-1 3.4-1v5.8h-1.5q-2.1 0-3.3 0.9-1.2 0.9-1.2 3v7.9h-5.3v-17.4h5.3v3.3q1-1.6 2.6-2.5z"/><path class="a" d="m108.1 59.4q1.4 1 2.1 2.5v-3.2h5.3v17.4h-5.3v-3.1q-0.7 1.6-2.1 2.5-1.5 0.9-3.5 0.9-2.1 0-3.9-1.1-1.6-1.1-2.7-3.1c-0.6-1.4-0.9-3-0.9-4.8q0-2.7 0.9-4.8 1.1-1.9 2.7-3 1.8-1.1 3.9-1.1 2 0 3.5 0.9zm1.2-5.5v3.6l-7.5-3.2v-4.1zm-5.7 10.5q-1.1 1.2-1.1 3.1 0 2 1.1 3.2 1 1.1 2.7 1.1 1.7 0 2.8-1.1 1.1-1.2 1.1-3.2 0-1.9-1.1-3.1c-0.7-0.8-1.7-1.1-2.8-1.1q-1.7 0-2.7 1.1z"/><path class="a" d="m130.7 68.4v7.8h-5.3v-22.1h8.7q3.9 0 6 1.9 2 2 2 5.3 0 2.1-0.9 3.7c-0.6 1-1.5 1.9-2.7 2.5q-1.8 0.9-4.4 0.9zm5.9-7.1q0-2.9-3.2-2.9h-2.7v5.7h2.7q3.2 0 3.2-2.8z"/><path class="a" d="m154.8 59.4q1.4 1 2.2 2.5v-3.2h5.2v17.4h-5.2v-3.1q-0.8 1.6-2.2 2.5-1.4 0.9-3.4 0.9-2.2 0-3.9-1.1-1.7-1.1-2.7-3.1c-0.6-1.4-0.9-3-0.9-4.8q0-2.7 0.9-4.8 1-1.9 2.7-3 1.7-1.1 3.9-1.1 2 0 3.4 0.9zm-4.4 4.9q-1.1 1.2-1.1 3.1 0 2.1 1.1 3.2 1 1.1 2.7 1.1 1.7 0 2.7-1.1 1.1-1.2 1.2-3.2-0.1-1.9-1.2-3.1c-0.6-0.7-1.6-1.1-2.7-1.1q-1.7 0-2.7 1.1z"/><path class="a" d="m173.9 59.5q1.5-0.9 3.4-0.9v5.7h-1.6q-2.1 0-3.3 0.9-1.2 0.9-1.2 3v7.9h-5.3v-17.4h5.3v3.3q1.1-1.6 2.7-2.5z"/><path class="a" d="m189.4 71.6v4.6h-2.4q-3.1 0-4.8-1.6-1.7-1.5-1.7-4.9v-6.5h-2.4v-4.5h2.4v-4.3h5.3v4.3h3.6v4.5h-3.6v6.5q0 1 0.4 1.5 0.5 0.4 1.5 0.4z"/><path class="a" d="m192.8 51.8c0.6-0.5 1.4-0.8 2.3-0.8q1.4 0 2.3 0.8c0.5 0.5 0.8 1.2 0.8 2q0 1.2-0.8 2-0.9 0.8-2.3 0.8-1.5 0-2.3-0.8-0.9-0.8-0.9-2 0-1.2 0.9-2zm5 6.9v17.5h-5.4v-17.5z"/><path class="a" d="m215 60.4q2.3 1.8 2.9 5.1h-5.7c-0.2-0.8-0.5-1.3-1.1-1.7q-0.7-0.7-1.9-0.7-1.4 0-2.3 1.2-0.9 1-0.9 3.2 0 2.1 0.9 3.2 0.9 1.1 2.3 1.1 1.2 0 1.9-0.6c0.6-0.5 0.9-1 1.1-1.8h5.7q-0.6 3.3-2.9 5.2-2.3 1.8-5.7 1.8-2.5 0-4.5-1.1-2-1-3.1-3.1c-0.8-1.3-1.2-2.9-1.2-4.8q0-2.7 1.2-4.7 1-2 3.1-3.1 2-1.1 4.5-1.1 3.4 0 5.7 1.9z"/><path class="a" d="m238 58.7v17.5h-5.4v-3.2c-0.5 1-1.2 1.8-2.3 2.5q-1.5 0.9-3.4 0.9c-2 0-3.6-0.7-4.8-2.1q-1.7-1.9-1.7-5.4v-10.2h5.3v9.5q0 1.8 0.9 2.8 1 1 2.5 0.9 1.6 0 2.6-1 0.9-1 0.9-2.9v-9.3h5.4z"/><path fill-rule="evenodd" class="a" d="m247 53v23.2h-5.4v-23.2z"/><path class="a" d="m251 51.8c0.6-0.5 1.4-0.8 2.3-0.8q1.5 0 2.4 0.8c0.5 0.5 0.8 1.2 0.8 2q0 1.2-0.8 2-0.9 0.8-2.4 0.8-1.4 0-2.3-0.8-0.9-0.8-0.9-2 0-1.2 0.9-2zm5 6.9v17.5h-5.3v-17.5z"/><path class="a" d="m276.1 68.4h-12.1q0.1 2 1 2.8 0.9 0.9 2.3 0.9 1.2 0 2-0.6c0.5-0.4 0.8-0.9 1-1.5h5.7q-0.4 1.8-1.5 3.3-1.2 1.4-2.9 2.2c-1.2 0.6-2.6 0.9-4 0.9q-2.6 0-4.6-1.1-1.9-1.1-3.1-3.1c-0.7-1.4-1.1-3-1.1-4.8q0-2.7 1.1-4.8 1.2-1.9 3.1-3 2-1.1 4.6-1.1 2.6 0 4.6 1.1 1.9 1.1 3 2.9c0.7 1.3 1 2.8 1 4.5q0 0.7-0.1 1.4zm-6.2-4.8q-0.9-0.8-2.3-0.8-1.5 0-2.5 0.8-0.9 0.9-1.1 2.6h6.8c0.1-1.2-0.3-2-0.9-2.6z"/><path class="a" d="m287 59.5q1.5-0.9 3.4-0.9v5.7h-1.6q-2.1 0-3.3 0.9-1.2 0.9-1.1 3v7.9h-5.4v-17.4h5.4v3.3q1-1.6 2.6-2.5z"/></svg>