<svg version="1.2" xmlns="http://www.w3.org/2000/svg" viewBox="0 0 500 150" width="500" height="150"><style>.a{fill:#fff}.b{fill:#3453a1}</style><path class="a" d="m79 49v54.5h11v-54.5zm5 8.5h-2.3v-2.4h2.3zm0-3.4h-2.3v-2.4h2.3zm3.5 3.5h-2.4v-2.4h2.4zm0-3.4h-2.4v-2.4h2.4z"/><path class="a" d="m121.8 70.2c0 11.7-9.5 21.2-21.2 21.2h-7.6v-10.8h7.9c5.8 0 10.5-4.7 10.5-10.5 0-5.8-4.7-10.4-10.5-10.4h-7.9v-10.7h7.6c11.7 0 21.2 9.5 21.2 21.2z"/><path fill-rule="evenodd" class="a" d="m87.4 46.3v1h-10.2v10.2h-1v-11.2z"/><path class="a" d="m53 92.7c-0.7 0.7-1.2 1.6-1.6 2.4 0.6-0.3 1.1-0.6 1.6-1.1 0.9-0.7 1.9-1.1 3.1-1.3q0.5 0 0.9 0 1.6 0 3.2 0h11.9c0.4 0 0.7 0.4 0.7 0.8v10h-37.6v-0.8q0.2-2.5 1-4.8c1.1-3.5 3.1-6.7 6.2-10.2 2.9-3.2 6.1-6.1 9.2-9l0.4-0.4q0.4-0.4 0.8-0.8c2.1-1.9 4.3-3.9 6-6.1 1.9-2.4 2.6-5 2.1-7.6-0.1-0.9-0.5-1.8-1-2.6-1-1.4-2.6-2.1-4.7-2.2-0.9-0.1-1.8 0-2.7 0.3 0.8-0.9 1.5-1.6 2.1-2.4-2.3 0.9-4.2 2.7-5.3 4.8q0 0.1-0.1 0.1-0.1 0.2-0.2 0.4 0 0.1-0.1 0.2-0.4 1-0.6 2.1-0.1 0.7-0.2 1.4 0 0.3-0.1 0.7l-0.1 0.7-10.9-1.1c-0.4 0-0.7-0.4-0.7-0.8q0 0 0 0 0.1-0.5 0.2-1c0.1-0.8 0.2-1.4 0.3-2.1 0.9-3.9 2.4-6.6 4.8-8.7 2.3-2 5.2-3.4 8.7-4 4.2-0.8 8.1-0.6 11.8 0.6 6.8 2.1 11 8 10.7 14.9-0.1 4.2-1.6 8.2-4.7 12.3-1.9 2.6-4.3 4.8-6.5 6.9l-0.2 0.2q-1 0.8-1.9 1.7-1.4 1.3-2.9 2.6-1 0.9-1.9 1.8c-0.6 0.7-1.1 1.4-1.7 2.1 0 0 0 0 0 0z"/><path class="a" d="m148.7 74.9c0 36.5-32.1 66.2-71.9 66.4 36.5-3.6 64.3-32 64.3-66.4 0-34.4-27.8-62.8-64.3-66.4 39.8 0.3 71.9 29.9 71.9 66.4z"/><path class="a" d="m77.8 136.2c14.6 0 28.8-5.2 39.9-14.8-12 11.7-28.1 18.2-44.9 18.2-35.1 0-63.7-28.1-64.6-63 0-0.3 0-0.6 0-0.8q0-0.5 0-0.9 0-0.4 0-0.8c0-0.3 0-0.6 0-0.9 0.9-34.9 29.5-62.9 64.6-62.9 16.8-0.1 32.8 6.4 44.9 18.1-11.1-9.6-25.3-14.8-39.9-14.8-33.9 0-61.3 27.5-61.3 61.3 0 33.9 27.4 61.3 61.3 61.3z"/><filter id="f0"><feFlood flood-color="#ffffff" flood-opacity="1" /><feBlend mode="normal" in2="SourceGraphic"/><feComposite in2="SourceAlpha" operator="in" /></filter><g filter="url(#f0)"><path class="b" d="m172.2 51.5v13h-8.9v-36.9h14.4q6.6 0 10 3.2 3.5 3.3 3.5 8.8 0 3.5-1.6 6.1c-1 1.8-2.5 3.2-4.5 4.3q-3 1.5-7.4 1.5h-5.5zm9.9-11.9q0-4.8-5.4-4.8h-4.5v9.6h4.5q5.4-0.1 5.4-4.8z"/><path class="b" d="m212.3 36.5q2.4 1.5 3.6 4.1v-5.3h8.8v29.1h-8.8v-5.3q-1.2 2.6-3.6 4.1-2.4 1.6-5.7 1.5-3.6 0-6.5-1.8-2.8-1.7-4.4-5.1c-1.1-2.3-1.7-4.9-1.7-8q0-4.6 1.7-7.9 1.6-3.4 4.4-5.2 2.9-1.8 6.5-1.8 3.3 0.1 5.7 1.6zm-7.5 8.2q-1.7 1.9-1.7 5.2 0 3.3 1.7 5.2 1.8 1.9 4.6 1.9 2.8 0 4.6-2 1.8-1.9 1.8-5.1 0-3.3-1.8-5.2c-1.2-1.3-2.7-1.9-4.6-1.9q-2.8 0-4.6 1.9z"/><path class="b" d="m244 36.6q2.7-1.6 5.7-1.6v9.6h-2.5q-3.6 0-5.5 1.5-2 1.5-2 5.1v13.2h-8.9v-29.1h8.9v5.5q1.7-2.6 4.3-4.2z"/><path class="b" d="m270 56.8v7.6h-4.1q-5.1 0-7.9-2.5-2.8-2.5-2.8-8.4v-10.7h-3.9v-7.5h3.9v-7.1h8.9v7.2h5.8v7.5h-5.8v10.8q0 1.7 0.7 2.4 0.7 0.7 2.3 0.7z"/><path class="b" d="m275.6 23.8c0.9-0.8 2.3-1.3 3.8-1.3q2.4 0 3.9 1.3c0.9 0.9 1.4 2 1.4 3.4q0 1.9-1.4 3.3c-1 0.9-2.3 1.3-3.9 1.3q-2.4 0-3.8-1.3-1.5-1.3-1.5-3.3c0-1.4 0.5-2.5 1.5-3.4zm8.2 11.6v29h-8.9v-29z"/><path class="b" d="m312.5 38.1q3.8 3.1 4.8 8.5h-9.4c-0.3-1.2-0.8-2.2-1.7-2.9q-1.3-1-3.3-1-2.3 0-3.8 1.8-1.6 1.9-1.5 5.4-0.1 3.6 1.5 5.4 1.5 1.8 3.8 1.8 2 0 3.3-1c0.9-0.7 1.4-1.7 1.7-2.9h9.4q-1 5.4-4.8 8.5-3.8 3.1-9.4 3.1-4.3 0-7.6-1.8-3.3-1.8-5.1-5.2c-1.3-2.3-1.9-4.9-1.9-7.9q0-4.6 1.8-8 1.9-3.3 5.2-5.1 3.3-1.8 7.6-1.8 5.6 0 9.4 3.1z"/><path class="b" d="m350.9 35.4v29h-9v-5.2c-0.8 1.6-2.1 3-3.7 4q-2.5 1.6-5.8 1.5c-3.3 0-5.9-1.1-7.9-3.3q-3-3.3-3-9.2v-16.9h8.9v15.8q0 3 1.5 4.6c1 1.1 2.4 1.6 4.2 1.6q2.7 0 4.2-1.7 1.6-1.7 1.6-4.9v-15.4h9z"/><path fill-rule="evenodd" class="b" d="m365.9 25.9v38.5h-8.9v-38.5z"/><path class="b" d="m372.7 23.8c0.9-0.8 2.2-1.3 3.8-1.3q2.4 0 3.9 1.3c0.9 0.9 1.4 2 1.4 3.4q0 1.9-1.4 3.3c-1 0.9-2.3 1.3-3.9 1.3q-2.4 0-3.8-1.3-1.5-1.3-1.5-3.3c0-1.4 0.5-2.5 1.5-3.4zm8.3 11.6v29h-8.9v-29z"/><path class="b" d="m414.4 51.5h-20.1q0.2 3.3 1.7 4.7 1.5 1.5 3.8 1.5 2 0 3.3-1c0.9-0.7 1.4-1.5 1.7-2.6h9.4q-0.5 3.1-2.5 5.5-1.9 2.4-4.9 3.8c-1.9 1-4.2 1.4-6.6 1.4q-4.3 0-7.5-1.8-3.3-1.8-5.2-5.2c-1.3-2.3-1.9-4.9-1.9-7.9q0-4.6 1.9-8 1.8-3.3 5.1-5.1 3.4-1.8 7.6-1.8 4.4 0 7.6 1.8 3.3 1.7 5.1 4.9c1.2 2.2 1.8 4.6 1.8 7.4q0 1.1-0.3 2.4zm-10.2-8q-1.6-1.5-4-1.5-2.4 0-4 1.5-1.7 1.4-1.9 4.3h11.4c0-2-0.5-3.4-1.5-4.3z"/><path class="b" d="m432.5 36.6q2.7-1.6 5.7-1.6v9.6h-2.5q-3.6 0-5.5 1.5-2 1.5-2 5.1v13.2h-8.9v-29.1h8.9v5.5q1.7-2.6 4.3-4.2z"/><path class="b" d="m180.1 99q2.4 1.6 3.5 4.1v-5.2h8.9v29h-8.9v-5.2q-1.1 2.6-3.5 4.1c-1.6 1-3.5 1.5-5.7 1.5q-3.6 0-6.5-1.8-2.8-1.8-4.5-5.2c-1.1-2.3-1.6-4.9-1.6-7.9q0-4.6 1.6-8 1.7-3.3 4.5-5.1 2.9-1.8 6.5-1.8 3.3 0 5.7 1.5zm2.1-9.2v6l-12.6-5.3v-6.8zm-9.5 17.5q-1.8 1.9-1.8 5.2 0 3.3 1.8 5.2 1.7 1.9 4.6 1.9 2.8 0 4.6-1.9 1.8-2 1.8-5.2 0-3.3-1.8-5.2c-1.2-1.3-2.8-1.9-4.6-1.9q-2.9 0-4.6 1.9z"/><path class="b" d="m217.9 114v13h-8.9v-36.9h14.5q6.5 0 10 3.3 3.4 3.2 3.4 8.7 0 3.5-1.5 6.2c-1.1 1.7-2.6 3.2-4.6 4.2q-3 1.5-7.3 1.5zm9.9-11.8q0-4.9-5.4-4.9h-4.5v9.6h4.5q5.4 0 5.4-4.7z"/><path class="b" d="m258 99q2.4 1.6 3.6 4.1v-5.2h8.8v29h-8.8v-5.2q-1.2 2.6-3.6 4.1c-1.6 1-3.5 1.5-5.7 1.5q-3.6 0-6.4-1.8-2.9-1.8-4.5-5.2c-1.1-2.3-1.6-4.9-1.6-7.9q0-4.6 1.6-8 1.6-3.3 4.5-5.1 2.8-1.8 6.4-1.8 3.3 0 5.7 1.5zm-7.4 8.2q-1.8 1.9-1.8 5.2 0 3.4 1.8 5.2 1.7 1.9 4.6 1.9 2.8 0 4.5-1.9 1.8-1.9 1.9-5.2-0.1-3.2-1.9-5.2c-1.1-1.2-2.7-1.9-4.5-1.9q-2.9 0-4.6 1.9z"/><path class="b" d="m289.8 99.1q2.6-1.5 5.7-1.5v9.5h-2.6q-3.5 0-5.5 1.5-2 1.5-2 5.1v13.2h-8.9v-29h8.9v5.4q1.7-2.6 4.4-4.2z"/><path class="b" d="m315.7 119.3v7.7h-4.1q-5.1 0-7.9-2.6-2.8-2.5-2.9-8.3v-10.7h-3.9v-7.5h3.9v-7.2h8.9v7.2h5.9v7.5h-5.9v10.8q0 1.7 0.7 2.4 0.7 0.7 2.4 0.7h2.9z"/><path class="b" d="m321.3 86.4c1-0.9 2.3-1.4 3.8-1.4q2.4 0 3.9 1.4c0.9 0.8 1.4 2 1.4 3.3q0 2-1.4 3.3c-1 0.9-2.3 1.4-3.9 1.4q-2.4 0-3.8-1.4-1.4-1.3-1.5-3.3 0-2 1.5-3.3zm8.3 11.5v29.1h-8.9v-29.1z"/><path class="b" d="m358.3 100.6q3.8 3.1 4.8 8.6h-9.5c-0.3-1.3-0.8-2.2-1.7-2.9q-1.3-1.1-3.3-1.1-2.3 0-3.8 1.9-1.5 1.8-1.5 5.4 0 3.5 1.5 5.3 1.5 1.9 3.8 1.9 2 0 3.3-1.1c0.9-0.7 1.4-1.6 1.7-2.9h9.5q-1 5.4-4.8 8.6-3.8 3-9.5 3-4.2 0-7.5-1.8-3.3-1.7-5.2-5.2c-1.3-2.2-1.9-4.8-1.9-7.9q0-4.6 1.9-7.9 1.8-3.4 5.2-5.2 3.3-1.8 7.6-1.8 5.6 0 9.4 3.1z"/><path class="b" d="m396.6 97.9v29.1h-9v-5.3c-0.8 1.7-2 3-3.7 4.1q-2.5 1.5-5.8 1.5c-3.3 0-5.9-1.1-7.9-3.4q-2.9-3.3-2.9-9.1v-16.9h8.8v15.8q0 2.9 1.5 4.6c1.1 1.1 2.5 1.6 4.2 1.6q2.7 0 4.3-1.7 1.5-1.7 1.5-4.9v-15.5h9z"/><path fill-rule="evenodd" class="b" d="m411.6 88.4v38.6h-8.9v-38.6z"/><path class="b" d="m418.4 86.4c1-0.9 2.3-1.4 3.8-1.4q2.4 0 3.9 1.4c0.9 0.8 1.4 2 1.4 3.3q0 2-1.4 3.3c-1 0.9-2.3 1.4-3.9 1.4q-2.4 0-3.8-1.4-1.5-1.3-1.5-3.3 0-2 1.5-3.3zm8.3 11.5v29.1h-8.9v-29.1z"/><path class="b" d="m460.2 114h-20.2q0.2 3.3 1.7 4.7 1.5 1.5 3.8 1.5 2 0 3.3-1c0.9-0.7 1.4-1.5 1.7-2.6h9.5q-0.6 3.1-2.5 5.5-2 2.4-4.9 3.8c-2 1-4.2 1.4-6.6 1.4q-4.3 0-7.6-1.8-3.3-1.8-5.2-5.2c-1.2-2.3-1.9-4.9-1.9-7.9q0-4.6 1.9-8 1.9-3.3 5.2-5.1 3.3-1.8 7.6-1.8 4.3 0 7.6 1.8 3.3 1.8 5 4.9c1.2 2.2 1.8 4.6 1.8 7.4q0 1.2-0.2 2.4zm-10.3-8q-1.6-1.4-3.9-1.4-2.5 0-4.1 1.4-1.6 1.5-1.9 4.3h11.4c0.1-1.9-0.5-3.3-1.5-4.3z"/><path class="b" d="m478.3 99.1q2.6-1.5 5.7-1.5v9.5h-2.6q-3.5 0-5.5 1.5-2 1.5-1.9 5.1v13.2h-9v-29h9v5.4q1.6-2.6 4.3-4.2z"/></g></svg>