<svg version="1.2" xmlns="http://www.w3.org/2000/svg" viewBox="0 0 300 90" width="300" height="90"><style>.a{fill:#6c4897}</style><path class="a" d="m47.6 29.4v32.7h6.7v-32.7zm3 5.1h-1.4v-1.4h1.4zm0-2.1h-1.4v-1.4h1.4zm2.1 2.1h-1.5v-1.4h1.5zm0-2.1h-1.5v-1.4h1.5z"/><path class="a" d="m73.4 42.1c-0.2 9.7-8.6 13.8-17.3 12.7v-6.5c2.7 0 7.2 0.6 9.2-1.8 3.9-3.6 1-10.9-4.5-10.7h-4.7v-6.4h4.5c7.1 0 12.8 5.7 12.8 12.7z"/><path fill-rule="evenodd" class="a" d="m52.7 27.8v0.6h-6.2v6.1h-0.6v-6.7z"/><path class="a" d="m31.9 55.6q-0.6 0.7-0.9 1.5c1.8-1.5 3-1.6 5.3-1.5h7.2c0.2 0 0.4 0.2 0.4 0.5v6h-22.7c0.4-8.5 9.3-13.3 14.3-19.3 2.8-3.4 1-8.6-3.8-7.3 0.5-0.5 0.9-0.9 1.3-1.4-2.8 1.2-3.9 3.5-4.1 6.3l-6.6-0.7c-0.2 0-0.4-0.2-0.4-0.4q0-0.1 0-0.1c0.5-5 3.5-8.7 8.4-9.4 10.8-2.3 17.9 7.7 10.8 16.7-2.6 3.4-6.4 5.8-9.2 9.1z"/><path class="a" d="m89.7 44.9c0 22-19.4 39.7-43.4 39.9 50.8-4.7 50.8-75 0-79.7 24 0.2 43.4 17.9 43.4 39.8z"/><path class="a" d="m46.9 81.7c8.8 0 17.3-3.1 24-8.9-22.9 23.8-67.2 5.5-66-27.9-1.2-33.3 43.1-51.6 66-27.8-55.3-38.9-91.6 58-24 64.6z"/><path class="a" d="m106.6 30.9v7.8h-5.3v-22.2h8.7q3.9 0 6 2 2.1 2 2.1 5.3 0 2-1 3.6-0.9 1.6-2.7 2.6-1.8 0.9-4.4 0.9h-3.4zm6-7.1q0-2.9-3.2-2.9h-2.8v5.7h2.8q3.2 0 3.2-2.8z"/><path class="a" d="m130.8 21.9q1.4 0.9 2.1 2.5v-3.2h5.4v17.4h-5.4v-3.1q-0.7 1.5-2.1 2.4-1.5 1-3.5 0.9-2.1 0-3.8-1-1.8-1.1-2.7-3.1-1-2.1-1-4.8 0-2.8 1-4.8 0.9-2 2.7-3.1 1.7-1 3.8-1 2.1 0 3.5 0.9zm-4.5 4.9q-1.1 1.1-1.1 3.1 0 2 1.1 3.2 1 1.1 2.8 1.1 1.6 0 2.7-1.2 1.1-1.1 1.1-3.1 0-1.9-1.1-3.1-1.1-1.1-2.7-1.1-1.8 0-2.8 1.1z"/><path class="a" d="m149.9 22q1.6-1 3.5-1v5.7h-1.6q-2.1 0-3.3 0.9-1.2 1-1.2 3.1v7.9h-5.3v-17.4h5.3v3.3q1-1.6 2.6-2.5z"/><path class="a" d="m165.5 34.1v4.6h-2.4q-3.1 0-4.8-1.6-1.7-1.5-1.7-5v-6.4h-2.3v-4.5h2.3v-4.3h5.4v4.3h3.5v4.5h-3.5v6.5q0 1.1 0.4 1.5 0.4 0.4 1.4 0.4z"/><path class="a" d="m168.9 14.3q0.9-0.8 2.3-0.8 1.5 0 2.4 0.8 0.8 0.8 0.8 2 0 1.2-0.8 2-0.9 0.8-2.4 0.8-1.4 0-2.3-0.8-0.8-0.8-0.8-2-0.1-1.2 0.8-2zm5 6.9v17.5h-5.4v-17.5z"/><path class="a" d="m191.2 22.9q2.3 1.8 2.9 5.1h-5.7q-0.2-1.1-1-1.8-0.8-0.6-2-0.6-1.4 0-2.3 1.1-0.9 1.1-0.9 3.3 0 2.1 0.9 3.2 0.9 1.1 2.3 1.1 1.2 0 2-0.6 0.8-0.7 1-1.8h5.7q-0.6 3.3-2.9 5.1-2.3 1.9-5.7 1.9-2.6 0-4.5-1.1-2-1.1-3.2-3.1-1.1-2-1.1-4.8 0-2.7 1.1-4.7 1.1-2.1 3.1-3.1 2-1.1 4.6-1.1 3.4 0 5.7 1.9z"/><path class="a" d="m214.3 21.2v17.5h-5.4v-3.2q-0.7 1.5-2.2 2.4-1.5 1-3.5 0.9-3 0.1-4.8-2-1.8-2-1.8-5.5v-10.1h5.4v9.5q0 1.8 0.9 2.7 0.9 1 2.5 1 1.6 0 2.6-1 0.9-1 0.9-3v-9.2h5.4z"/><path fill-rule="evenodd" class="a" d="m223.4 15.5v23.2h-5.4v-23.2z"/><path class="a" d="m227.5 14.3q0.9-0.8 2.3-0.8 1.4 0 2.3 0.8 0.9 0.8 0.9 2 0 1.2-0.9 2-0.9 0.8-2.3 0.8-1.5 0-2.3-0.8-0.9-0.8-0.9-2 0-1.2 0.9-2zm5 6.9v17.5h-5.4v-17.5z"/><path class="a" d="m252.6 30.9h-12.1q0.1 2 1 2.8 0.9 0.9 2.3 0.9 1.2 0 2-0.6 0.8-0.6 1-1.5h5.7q-0.3 1.8-1.5 3.3-1.2 1.4-2.9 2.3-1.8 0.8-4 0.8-2.6 0-4.6-1.1-2-1.1-3.1-3.1-1.1-2-1.1-4.8 0-2.7 1.1-4.7 1.1-2.1 3.1-3.1 2-1.1 4.6-1.1 2.6 0 4.5 1.1 2 1 3.1 2.9 1.1 2 1.1 4.5 0 0.6-0.2 1.4zm-6.2-4.8q-0.9-0.9-2.3-0.9-1.5 0-2.5 0.9-1 0.9-1.1 2.6h6.9q0-1.8-1-2.6z"/><path class="a" d="m263.5 22q1.6-1 3.5-1v5.7h-1.6q-2.1 0-3.3 0.9-1.2 1-1.2 3.1v7.9h-5.3v-17.4h5.3v3.3q1.1-1.6 2.6-2.5z"/><path class="a" d="m111.4 59.4q1.4 0.9 2.1 2.5v-3.2h5.3v17.5h-5.3v-3.2q-0.7 1.6-2.1 2.5-1.5 0.9-3.5 0.9-2.2 0-3.9-1.1-1.7-1.1-2.7-3.1-1-2.1-0.9-4.8 0-2.7 0.9-4.7 1-2.1 2.7-3.1 1.7-1.1 3.9-1.1 2 0 3.5 0.9zm1.2-5.5v3.6l-7.5-3.2v-4.1zm-5.8 10.5q-1.1 1.1-1.1 3.1 0 2 1.1 3.2 1.1 1.1 2.8 1.1 1.7 0 2.7-1.2 1.1-1.1 1.1-3.1 0-1.9-1.1-3.1-1-1.1-2.7-1.1-1.7 0-2.8 1.1z"/><path class="a" d="m134.2 68.4v7.8h-5.4v-22.1h8.7q4 0 6 1.9 2.1 2 2.1 5.3 0 2.1-0.9 3.7-0.9 1.6-2.8 2.5-1.8 0.9-4.4 0.9zm6-7.1q0-2.9-3.3-2.9h-2.7v5.7h2.7q3.3 0 3.3-2.8z"/><path class="a" d="m158.4 59.4q1.4 0.9 2.1 2.5v-3.2h5.3v17.5h-5.3v-3.2q-0.7 1.6-2.1 2.5-1.5 0.9-3.5 0.9-2.2 0-3.9-1.1-1.7-1.1-2.7-3.1-1-2.1-1-4.8 0-2.7 1-4.7 1-2.1 2.7-3.1 1.7-1.1 3.9-1.1 2 0 3.5 0.9zm-4.6 4.9q-1 1.2-1 3.2 0 2 1 3.1 1.1 1.1 2.8 1.1 1.7 0 2.8-1.2 1.1-1.1 1.1-3 0-2-1.1-3.2-1.1-1.1-2.8-1.1-1.7 0-2.8 1.1z"/><path class="a" d="m177.5 59.5q1.6-1 3.4-1v5.8h-1.5q-2.2 0-3.3 0.9-1.2 0.9-1.2 3v8h-5.4v-17.5h5.4v3.3q1-1.6 2.6-2.5z"/><path class="a" d="m193.1 71.6v4.6h-2.4q-3.1 0-4.8-1.5-1.7-1.6-1.7-5.1v-6.4h-2.4v-4.5h2.4v-4.3h5.3v4.3h3.6v4.5h-3.6v6.5q0 1.1 0.5 1.5 0.4 0.4 1.4 0.4h1.7z"/><path class="a" d="m196.5 51.8q0.9-0.8 2.3-0.8 1.5 0 2.3 0.8 0.9 0.8 0.9 2 0 1.2-0.9 2-0.9 0.8-2.3 0.8-1.4 0-2.3-0.8-0.9-0.8-0.9-2 0-1.2 0.9-2zm5 6.9v17.5h-5.4v-17.5z"/><path class="a" d="m218.8 60.4q2.3 1.8 2.9 5.1h-5.7q-0.3-1.1-1.1-1.7-0.7-0.7-1.9-0.7-1.5 0-2.4 1.1-0.9 1.1-0.9 3.3 0 2.1 0.9 3.2 1 1.1 2.4 1.1 1.2 0 1.9-0.6 0.8-0.6 1.1-1.8h5.7q-0.6 3.3-2.9 5.2-2.3 1.8-5.7 1.8-2.6 0-4.6-1.1-2-1-3.1-3.1-1.1-2-1.1-4.7 0-2.8 1.1-4.8 1.1-2 3.1-3.1 2-1.1 4.6-1.1 3.4 0 5.7 1.9z"/><path class="a" d="m241.9 58.7v17.5h-5.4v-3.2q-0.8 1.5-2.3 2.5-1.5 0.9-3.4 0.9-3.1 0-4.8-2-1.8-2-1.8-5.5v-10.2h5.3v9.5q0 1.8 1 2.8 0.9 0.9 2.4 0.9 1.7 0 2.6-1 1-1 1-2.9v-9.3h5.4z"/><path fill-rule="evenodd" class="a" d="m250.9 53v23.2h-5.3v-23.2z"/><path class="a" d="m255 51.8q0.9-0.8 2.3-0.8 1.5 0 2.3 0.8 0.9 0.8 0.9 2 0 1.2-0.9 2-0.8 0.8-2.3 0.8-1.4 0-2.3-0.8-0.9-0.8-0.9-2 0-1.2 0.9-2zm5 6.9v17.5h-5.4v-17.5z"/><path class="a" d="m280.2 68.4h-12.1q0.1 2 1 2.8 0.9 0.9 2.3 0.9 1.2 0 2-0.6 0.7-0.6 1-1.5h5.7q-0.4 1.8-1.5 3.3-1.2 1.4-3 2.3-1.8 0.8-4 0.8-2.6 0-4.5-1.1-2-1.1-3.2-3.1-1.1-2-1.1-4.8 0-2.7 1.1-4.7 1.2-2.1 3.2-3.1 2-1.1 4.5-1.1 2.7 0 4.6 1.1 2 1 3.1 2.9 1.1 2 1.1 4.5-0.1 0.7-0.2 1.4zm-6.2-4.8q-0.9-0.9-2.4-0.9-1.4 0-2.4 0.9-1 0.9-1.1 2.6h6.8q0.1-1.7-0.9-2.6z"/><path class="a" d="m291.1 59.5q1.6-1 3.4-1v5.8h-1.5q-2.1 0-3.3 0.9-1.2 0.9-1.2 3v8h-5.4v-17.5h5.4v3.3q1-1.6 2.6-2.5z"/></svg>