<svg version="1.2" xmlns="http://www.w3.org/2000/svg" viewBox="0 0 300 91" width="300" height="91"><style>.a{fill:#ee741b}</style><path class="a" d="m48 29.8v33h6.8v-33zm3 5.1h-1.4v-1.5h1.4zm0-2h-1.4v-1.5h1.4zm2.1 2.1h-1.4v-1.4h1.4zm0-2.1h-1.4v-1.4h1.4z"/><path class="a" d="m74.1 42.6c0 7.1-5.8 12.8-12.9 12.8h-4.6v-6.5h4.8c3.5 0 6.4-2.9 6.4-6.4 0-3.5-2.9-6.3-6.4-6.3h-4.8v-6.4h4.6c7.1 0 12.9 5.7 12.9 12.8z"/><path fill-rule="evenodd" class="a" d="m53.2 28.1v0.6h-6.2v6.2h-0.6v-6.8z"/><path class="a" d="m32.2 56.3q-0.6 0.6-0.9 1.4 0.5-0.3 1-0.6c0.5-0.5 1.1-0.8 1.8-0.8q0.3-0.1 0.6-0.1 1 0.1 1.9 0.1h7.3c0.2 0 0.4 0.2 0.4 0.4v6.1h-22.9v-0.5q0.2-1.5 0.6-2.9c0.7-2.1 1.9-4.1 3.8-6.2 1.7-1.9 3.7-3.7 5.6-5.5l0.2-0.2q0.3-0.2 0.5-0.5c1.3-1.1 2.6-2.3 3.7-3.7 1.1-1.5 1.6-3 1.3-4.6-0.1-0.6-0.3-1.1-0.7-1.6-0.6-0.8-1.5-1.3-2.8-1.3q-0.8-0.1-1.6 0.2c0.4-0.6 0.8-1 1.2-1.5-1.4 0.6-2.5 1.6-3.2 3q0 0 0 0-0.1 0.1-0.2 0.2 0 0.1 0 0.1-0.3 0.7-0.4 1.3-0.1 0.4-0.1 0.9-0.1 0.2-0.1 0.4l-0.1 0.4-6.6-0.6c-0.3-0.1-0.4-0.3-0.4-0.5q0 0 0 0 0-0.3 0.1-0.6 0.1-0.7 0.2-1.3c0.6-2.4 1.5-4 2.9-5.3 1.4-1.2 3.2-2.1 5.3-2.4 2.6-0.5 5-0.3 7.2 0.3 4.1 1.3 6.7 4.9 6.5 9.1-0.1 2.6-1 5-2.8 7.4-1.2 1.6-2.7 2.9-4 4.2l-0.2 0.1q-0.5 0.6-1.1 1.1-0.9 0.8-1.8 1.6-0.5 0.5-1.1 1.1-0.5 0.6-1.1 1.3 0-0.1 0 0z"/><path class="a" d="m90.5 45.4c0 22.2-19.6 40.2-43.8 40.4 22.2-2.3 39.2-19.5 39.2-40.4 0-20.8-17-38-39.2-40.3 24.2 0.2 43.8 18.2 43.8 40.3z"/><path class="a" d="m47.3 82.6c8.9 0 17.6-3.2 24.3-9-7.3 7.1-17.1 11.1-27.3 11.1-21.4 0-38.8-17-39.3-38.2q0-0.3 0-0.5 0-0.3 0-0.6 0-0.2 0-0.5 0-0.2 0-0.5c0.5-21.2 17.9-38.2 39.3-38.2 10.2 0 20 4 27.3 11-6.7-5.8-15.4-8.9-24.3-8.9-20.6 0-37.2 16.6-37.2 37.1 0 20.6 16.6 37.2 37.2 37.2z"/><path class="a" d="m118.5 19.9q3 1.5 4.6 4.3 1.6 2.9 1.6 6.6 0 3.7-1.6 6.5-1.6 2.8-4.6 4.3-2.9 1.5-6.8 1.5h-8.7v-24.7h8.7q3.9 0 6.8 1.5zm-1 16.9q2.1-2.1 2.1-6 0-3.9-2.1-6.1-2.1-2.1-6-2.1h-3.5v16.3h3.5q3.9 0 6-2.1z"/><path class="a" d="m146.6 34.8h-14.4q0.2 2.1 1.5 3.3 1.3 1.2 3.3 1.2 2.7 0 3.9-2.4h5.4q-0.9 2.9-3.3 4.7-2.4 1.8-5.9 1.8-2.9 0-5.1-1.2-2.3-1.3-3.6-3.6-1.2-2.3-1.2-5.3 0-3.1 1.2-5.4 1.3-2.3 3.5-3.5 2.2-1.3 5.2-1.3 2.8 0.1 5 1.2 2.2 1.2 3.5 3.5 1.2 2.2 1.2 5.1 0 1-0.2 1.9zm-5-3.3q0-2-1.4-3.1-1.3-1.1-3.3-1.2-1.8 0-3.1 1.2c-0.8 0.7-1.4 1.7-1.5 3.1zm-0.8-13.2l-8.1 3.7v-3.5l8.1-4.2z"/><path class="a" d="m150.3 28q1.3-2.3 3.5-3.6 2.2-1.2 5-1.3 3.7 0 6.1 1.9 2.4 1.8 3.2 5.1h-5.3q-0.5-1.3-1.5-2-1-0.7-2.5-0.7-2.1 0-3.4 1.5-1.2 1.5-1.2 4.4 0 2.8 1.2 4.3 1.3 1.6 3.4 1.6 3 0 4-2.7h5.3q-0.8 3.2-3.2 5.1-2.4 1.8-6 1.8-2.9 0-5.1-1.2-2.2-1.3-3.4-3.6-1.3-2.3-1.3-5.3c0-2 0.4-3.8 1.2-5.3z"/><path class="a" d="m175.4 42.2q-2.3-1.3-3.6-3.6-1.3-2.3-1.3-5.3 0-3 1.3-5.3 1.4-2.3 3.7-3.6 2.3-1.2 5.1-1.3 2.9 0.1 5.2 1.3 2.3 1.3 3.6 3.6 1.4 2.3 1.4 5.3 0 3-1.4 5.3-1.4 2.3-3.7 3.6-2.3 1.2-5.2 1.2-2.8 0-5.1-1.2zm7.6-3.8q1.2-0.6 1.9-1.9 0.7-1.3 0.7-3.2 0-2.8-1.4-4.3-1.5-1.5-3.7-1.5-2.1 0-3.5 1.5-1.5 1.5-1.5 4.3 0 2.8 1.4 4.3 1.4 1.5 3.6 1.5 1.4 0 2.5-0.7z"/><path class="a" d="m213 23.5v19.6h-5v-2.5q-1 1.3-2.5 2-1.6 0.8-3.4 0.8-2.3 0-4.1-1-1.7-1-2.8-2.9-1-1.9-1-4.5v-11.5h5v10.8q0 2.3 1.2 3.6 1.2 1.2 3.2 1.2 2 0 3.2-1.2 1.2-1.3 1.2-3.6v-10.8h5z"/><path class="a" d="m226.1 38.5l5-15h5.3l-7.3 19.6h-6l-7.3-19.6h5.3z"/><path class="a" d="m246.6 24.1q1.6-0.9 3.6-0.9v5.2h-1.3q-2.4 0-3.6 1.1-1.2 1.1-1.2 3.8v9.8h-4.9v-19.6h4.9v3q1-1.5 2.5-2.4z"/><path class="a" d="m271.7 34.8h-14.4q0.2 2.1 1.5 3.3 1.3 1.2 3.2 1.2 2.8 0 3.9-2.4h5.4q-0.8 2.9-3.3 4.7-2.4 1.8-5.9 1.8-2.8 0-5.1-1.2-2.3-1.3-3.5-3.6-1.3-2.3-1.3-5.3 0-3.1 1.3-5.4 1.2-2.3 3.4-3.5 2.3-1.3 5.2-1.3 2.8 0.1 5 1.2 2.2 1.2 3.5 3.5 1.2 2.2 1.2 5.1 0 1-0.1 1.9zm-5-3.3q-0.1-2-1.4-3.1-1.4-1.1-3.3-1.2-1.9 0-3.1 1.2c-0.9 0.7-1.4 1.7-1.6 3.1z"/><path class="a" d="m280 39h8.8v4.1h-14.5v-4l8.6-11.6h-8.5v-4h14.2v4z"/><path class="a" d="m108 72.4h8.1v3.9h-13.1v-24.7h5z"/><path class="a" d="m137.4 68h-14.3q0.1 2.1 1.5 3.3 1.3 1.2 3.2 1.2 2.8 0 3.9-2.4h5.4q-0.8 2.9-3.3 4.7-2.4 1.8-5.9 1.8-2.8 0-5.1-1.2-2.3-1.3-3.5-3.6-1.3-2.3-1.3-5.3 0-3.1 1.3-5.4 1.2-2.3 3.4-3.5 2.3-1.3 5.2-1.3 2.8 0.1 5 1.3 2.2 1.1 3.5 3.4 1.2 2.2 1.2 5.1 0 1-0.2 1.9zm-5-3.3q0-2-1.3-3.1-1.4-1.1-3.3-1.2-1.9 0-3.1 1.2c-0.9 0.7-1.4 1.7-1.6 3.1z"/><path class="a" d="m176.7 51.6v24.7h-5v-16.1l-6.6 16.1h-3.8l-6.7-16.1v16.1h-5v-24.7h5.7l7.9 18.4 7.9-18.4z"/><path class="a" d="m181.5 61.1q1.2-2.3 3.2-3.5 2.1-1.3 4.6-1.3 2.2 0.1 3.9 0.9 1.6 0.9 2.6 2.3v-2.8h5v19.6h-5v-2.9q-0.9 1.4-2.6 2.3-1.7 0.9-3.9 0.9-2.5 0-4.6-1.3-2-1.2-3.2-3.6-1.2-2.3-1.2-5.3 0-2.9 1.2-5.3zm13.6 2.3q-0.7-1.3-1.9-2-1.2-0.7-2.6-0.7-1.4 0-2.6 0.7-1.1 0.7-1.9 2-0.7 1.3-0.7 3 0 1.8 0.7 3.1 0.8 1.3 2 2 1.2 0.8 2.5 0.8 1.4 0 2.6-0.7 1.2-0.7 1.9-2 0.7-1.3 0.7-3.1 0-1.8-0.7-3.1z"/><path class="a" d="m213.2 57.3q1.5-0.9 3.5-0.9v5.2h-1.3q-2.4 0-3.6 1.1-1.1 1.1-1.1 3.8v9.8h-5v-19.6h5v3q0.9-1.5 2.5-2.4z"/><path class="a" d="m223.7 75.4q-2.3-1.3-3.6-3.6-1.3-2.3-1.3-5.3 0-3 1.3-5.3 1.3-2.3 3.7-3.6 2.3-1.2 5.1-1.3 2.9 0.1 5.2 1.3 2.3 1.3 3.6 3.6 1.3 2.3 1.3 5.3 0 3-1.3 5.3-1.4 2.3-3.7 3.6-2.4 1.2-5.2 1.2-2.9 0-5.1-1.2zm7.6-3.7q1.2-0.7 1.9-2 0.7-1.3 0.7-3.2 0-2.8-1.5-4.3-1.4-1.5-3.6-1.5-2.1 0-3.6 1.5-1.4 1.5-1.4 4.3 0 2.8 1.4 4.3 1.4 1.5 3.6 1.5 1.3 0 2.5-0.6z"/><path class="a" d="m242.7 61.2q1.2-2.3 3.4-3.6 2.2-1.2 5.1-1.3 3.6 0 6 1.9 2.4 1.8 3.2 5.1h-5.3q-0.5-1.3-1.5-2-1-0.7-2.5-0.7-2.1 0-3.3 1.5-1.3 1.6-1.3 4.4 0 2.8 1.3 4.3 1.2 1.6 3.3 1.6 3.1 0 4-2.7h5.4q-0.9 3.2-3.3 5.1-2.4 1.8-6 1.8-2.9 0-5.1-1.2-2.2-1.3-3.4-3.6-1.3-2.3-1.3-5.3c0-2 0.4-3.8 1.3-5.3z"/></svg>