<svg version="1.2" xmlns="http://www.w3.org/2000/svg" viewBox="0 0 300 90" width="300" height="90"><style>.a{fill:#e83c5c}</style><path class="a" d="m47.6 29.4v32.7h6.6v-32.7zm3 5.1h-1.4v-1.4h1.4zm0-2.1h-1.4v-1.4h1.4zm2.1 2.1h-1.4v-1.4h1.4zm0-2.1h-1.4v-1.4h1.4z"/><path class="a" d="m73.4 42.1c0 7-5.7 12.7-12.8 12.7h-4.6v-6.5h4.8c3.5 0 6.3-2.8 6.3-6.2 0-3.5-2.8-6.3-6.3-6.3h-4.8v-6.4h4.6c7.1 0 12.8 5.7 12.8 12.7z"/><path fill-rule="evenodd" class="a" d="m52.6 27.8v0.6h-6.1v6.1h-0.6v-6.7z"/><path class="a" d="m31.9 55.6q-0.6 0.7-0.9 1.5 0.5-0.3 0.9-0.7c0.6-0.4 1.2-0.7 1.9-0.8q0.3 0 0.6 0 0.9 0 1.9 0h7.1c0.3 0 0.5 0.2 0.5 0.5v6h-22.7v-0.5q0.2-1.5 0.6-2.9c0.7-2.1 1.9-4 3.7-6.1 1.8-1.9 3.7-3.7 5.6-5.4l0.2-0.2q0.3-0.2 0.5-0.5c1.3-1.1 2.6-2.3 3.7-3.7 1.1-1.4 1.5-3 1.2-4.5-0.1-0.6-0.3-1.1-0.6-1.6-0.6-0.8-1.6-1.3-2.8-1.3q-0.9-0.1-1.7 0.2c0.5-0.5 0.9-1 1.3-1.5-1.4 0.6-2.5 1.6-3.2 2.9q0 0.1 0 0.1-0.1 0.1-0.2 0.2 0 0.1 0 0.1-0.3 0.6-0.4 1.3-0.1 0.4-0.1 0.8 0 0.2-0.1 0.4v0.5l-6.6-0.7c-0.3 0-0.5-0.2-0.4-0.4q0-0.1 0-0.1 0-0.3 0.1-0.6 0.1-0.6 0.2-1.2c0.5-2.3 1.4-4 2.8-5.2 1.4-1.3 3.2-2.1 5.3-2.4 2.6-0.5 4.9-0.4 7.1 0.3 4.1 1.3 6.6 4.8 6.5 9-0.1 2.5-1 4.9-2.9 7.3-1.1 1.6-2.5 2.9-3.9 4.2l-0.1 0.1q-0.6 0.5-1.2 1-0.8 0.8-1.7 1.6-0.6 0.5-1.1 1.1-0.6 0.6-1.1 1.2 0 0 0 0z"/><path class="a" d="m89.6 44.9c0 22-19.4 39.7-43.3 39.9 22-2.2 38.7-19.2 38.7-39.9 0-20.6-16.8-37.6-38.7-39.8 23.9 0.2 43.3 17.9 43.3 39.8z"/><path class="a" d="m46.8 81.7c8.9 0 17.4-3.1 24.1-8.9-7.2 7-16.9 11-27 10.9-21.2 0-38.4-16.8-39-37.7q0-0.3 0-0.5 0-0.3 0-0.6 0-0.2 0-0.5 0-0.2 0-0.5c0.6-20.9 17.8-37.7 39-37.7 10.1-0.1 19.7 3.8 27 10.9-6.7-5.8-15.2-8.9-24.1-8.9-20.3 0-36.8 16.4-36.8 36.7 0 20.4 16.5 36.8 36.8 36.8z"/><path class="a" d="m119.7 15.7q3.1 2.5 4 6.7h-6.3q-0.7-1.7-2.1-2.7-1.5-0.9-3.4-0.9-2.6 0-4.2 1.9-1.6 1.9-1.6 5.1 0 3.1 1.6 5 1.6 1.9 4.2 1.9 1.9 0 3.4-0.9 1.4-1 2.1-2.7h6.3q-0.9 4.2-4 6.7-3.1 2.4-7.7 2.4-3.6 0-6.3-1.5-2.7-1.6-4.2-4.4-1.5-2.9-1.5-6.5 0-3.6 1.5-6.5 1.5-2.8 4.2-4.4 2.7-1.5 6.3-1.5 4.6-0.1 7.7 2.3z"/><path class="a" d="m141.2 19.6q2.3 1.2 3.6 3.5 1.3 2.2 1.3 5.2 0 3.1-1.3 5.3-1.3 2.3-3.6 3.4-2.2 1.2-5.1 1.2-2.9 0-5.2-1.2-2.3-1.1-3.6-3.4-1.3-2.2-1.3-5.3 0-3 1.3-5.2 1.3-2.3 3.6-3.5 2.3-1.2 5.2-1.1 2.9-0.1 5.1 1.1zm-8 5.2q-1.1 1.2-1.1 3.5 0 2.4 1.1 3.6 1.2 1.2 2.9 1.2 1.7 0 2.8-1.2 1.2-1.2 1.2-3.6 0-2.3-1.2-3.5-1.1-1.2-2.8-1.2-1.7 0-2.9 1.2z"/><path class="a" d="m166.8 20.7q1.9 2.2 1.9 6.1v11.2h-5.9v-10.5q0-2-1-3.1-1-1.1-2.7-1.1-1.8 0.1-2.9 1.2-1 1.1-1 3.2v10.3h-6v-19.3h6v3.5q0.8-1.7 2.4-2.7 1.7-1 3.9-1 3.3 0 5.3 2.2z"/><path class="a" d="m185.6 20.3q2.2 1.8 2.7 4.8h-5.5q-0.3-1.2-1.1-1.8-0.8-0.7-2.1-0.7-1 0-1.6 0.4-0.5 0.5-0.5 1.2 0 0.9 1 1.4 0.9 0.4 3 0.9 2.2 0.5 3.6 1 1.4 0.6 2.5 1.8 1 1.2 1 3.2 0 1.7-0.9 3-0.9 1.2-2.6 2-1.7 0.7-4 0.7-3.9 0-6.3-1.7-2.4-1.8-2.9-5h5.8q0.1 1.3 1 1.9 0.9 0.7 2.4 0.7 1 0 1.5-0.5 0.6-0.4 0.6-1.2 0-1-1-1.4-0.9-0.5-3.1-0.9-2.1-0.5-3.5-1-1.4-0.5-2.4-1.7-1-1.1-1-3.1 0-2.6 1.9-4.3 2-1.6 5.6-1.6 3.7 0.1 5.9 1.9z"/><path class="a" d="m210.2 29.4h-13.5q0.1 2.2 1.1 3.1 1 1 2.6 1 1.3 0 2.2-0.7 0.9-0.6 1.1-1.7h6.3q-0.4 2.1-1.7 3.7-1.3 1.6-3.2 2.5-2 0.9-4.4 0.9-2.9 0-5.1-1.2-2.2-1.2-3.4-3.4-1.3-2.3-1.3-5.3 0-3 1.3-5.2 1.2-2.3 3.4-3.5 2.2-1.2 5.1-1.2 2.9 0 5 1.2 2.2 1.2 3.4 3.3 1.2 2.1 1.2 4.9 0 0.8-0.1 1.6zm-6.9-5.3q-1.1-1-2.6-1-1.6 0-2.7 1-1.1 1-1.2 2.8h7.6q-0.1-1.9-1.1-2.8z"/><path class="a" d="m213.8 11q1-0.9 2.6-0.8 1.6 0 2.6 0.8 0.9 0.9 0.9 2.3 0 1.3-0.9 2.2-1 0.8-2.6 0.8-1.6 0-2.6-0.8-0.9-0.9-0.9-2.2 0-1.4 0.9-2.3zm5.5 7.7v19.3h-5.9v-19.3z"/><path fill-rule="evenodd" class="a" d="m229.4 12.4v25.6h-6v-25.6z"/><path class="a" d="m246.4 20.3q2.2 1.8 2.8 4.8h-5.6q-0.2-1.2-1.1-1.8-0.8-0.7-2.1-0.7-1 0-1.6 0.4-0.5 0.5-0.5 1.2 0 0.9 1 1.4 0.9 0.4 3 0.9 2.2 0.5 3.6 1 1.4 0.6 2.5 1.8 1 1.2 1 3.2 0 1.7-0.9 3-0.9 1.2-2.6 2-1.7 0.7-4 0.7-3.9 0-6.3-1.7-2.4-1.8-2.9-5h5.8q0.1 1.3 1 1.9 0.9 0.7 2.4 0.7 1 0 1.5-0.5 0.6-0.4 0.6-1.2 0-1-1-1.4-0.9-0.5-3.1-0.9-2.1-0.5-3.5-1-1.4-0.5-2.4-1.7-1-1.1-1-3.1 0-2.6 2-4.3 1.9-1.6 5.5-1.6 3.7 0.1 5.9 1.9z"/><path fill-rule="evenodd" class="a" d="m106.7 55v24.5h-5.9v-24.5z"/><path class="a" d="m141.5 62.2q2 2.2 2 6.1v11.2h-5.9v-10.5q0-1.9-0.9-2.9-1-1-2.7-1-1.8 0-2.8 1.1-1 1.1-1 3.1v10.2h-6v-10.5q0-1.9-0.9-2.9-1-1-2.7-1-1.8 0-2.8 1.1-1 1.1-1 3.1v10.2h-6v-19.3h6v3.3q0.7-1.6 2.3-2.6 1.6-0.9 3.7-0.9 2.2 0 4 1 1.7 1.1 2.5 2.9 1-1.8 2.8-2.8 1.7-1.1 3.8-1.1c2.4 0 4.2 0.7 5.6 2.2z"/><path class="a" d="m178.2 62.2q2.1 2.2 2.1 6.1v11.2h-5.9v-10.5q0-1.9-1-2.9-1-1-2.7-1-1.8 0-2.8 1.1-1 1.1-1 3.1v10.2h-5.9v-10.5q0-1.9-1-2.9-1-1-2.7-1-1.7 0-2.8 1.1-1 1.1-1 3.1v10.2h-5.9v-19.3h5.9v3.3q0.8-1.6 2.4-2.6 1.5-0.9 3.7-0.9 2.2 0 3.9 1 1.7 1.1 2.5 2.9 1.1-1.8 2.8-2.8 1.7-1.1 3.9-1.1c2.3 0 4.2 0.7 5.5 2.2z"/><path class="a" d="m198.4 61.1q2.3 1.2 3.6 3.5 1.3 2.2 1.3 5.3 0 3-1.3 5.2-1.3 2.3-3.6 3.5-2.2 1.2-5.1 1.1-2.9 0-5.2-1.1-2.3-1.2-3.6-3.5-1.3-2.2-1.3-5.2 0-3.1 1.3-5.3 1.3-2.3 3.6-3.5 2.3-1.1 5.2-1.1 2.9 0 5.1 1.1zm-8 5.2q-1.1 1.2-1.1 3.6 0 2.3 1.1 3.5 1.2 1.2 2.9 1.2 1.7 0 2.8-1.2 1.2-1.2 1.2-3.5-0.1-2.4-1.2-3.6-1.1-1.2-2.8-1.2-1.7 0-2.9 1.2z"/><path class="a" d="m222.8 61.1q1.9 1.2 2.9 3.5 1.1 2.2 1.1 5.3 0 3-1.1 5.2-1.1 2.3-2.9 3.5-1.9 1.2-4.3 1.1-2.2 0-3.8-1-1.6-1-2.4-2.7v3.5h-5.9v-25.6h5.9v9.8q0.8-1.7 2.4-2.7 1.6-1 3.8-1 2.4 0 4.3 1.1zm-9.3 5.3q-1.2 1.3-1.2 3.5 0 2.1 1.2 3.4 1.2 1.3 3.1 1.3 1.9-0.1 3-1.3 1.2-1.2 1.2-3.4 0-2.3-1.2-3.5-1.1-1.3-3-1.3-1.9 0-3.1 1.3z"/><path class="a" d="m230.4 52.5q0.9-0.9 2.5-0.8 1.6 0 2.6 0.8 0.9 0.9 0.9 2.3 0 1.3-0.9 2.2-1 0.9-2.6 0.8-1.6 0-2.5-0.8-1-0.9-1-2.2 0-1.4 1-2.3zm5.5 7.7v19.3h-6v-19.3z"/><path fill-rule="evenodd" class="a" d="m245.9 53.9v25.6h-5.9v-25.6z"/><path class="a" d="m250.4 52.5q1-0.9 2.6-0.8 1.6 0 2.5 0.8 1 0.9 1 2.3 0 1.3-1 2.2-0.9 0.9-2.5 0.8-1.6 0-2.6-0.8-1-0.9-0.9-2.2-0.1-1.4 0.9-2.3zm5.5 7.7v19.3h-5.9v-19.3z"/><path class="a" d="m278.2 70.9h-13.4q0.1 2.2 1.1 3.1 1 1 2.6 1 1.3 0 2.2-0.7 0.8-0.6 1.1-1.7h6.3q-0.4 2.1-1.7 3.7-1.3 1.6-3.2 2.5-2 0.9-4.4 0.9-2.9 0-5.1-1.2-2.2-1.2-3.4-3.4-1.3-2.3-1.3-5.3 0-3 1.2-5.2 1.3-2.3 3.5-3.5 2.2-1.2 5.1-1.2 2.8 0 5 1.2 2.2 1.2 3.4 3.3 1.2 2.1 1.2 4.9 0 0.8-0.2 1.6zm-6.8-5.3q-1.1-1-2.6-1-1.7 0-2.7 1-1.1 1-1.2 2.8h7.5q0.1-1.9-1-2.8z"/><path class="a" d="m290.3 61q1.8-1 3.8-1v6.3h-1.7q-2.4 0-3.7 1-1.2 1-1.3 3.4v8.8h-5.9v-19.3h5.9v3.6q1.2-1.7 2.9-2.8z"/></svg>