<svg version="1.2" xmlns="http://www.w3.org/2000/svg" viewBox="0 0 440 297" width="440" height="297">
  <style>.a{fill:#3453a1}</style>
  <path class="a"
    d="m222 52.2v202.3h40.8v-202.3zm18.6 31.5h-8.7v-8.7h8.7zm0-13h-8.7v-8.7h8.7zm13 13h-8.7v-9.3h8.7zm0-12.3h-8.7v-8.7h8.7z" />
  <path class="a"
    d="m381 130.8c0 43.3-35.3 78.6-78.6 78.6h-28.5v-39.6h29.1c21.7 0 39-17.9 39-39 0-21.1-17.3-39-39-39h-29.1v-39.6h28.5c43.3 0 78.6 35.3 78.6 78.6z" />
  <path fill-rule="evenodd" class="a" d="m253 42.3v3.7h-37.7v37.7h-3.7v-41.5h41.5z" />
  <path class="a"
    d="m125.5 214.3c-2.5 2.5-4.3 6.2-6.2 9.3 2.5-1.2 4.3-2.5 6.2-4.3 3.1-2.5 6.8-4.3 11.8-5 1.2 0 2.3 0 3.1 0 4.1 0 8 0 11.8 0h44.6c1.2 0 2.5 1.9 2.5 3.1v37.1h-140v-3.1c0.4-6.2 1.7-12.2 3.7-17.9 4.3-13 11.8-24.8 22.9-37.7 11.1-11.8 22.9-22.3 34.7-33.4l1.2-1.2c0.8-1.2 1.9-2.3 3.1-3.1 7.4-6.8 16.1-14.2 22.3-22.9 6.8-8.7 9.3-18.6 7.4-27.8 0-3.7-1.9-6.8-3.7-9.9-3.7-5-9.3-7.4-17.3-8q-4.9-0.6-9.9 1.2c3.1-3.7 5.6-6.2 8-9.3-8.7 3.7-16.1 10.5-19.8 17.9q0 0.6-0.6 0.6 0 0.6-0.6 1.2 0 0.6-0.6 0.6c-0.8 2.5-1.4 5.2-1.9 8-0.4 1.7-0.6 3.3-0.6 5 0 1.7-0.2 1.9-0.6 3.1l-0.6 2.5-40.2-4.3c-1.2 0-2.5-1.2-2.5-3.1 0-1.9 0.2-2.5 0.6-3.7 0.6-2.5 0.6-5 1.2-7.4 3.1-14.9 8.7-24.8 17.9-32.2 8-7.4 19.2-13 32.2-14.9 15.3-3.3 29.9-2.7 43.9 1.9 24.8 8 40.8 29.7 39.6 55.7-0.6 15.5-6.2 30.3-17.3 45.2-7.4 9.9-16.1 17.9-24.1 26l-1.2 0.6c-2.5 2.1-4.7 4.1-6.8 6.2q-4.9 4.9-10.5 9.9c-2.5 2.1-5 4.3-7.4 6.8-1.9 2.5-3.7 5-6.2 7.4z" />
</svg>