<?xml version="1.0" encoding="utf-8"?>
<!-- Generator: Adobe Illustrator 24.3.0, SVG Export Plug-In . SVG Version: 6.00 Build 0)  -->
<svg version="1.1" id="flag-icons-gb" xmlns="http://www.w3.org/2000/svg" xmlns:xlink="http://www.w3.org/1999/xlink" x="0px"
	 y="0px" viewBox="0 0 480 480" style="enable-background:new 0 0 480 480;" xml:space="preserve">
<style type="text/css">
	.st0{clip-path:url(#SVGID_2_);fill:#012169;}
	.st1{clip-path:url(#SVGID_2_);fill:#FFFFFF;}
	.st2{clip-path:url(#SVGID_2_);fill:#C8102E;}
</style>
<g>
	<defs>
		<path id="SVGID_1_" d="M240,480L240,480C107.5,480,0,372.5,0,240v0C0,107.5,107.5,0,240,0h0c132.5,0,240,107.5,240,240v0
			C480,372.5,372.6,480,240,480z"/>
	</defs>
	<clipPath id="SVGID_2_">
		<use xlink:href="#SVGID_1_"  style="overflow:visible;"/>
	</clipPath>
	<path class="st0" d="M-80,0h640v480H-80V0z"/>
	<path class="st1" d="M-5,0l244,181L482,0h78v62L320,241l240,178v61h-80L240,301L1,480h-81v-60l239-178L-80,64V0H-5z"/>
	<path class="st2" d="M344,281l216,159v40L289,281H344z M160,301l6,35L-26,480h-54L160,301z M560,0v3L311,191l2-44L510,0H560z
		 M-80,0l239,176H99L-80,42V0z"/>
	<path class="st1" d="M161,0v480h160V0H161z M-80,160v160h640V160H-80z"/>
	<path class="st2" d="M-80,193v96h640v-96H-80z M193,0v480h96V0H193z"/>
</g>
</svg>
