<svg version="1.2" xmlns="http://www.w3.org/2000/svg" viewBox="0 0 300 90" width="300" height="90"><style>.a{fill:#76b82a}</style><path class="a" d="m47.2 29.4v32.7h6.7v-32.7zm2.9 5.1h-1.4v-1.4h1.4zm0-2.1h-1.4v-1.4h1.4zm2.1 2.1h-1.4v-1.4h1.4zm0-2.1h-1.4v-1.4h1.4z"/><path class="a" d="m72.8 42.1c0 7-5.6 12.7-12.6 12.7h-4.6v-6.5h4.8c3.4 0 6.2-2.8 6.2-6.2 0-3.5-2.8-6.3-6.2-6.3h-4.8v-6.4h4.6c7 0 12.6 5.7 12.6 12.7z"/><path fill-rule="evenodd" class="a" d="m52.3 27.8v0.6h-6.1v6.1h-0.6v-6.7z"/><path class="a" d="m31.7 55.6q-0.6 0.7-0.9 1.5 0.5-0.3 0.9-0.7c0.5-0.4 1.2-0.7 1.9-0.8q0.2 0 0.5 0 1 0 1.9 0h7.1c0.3 0 0.5 0.2 0.5 0.5v6h-22.6l0.1-0.5q0.1-1.5 0.6-2.9c0.6-2.1 1.8-4 3.7-6.1 1.7-1.9 3.6-3.7 5.5-5.4l0.2-0.2q0.3-0.2 0.5-0.5c1.3-1.1 2.6-2.3 3.6-3.7 1.1-1.4 1.5-3 1.3-4.5-0.1-0.6-0.3-1.1-0.7-1.6-0.6-0.8-1.5-1.3-2.8-1.3q-0.8-0.1-1.6 0.2c0.5-0.5 0.9-1 1.3-1.5-1.4 0.6-2.5 1.6-3.2 2.9q0 0.1 0 0.1-0.1 0.1-0.2 0.2 0 0.1 0 0.1-0.3 0.6-0.4 1.3-0.1 0.4-0.1 0.8 0 0.2-0.1 0.4v0.5l-6.6-0.7c-0.2 0-0.4-0.2-0.4-0.4q0-0.1 0-0.1 0.1-0.3 0.1-0.6 0.1-0.6 0.2-1.2c0.6-2.3 1.5-4 2.9-5.2 1.4-1.3 3.1-2.1 5.2-2.4 2.5-0.5 4.9-0.4 7.1 0.3 4 1.3 6.5 4.8 6.4 9-0.1 2.5-1 4.9-2.8 7.3-1.2 1.6-2.6 2.9-4 4.2l-0.1 0.1q-0.6 0.5-1.1 1-0.9 0.8-1.7 1.6-0.6 0.5-1.2 1.1-0.5 0.6-1 1.2 0 0 0 0z"/><path class="a" d="m89 44.9c0 22-19.2 39.7-43.1 39.9 21.9-2.2 38.5-19.2 38.5-39.9 0-20.6-16.6-37.6-38.5-39.8 23.9 0.2 43.1 17.9 43.1 39.8z"/><path class="a" d="m46.5 81.7c8.8 0 17.3-3.1 23.9-8.9-7.2 7-16.8 11-26.9 10.9-21 0-38.1-16.8-38.6-37.7q0-0.3 0-0.5 0-0.3 0-0.6 0-0.2 0-0.5 0-0.2 0-0.5c0.5-20.9 17.6-37.7 38.6-37.7 10.1-0.1 19.7 3.8 26.9 10.9-6.6-5.8-15.1-8.9-23.9-8.9-20.2 0-36.6 16.4-36.6 36.7 0 20.4 16.4 36.8 36.6 36.8z"/><path fill-rule="evenodd" class="a" d="m106.8 13.4v24.6h-6v-24.6z"/><path class="a" d="m141.5 20.6q2 2.2 2 6.1v11.3h-5.9v-10.6q0-1.8-1-2.8-1-1.1-2.7-1.1-1.7 0-2.7 1.1-1.1 1.1-1.1 3.1v10.3h-5.9v-10.6q0-1.8-1-2.8-0.9-1.1-2.6-1.1-1.8 0-2.8 1.1-1.1 1.1-1.1 3.1v10.3h-5.9v-19.4h5.9v3.3q0.8-1.6 2.4-2.6 1.5-0.9 3.7-0.9 2.2 0 3.9 1 1.7 1 2.5 3 1-1.9 2.8-2.9 1.7-1.1 3.8-1.1 3.6 0 5.7 2.2z"/><path class="a" d="m178.1 20.6q2 2.2 2 6.1v11.3h-5.9v-10.6q0-1.8-1-2.8-1-1.1-2.7-1.1-1.7 0-2.7 1.1-1.1 1.1-1.1 3.1v10.3h-5.9v-10.6q0-1.8-1-2.8-0.9-1.1-2.6-1.1-1.8 0-2.8 1.1-1.1 1.1-1.1 3.1v10.3h-5.9v-19.4h5.9v3.3q0.8-1.6 2.4-2.6 1.5-0.9 3.6-0.9 2.3 0 4 1 1.7 1 2.5 3 1-1.9 2.8-2.9 1.7-1.1 3.8-1.1 3.6 0 5.7 2.2z"/><path class="a" d="m198.2 19.5q2.3 1.2 3.6 3.5 1.3 2.3 1.3 5.3 0 3-1.3 5.3-1.3 2.2-3.6 3.4-2.3 1.2-5.1 1.2-2.9 0-5.2-1.2-2.3-1.2-3.6-3.4-1.3-2.3-1.3-5.3 0-3 1.3-5.3 1.3-2.3 3.6-3.5 2.3-1.2 5.2-1.2 2.9 0.1 5.1 1.2zm-8 5.2q-1.1 1.2-1.1 3.6-0.1 2.3 1.1 3.5 1.2 1.2 2.9 1.2 1.7 0.1 2.8-1.2 1.2-1.2 1.2-3.5 0-2.4-1.2-3.6-1.1-1.2-2.8-1.2-1.7 0-2.9 1.2z"/><path class="a" d="m222.5 19.5q1.8 1.2 2.9 3.5 1.1 2.2 1.1 5.3 0 3-1.1 5.3-1.1 2.2-2.9 3.4-1.9 1.2-4.3 1.2-2.2 0-3.8-1-1.6-1-2.3-2.7v3.5h-5.9v-25.7h5.9v9.8q0.7-1.7 2.3-2.7 1.6-1 3.8-1.1 2.4 0.1 4.3 1.2zm-9.3 5.3q-1.2 1.3-1.2 3.5 0 2.1 1.2 3.4 1.2 1.3 3.1 1.3 1.9 0 3.1-1.2 1.1-1.3 1.1-3.5 0-2.2-1.1-3.5-1.2-1.3-3.1-1.3-1.9 0.1-3.1 1.3z"/><path class="a" d="m230 10.9q1-0.9 2.6-0.9 1.6 0 2.5 0.9 1 0.9 1 2.2 0 1.4-1 2.2-0.9 0.9-2.5 0.9-1.6 0-2.6-0.9-0.9-0.8-1-2.2 0.1-1.3 1-2.2zm5.5 7.7v19.4h-5.9v-19.4z"/><path class="a" d="m245.5 12.3v25.7h-5.9v-25.7z"/><path class="a" d="m250 10.9q1-0.9 2.6-0.9 1.6 0 2.5 0.9 1 0.9 1 2.2 0 1.4-1 2.2-0.9 0.9-2.5 0.9-1.6 0-2.6-0.9-0.9-0.8-0.9-2.2 0-1.3 0.9-2.2zm5.5 7.7v19.4h-5.9v-19.4z"/><path class="a" d="m277.8 29.4h-13.4q0.1 2.1 1.1 3.1 1 1 2.5 1 1.4 0 2.2-0.7 0.9-0.7 1.2-1.7h6.2q-0.3 2.1-1.6 3.7-1.3 1.6-3.3 2.5-1.9 0.9-4.4 0.9-2.8 0-5-1.2-2.2-1.2-3.4-3.4-1.3-2.3-1.3-5.3 0-3.1 1.2-5.3 1.3-2.2 3.5-3.4 2.2-1.3 5-1.3 2.9 0.1 5.1 1.2 2.2 1.2 3.4 3.4 1.2 2.1 1.2 4.9-0.1 0.7-0.2 1.6zm-6.9-5.4q-1-1-2.6-1-1.6 0-2.7 1-1 1-1.2 2.9h7.6q0-2-1.1-2.9z"/><path class="a" d="m289.8 19.4q1.7-1 3.8-1v6.3h-1.7q-2.3 0-3.7 1-1.2 1-1.2 3.4v8.9h-6v-19.4h6v3.6q1-1.7 2.8-2.8z"/><path class="a" d="m122.6 79.6h-5.9l-9.9-15v15h-6v-24.5h6l9.9 15.2v-15.2h5.9z"/><path class="a" d="m144.8 71h-13.4q0.1 2.2 1.2 3.2 0.9 0.9 2.5 0.9 1.3 0 2.2-0.6 0.9-0.7 1.1-1.7h6.3q-0.4 2-1.6 3.6-1.3 1.7-3.3 2.6-2 0.9-4.4 0.9-2.8 0-5-1.2-2.2-1.2-3.5-3.5-1.2-2.2-1.2-5.2 0-3.1 1.2-5.3 1.2-2.3 3.5-3.5 2.2-1.2 5-1.2 2.9 0 5.1 1.2 2.1 1.2 3.3 3.3 1.2 2.1 1.2 4.9 0 0.7-0.2 1.6zm-6.8-5.3q-1.1-1-2.6-1-1.6 0-2.7 1-1.1 0.9-1.2 2.8h7.5q0-1.9-1-2.8z"/><path class="a" d="m167.3 60.3v19.3h-6v-3.5q-0.8 1.7-2.5 2.7-1.6 1-3.8 1-3.3 0.1-5.3-2.2-1.9-2.2-1.9-6.1v-11.2h5.9v10.5q0 1.9 1 3.1 1 1.1 2.8 1.1 1.7 0 2.8-1.2 1-1.1 1-3.3v-10.2z"/><path class="a" d="m180.8 57.6q-1.4 0-2.1 0.6-0.6 0.7-0.7 2.1h3.5v5h-3.5v14.3h-5.9v-14.3h-2.3v-5h2.3v-0.3q0-3.6 2.1-5.5 2.1-2 6-2 0.9 0 1.3 0v5.2z"/></svg>