<svg version="1.2" xmlns="http://www.w3.org/2000/svg" viewBox="0 0 300 91" width="300" height="91"><style>.a{fill:#ee741b}</style><path class="a" d="m48 29.8v33h6.8v-33zm3 5.1h-1.4v-1.5h1.4zm0-2h-1.4v-1.5h1.4zm2.1 2.1h-1.4v-1.4h1.4zm0-2.1h-1.4v-1.4h1.4z"/><path class="a" d="m74.1 42.6c0 7.1-5.8 12.8-12.9 12.8h-4.6v-6.5h4.8c3.5 0 6.4-2.9 6.4-6.4 0-3.5-2.9-6.3-6.4-6.3h-4.8v-6.4h4.6c7.1 0 12.9 5.7 12.9 12.8z"/><path fill-rule="evenodd" class="a" d="m53.2 28.1v0.6h-6.2v6.2h-0.6v-6.8z"/><path class="a" d="m32.2 56.3q-0.6 0.6-0.9 1.4 0.5-0.3 1-0.6c0.5-0.5 1.1-0.8 1.8-0.8q0.3-0.1 0.6-0.1 1 0.1 1.9 0.1h7.3c0.2 0 0.4 0.2 0.4 0.4v6.1h-22.9v-0.5q0.2-1.5 0.6-2.9c0.7-2.1 1.9-4.1 3.8-6.2 1.7-1.9 3.7-3.7 5.6-5.5l0.2-0.2q0.3-0.2 0.5-0.5c1.3-1.1 2.6-2.3 3.7-3.7 1.1-1.5 1.6-3 1.3-4.6-0.1-0.6-0.3-1.1-0.7-1.6-0.6-0.8-1.5-1.3-2.8-1.3q-0.8-0.1-1.6 0.2c0.4-0.6 0.8-1 1.2-1.5-1.4 0.6-2.5 1.6-3.2 3q0 0 0 0-0.1 0.1-0.2 0.2 0 0.1 0 0.1-0.3 0.7-0.4 1.3-0.1 0.4-0.1 0.9-0.1 0.2-0.1 0.4l-0.1 0.4-6.6-0.6c-0.3-0.1-0.4-0.3-0.4-0.5q0 0 0 0 0-0.3 0.1-0.6 0.1-0.7 0.2-1.3c0.6-2.4 1.5-4 2.9-5.3 1.4-1.2 3.2-2.1 5.3-2.4 2.6-0.5 5-0.3 7.2 0.3 4.1 1.3 6.7 4.9 6.5 9.1-0.1 2.6-1 5-2.8 7.4-1.2 1.6-2.7 2.9-4 4.2l-0.2 0.1q-0.5 0.6-1.1 1.1-0.9 0.8-1.8 1.6-0.5 0.5-1.1 1.1-0.5 0.6-1.1 1.3 0-0.1 0 0z"/><path class="a" d="m90.5 45.4c0 22.2-19.6 40.2-43.8 40.4 22.2-2.3 39.2-19.5 39.2-40.4 0-20.8-17-38-39.2-40.3 24.2 0.2 43.8 18.2 43.8 40.3z"/><path class="a" d="m47.3 82.6c8.9 0 17.6-3.2 24.3-9-7.3 7.1-17.1 11.1-27.3 11.1-21.4 0-38.8-17-39.3-38.2q0-0.3 0-0.5 0-0.3 0-0.6 0-0.2 0-0.5 0-0.2 0-0.5c0.5-21.2 17.9-38.2 39.3-38.2 10.2 0 20 4 27.3 11-6.7-5.8-15.4-8.9-24.3-8.9-20.6 0-37.2 16.6-37.2 37.1 0 20.6 16.6 37.2 37.2 37.2z"/><path class="a" d="m109.1 32.5h8.9v5.1h-15.6v-27.5h6.7z"/><path class="a" d="m137.1 16.9q2.6 1.4 4 3.9 1.5 2.5 1.5 5.9 0 3.4-1.5 5.9-1.4 2.6-4 3.9-2.5 1.4-5.8 1.3-3.2 0.1-5.8-1.3-2.6-1.3-4-3.9-1.5-2.5-1.5-5.9 0-3.4 1.5-5.9 1.4-2.5 4-3.9 2.6-1.3 5.8-1.3 3.3 0 5.8 1.3zm-9 5.8q-1.3 1.4-1.3 4 0 2.7 1.3 4 1.3 1.4 3.2 1.4 1.9 0 3.2-1.4 1.3-1.3 1.3-4 0-2.6-1.3-4-1.3-1.3-3.2-1.3-1.9 0-3.2 1.3z"/><path class="a" d="m163 17.9q2.8 2.3 3.6 6.4h-7.1q-0.3-1.4-1.3-2.2-0.9-0.8-2.4-0.8-1.8 0-2.9 1.4-1.2 1.4-1.1 4-0.1 2.7 1.1 4 1.1 1.4 2.9 1.4 1.5 0 2.4-0.8 1-0.7 1.3-2.1h7.1q-0.8 4-3.6 6.3-2.8 2.4-7.1 2.3-3.2 0.1-5.7-1.3-2.4-1.3-3.8-3.9-1.4-2.5-1.4-5.9 0-3.4 1.4-5.9c0.9-1.7 2.2-3 3.8-3.9q2.5-1.3 5.7-1.3 4.3 0 7.1 2.3z"/><path class="a" d="m182.7 16.7q1.8 1.2 2.6 3.1v-3.9h6.7v21.7h-6.7v-3.9q-0.8 1.9-2.6 3.1-1.8 1.1-4.3 1.1-2.7 0-4.9-1.4-2.1-1.3-3.3-3.8-1.3-2.6-1.3-5.9 0-3.5 1.3-6c0.8-1.6 1.9-3 3.3-3.8q2.2-1.4 4.9-1.4 2.5 0 4.3 1.1zm-5.7 6.1q-1.3 1.4-1.3 3.9 0 2.5 1.3 3.9 1.3 1.4 3.5 1.4 2.1 0 3.4-1.4 1.4-1.4 1.4-3.9 0-2.4-1.4-3.8-1.3-1.5-3.4-1.5-2.2 0-3.5 1.4z"/><path class="a" d="m208.9 31.9v5.7h-3q-3.8 0-6-1.9-2.1-1.9-2.1-6.2v-8h-2.9v-5.6h2.9v-5.4h6.7v5.3h4.4v5.7h-4.4v8.1q0 1.3 0.5 1.8 0.6 0.5 1.8 0.5z"/><path class="a" d="m213.1 7.2q1.1-1 2.9-1 1.8 0 2.9 1 1.1 1 1.1 2.5 0 1.5-1.1 2.5-1.1 1-2.9 1-1.8 0-2.9-1-1.1-1-1.1-2.5 0-1.5 1.1-2.5zm6.2 8.7v21.7h-6.6v-21.7z"/><path class="a" d="m239.9 16.9q2.6 1.4 4 3.9 1.5 2.5 1.5 5.9 0 3.4-1.5 5.9-1.4 2.6-4 3.9-2.5 1.4-5.8 1.3-3.2 0.1-5.8-1.3-2.6-1.3-4-3.9-1.5-2.5-1.5-5.9 0-3.4 1.5-5.9 1.4-2.5 4-3.9 2.6-1.3 5.8-1.3 3.3 0 5.8 1.3zm-9 5.8q-1.3 1.4-1.3 4 0 2.7 1.3 4 1.3 1.4 3.2 1.4 1.9 0 3.2-1.4 1.3-1.3 1.3-4 0-2.6-1.3-4-1.3-1.3-3.2-1.3-1.9 0-3.2 1.3z"/><path class="a" d="m268.7 18.1q2.2 2.5 2.2 6.9v12.6h-6.7v-11.8q0-2.2-1.1-3.4-1.2-1.3-3.1-1.3-2 0-3.2 1.3-1.2 1.3-1.2 3.7v11.5h-6.7v-21.7h6.7v3.9q0.9-1.9 2.8-3 1.9-1.2 4.4-1.2 3.7 0 5.9 2.5z"/><path class="a" d="m112.5 77.9l4.8-15.3h7.1l-7.8 21.8h-8.3l-7.7-21.8h7.1z"/><path class="a" d="m139.7 63.5q1.8 1.1 2.7 3.1v-4h6.6v21.8h-6.6v-4q-0.9 2-2.7 3.1-1.8 1.1-4.3 1.1-2.7 0-4.8-1.3-2.1-1.4-3.4-3.9-1.2-2.5-1.2-5.9 0-3.4 1.2-5.9 1.3-2.6 3.4-3.9 2.1-1.3 4.8-1.3 2.5 0 4.3 1.1zm-5.6 6.1q-1.3 1.4-1.3 3.9 0 2.5 1.3 3.9 1.3 1.4 3.5 1.4 2.1 0 3.4-1.4 1.4-1.5 1.4-3.9 0-2.5-1.4-3.9-1.3-1.4-3.4-1.4-2.2 0-3.5 1.4z"/><path class="a" d="m170.5 64.7q2.9 2.3 3.6 6.4h-7q-0.3-1.4-1.3-2.2-1-0.8-2.5-0.8-1.7 0-2.9 1.4-1.1 1.3-1.1 4 0 2.6 1.1 4 1.2 1.4 2.9 1.4 1.5 0 2.5-0.8 1-0.8 1.3-2.2h7q-0.7 4.1-3.6 6.4-2.8 2.3-7 2.3-3.2 0-5.7-1.3-2.5-1.4-3.9-3.9-1.4-2.5-1.4-5.9 0-3.4 1.4-5.9 1.4-2.6 3.9-3.9 2.5-1.3 5.7-1.3 4.2 0 7 2.3z"/><path class="a" d="m190.2 63.5q1.8 1.1 2.6 3.1v-4h6.7v21.8h-6.7v-4q-0.8 2-2.6 3.1-1.8 1.1-4.3 1.1-2.7 0-4.8-1.3-2.2-1.4-3.4-3.9-1.2-2.5-1.2-5.9 0-3.4 1.2-5.9 1.2-2.6 3.4-3.9 2.1-1.3 4.8-1.3 2.5 0 4.3 1.1zm-5.6 6.1q-1.3 1.4-1.3 3.9 0 2.5 1.3 3.9 1.3 1.4 3.4 1.4 2.1 0 3.5-1.4 1.3-1.5 1.3-3.9 0-2.5-1.3-3.9-1.4-1.4-3.5-1.4-2.1 0-3.4 1.4z"/><path class="a" d="m223.9 64.9q2.2 2.5 2.2 6.9v12.6h-6.7v-11.9q0-2.1-1.1-3.4-1.2-1.2-3.1-1.2-2 0-3.2 1.3-1.2 1.3-1.2 3.7v11.5h-6.7v-21.8h6.7v4q0.9-1.9 2.8-3.1 1.9-1.1 4.4-1.1 3.7 0 5.9 2.5z"/><path class="a" d="m247.4 64.7q2.9 2.3 3.6 6.4h-7.1q-0.3-1.4-1.2-2.2-1-0.8-2.5-0.8-1.8 0-2.9 1.4-1.1 1.3-1.1 4 0 2.6 1.1 4 1.1 1.4 2.9 1.4 1.5 0 2.5-0.8 0.9-0.8 1.2-2.2h7.1q-0.7 4.1-3.6 6.4-2.8 2.3-7 2.3-3.3 0-5.7-1.3-2.5-1.4-3.9-3.9-1.4-2.5-1.4-5.9 0-3.4 1.4-5.9 1.4-2.6 3.9-3.9 2.5-1.3 5.7-1.3c2.8 0 5.1 0.7 7 2.3z"/><path class="a" d="m275 74.7h-15.1q0.1 2.5 1.2 3.5 1.2 1.1 2.9 1.1 1.5 0 2.5-0.7 1-0.8 1.3-1.9h7q-0.4 2.3-1.8 4.1-1.5 1.8-3.7 2.8-2.2 1.1-5 1.1-3.2 0-5.7-1.4-2.4-1.3-3.8-3.9-1.4-2.5-1.4-5.9 0-3.4 1.4-5.9 1.3-2.5 3.8-3.9 2.5-1.3 5.7-1.3 3.3 0 5.7 1.3 2.5 1.3 3.8 3.7 1.4 2.4 1.4 5.6c0 0.5-0.1 1.1-0.2 1.7zm-7.7-6q-1.2-1.1-3-1.1-1.8 0-3 1.1-1.2 1.1-1.4 3.2h8.5q0.1-2.1-1.1-3.2z"/><path class="a" d="m293.2 64.4q2.5 2.1 3.1 5.5h-6.2q-0.3-1.3-1.2-2.1-1-0.8-2.4-0.8-1.2 0-1.8 0.5-0.6 0.5-0.6 1.4 0 1 1.1 1.5 1.1 0.5 3.4 1 2.5 0.6 4.1 1.2 1.6 0.6 2.8 2 1.2 1.3 1.2 3.6 0 1.9-1 3.4-1 1.4-3 2.2-1.9 0.8-4.5 0.8-4.4 0-7.1-1.9-2.6-2-3.2-5.6h6.4q0.2 1.4 1.2 2.2 1.1 0.7 2.7 0.7 1.1 0 1.7-0.5 0.6-0.6 0.6-1.4 0-1.1-1.1-1.6-1-0.5-3.5-1-2.4-0.6-3.9-1.1-1.6-0.6-2.7-1.9-1.2-1.3-1.2-3.6 0-2.9 2.3-4.7 2.2-1.9 6.2-1.9c2.8 0.1 5 0.7 6.6 2.1z"/></svg>